<svg width="32" height="33" viewBox="0 0 32 33" fill="none" xmlns="http://www.w3.org/2000/svg">
<path d="M31 16.3167C31 24.5665 24.2876 31.2604 16 31.2604C7.7124 31.2604 1 24.5665 1 16.3167C1 8.06687 7.7124 1.37305 16 1.37305C24.2876 1.37305 31 8.06687 31 16.3167Z" fill="#6439B3" stroke="#55408E" stroke-width="2"/>
<path fill-rule="evenodd" clip-rule="evenodd" d="M10.6458 17.5894L17.1061 11.2789C17.9373 10.467 19.2855 10.467 20.1167 11.2789L20.9796 12.1218C21.8108 12.9337 21.8108 14.2506 20.9796 15.0625L14.4937 21.3978C14.1229 21.7601 13.62 21.9633 13.0952 21.9633H10.439C10.1923 21.9633 9.99399 21.7648 10.0001 21.5238L10.067 18.9059C10.0802 18.411 10.2875 17.9393 10.6458 17.5894ZM20.3587 12.7282L19.4958 11.8854C19.0075 11.4084 18.2153 11.4084 17.727 11.8854L17.2255 12.3753L19.8575 14.9456L20.3587 14.456C20.847 13.979 20.847 13.2052 20.3587 12.7282ZM11.2667 18.1958L16.6046 12.9817L19.2366 15.5521L13.8729 20.7913L13.8015 20.8552C13.6045 21.0164 13.3548 21.1057 13.0952 21.1057L10.889 21.1054L10.9447 18.9278C10.9521 18.653 11.0675 18.3904 11.2667 18.1958ZM22 21.5346C22 21.2977 21.8034 21.1057 21.561 21.1057H16.9807L16.9211 21.1097C16.7068 21.138 16.5416 21.3175 16.5416 21.5346C16.5416 21.7714 16.7382 21.9634 16.9807 21.9634H21.561L21.6205 21.9595C21.8348 21.9311 22 21.7517 22 21.5346Z" fill="white"/>
</svg>
