<svg width="32" height="32" viewBox="0 0 32 32" fill="none" xmlns="http://www.w3.org/2000/svg">
<circle cx="16" cy="16" r="16" fill="#9055FA"/>
<path fill-rule="evenodd" clip-rule="evenodd" d="M19.0168 10L12.9708 10C10.8577 10 9.33331 11.7077 9.33331 13.906V18.094C9.33331 20.2923 10.8577 22 12.9708 22H19.0112C20.0261 21.9886 20.9868 21.5614 21.675 20.8177C22.3633 20.074 22.7191 19.0789 22.6595 18.064L22.6604 13.906C22.7191 12.9211 22.3633 11.926 21.675 11.1823C20.9868 10.4386 20.0261 10.0114 19.0168 10ZM12.9708 11.019L19.0056 11.0189C19.7382 11.0271 20.4355 11.3373 20.935 11.8771C21.4346 12.4169 21.6929 13.1392 21.6496 13.8759L21.6488 18.094C21.6929 18.8608 21.4346 19.5831 20.935 20.1229C20.4355 20.6627 19.7382 20.9729 19.0056 20.9811L12.9708 20.981C11.4418 20.981 10.3449 19.7523 10.3449 18.094V13.906C10.3449 12.2477 11.4418 11.019 12.9708 11.019ZM20.016 13.7589C19.8414 13.5392 19.5231 13.5037 19.305 13.6795L16.5722 15.8828L16.4938 15.9379C16.1716 16.1397 15.7485 16.1211 15.4399 15.8787L12.687 13.6782L12.6251 13.6357C12.4116 13.5115 12.1343 13.5602 11.9764 13.7606C11.8027 13.981 11.8393 14.3014 12.0582 14.4764L14.8145 16.6797L14.922 16.7584C15.6154 17.2306 16.5342 17.2045 17.1992 16.6824L19.9372 14.475L19.9921 14.4237C20.16 14.2417 20.1747 13.9586 20.016 13.7589Z" fill="white"/>
</svg>
