<svg width="393" height="123" viewBox="0 0 393 123" fill="none" xmlns="http://www.w3.org/2000/svg">
<rect y="52" width="391" height="68" fill="#4A327E"/>
<g clip-path="url(#clip0_5_1561)">
<path d="M345.41 100.082C345.41 105.752 350.011 110.35 355.683 110.35C357.7 110.35 359.584 109.769 361.172 108.761C364.048 106.944 365.957 103.736 365.957 100.082C365.957 94.4099 361.356 89.8145 355.684 89.8145C350.907 89.8145 346.888 93.0761 345.739 97.4925C345.525 98.3189 345.41 99.187 345.41 100.082Z" fill="white"/>
<g opacity="0.25">
<path d="M345.41 100.082C345.41 105.752 350.01 110.35 355.683 110.35C357.7 110.35 359.584 109.768 361.172 108.761C359.636 108.56 358.198 107.907 358.051 106.193C357.725 102.394 365.047 98.4097 365.047 98.4097C365.047 98.4097 361.199 93.5493 360.267 93.5493C359.335 93.5493 351.216 95.3348 346.878 96.9875C346.47 97.1419 346.093 97.3086 345.739 97.4928C345.525 98.3187 345.41 99.1868 345.41 100.082Z" fill="#561B42"/>
</g>
<path d="M355.684 111.33C361.889 111.33 366.938 106.284 366.938 100.081C366.938 93.8792 361.889 88.8329 355.684 88.8329C349.478 88.8329 344.429 93.8792 344.429 100.081C344.429 106.284 349.478 111.33 355.684 111.33ZM355.684 90.7948C360.807 90.7948 364.975 94.9607 364.975 100.081C364.975 105.202 360.807 109.368 355.684 109.368C350.56 109.368 346.392 105.202 346.392 100.081C346.392 94.9607 350.56 90.7948 355.684 90.7948Z" fill="#371A45"/>
<path d="M292.976 102.755C297.108 108.962 307.798 106.863 307.798 106.863C309.349 100.307 314.644 93.9707 314.644 93.9707L318.005 85.4293L321.99 75.3087C318.135 71.7382 312.45 74.5606 312.45 74.5606C302.621 83.5779 295.145 98.2672 293.376 101.914C293.114 102.456 292.976 102.755 292.976 102.755Z" fill="#8E5E79"/>
<g opacity="0.25">
<path d="M292.976 102.755C297.108 108.962 307.798 106.863 307.798 106.863C309.349 100.307 314.644 93.9708 314.644 93.9708L318.005 85.4293C317.34 82.7882 316.83 80.9611 316.83 80.9611C316.83 80.9611 309.717 92.2662 306.451 98.6177C303.806 103.765 296.875 104.626 293.376 101.914C293.114 102.456 292.976 102.755 292.976 102.755Z" fill="#561B42"/>
</g>
<g opacity="0.6">
<path d="M293.376 101.914C295.145 98.2673 302.621 83.578 312.451 74.5607C312.451 74.5607 317.385 72.113 321.177 74.6661C317.841 73.6913 314.368 75.3607 314.368 75.3607C304.425 84.2526 296.527 99.0826 294.712 102.707C294.442 103.245 294.538 103.306 294.538 103.306C295.463 104.735 296.736 105.734 298.149 106.428C296.139 105.788 294.247 104.665 292.976 102.756C292.976 102.755 293.114 102.456 293.376 101.914Z" fill="white"/>
</g>
<path d="M309.167 102.249C309.426 102.249 309.689 102.245 309.954 102.238C310.496 102.223 310.923 101.771 310.908 101.229C310.892 100.688 310.441 100.259 309.899 100.277C301.566 100.511 296.435 96.5438 296.384 96.5039C295.959 96.1687 295.342 96.2402 295.006 96.6642C294.67 97.0882 294.74 97.7032 295.163 98.0401C295.385 98.2166 300.556 102.249 309.167 102.249Z" fill="#561B42"/>
<path d="M303.69 108.195C306.042 108.195 307.807 107.861 307.987 107.826C308.365 107.752 308.665 107.464 308.753 107.089C310.23 100.843 315.346 94.6606 315.397 94.599C315.465 94.5182 315.519 94.4272 315.557 94.3293L322.903 75.6673C323.051 75.2913 322.954 74.8634 322.657 74.5887C318.356 70.6044 312.271 73.5552 312.014 73.6828C311.932 73.7236 311.855 73.7763 311.788 73.8384C300.483 84.2074 292.422 101.61 292.084 102.346C291.943 102.655 291.971 103.015 292.159 103.298C294.873 107.374 300.002 108.195 303.69 108.195ZM307.006 105.996C304.849 106.294 297.469 106.952 294.112 102.652C295.539 99.6827 303.109 84.5251 313.003 75.3874C313.736 75.0629 317.819 73.4199 320.817 75.6103L313.788 93.4668C313.034 94.3927 308.641 99.9655 307.006 105.996Z" fill="#561B42"/>
<path d="M312.171 126.472C320.216 131.077 328.321 128.89 328.321 128.89L329.763 118.008C331.557 118.663 333.77 118.533 333.77 118.533C333.77 118.533 335.983 118.663 337.777 118.008L337.784 118.06L339.219 128.89C339.219 128.89 343.339 130.003 348.621 128.97C350.746 128.556 353.06 127.793 355.369 126.471C355.369 126.471 354.611 111.728 353.153 105.261C353.153 105.261 340.507 107.211 333.77 107.211C327.033 107.211 314.387 105.261 314.387 105.261C312.929 111.728 312.171 126.472 312.171 126.472Z" fill="#3B7FD1"/>
<g opacity="0.25">
<path d="M337.784 118.06L339.219 128.89C339.219 128.89 343.339 130.003 348.621 128.97C348.624 128.968 348.626 128.968 348.626 128.968C348.626 128.968 343.182 123.29 343.726 116.342C343.773 115.732 343.087 115.347 342.588 115.701C341.52 116.458 339.88 117.425 337.784 118.06Z" fill="#561B42"/>
</g>
<g opacity="0.25">
<path d="M329.756 118.06L328.321 128.89C328.321 128.89 324.201 130.003 318.919 128.97C318.916 128.968 318.914 128.968 318.914 128.968C318.914 128.968 324.358 123.29 323.814 116.342C323.767 115.732 324.453 115.347 324.952 115.701C326.019 116.458 327.66 117.425 329.756 118.06Z" fill="#561B42"/>
</g>
<path d="M330.01 117.059C329.721 117.001 329.375 116.939 329.049 116.882L328.041 116.712C327.704 116.652 327.36 116.597 327.011 116.543C326.659 116.496 326.307 116.44 325.929 116.418H325.928C325.886 116.415 325.85 116.447 325.848 116.489C325.847 116.508 325.853 116.527 325.865 116.541C326.105 116.834 326.375 117.089 326.656 117.325C326.939 117.56 327.236 117.774 327.544 117.97C327.849 118.171 328.166 118.352 328.491 118.519C328.822 118.686 329.138 118.835 329.518 118.959C330.035 119.126 330.59 118.843 330.756 118.326C330.924 117.81 330.64 117.256 330.124 117.089C330.088 117.078 330.052 117.068 330.016 117.061L330.01 117.059Z" fill="#371A45"/>
<path d="M338.022 118.958C338.403 118.835 338.719 118.685 339.05 118.519C339.375 118.351 339.692 118.17 339.997 117.969C340.304 117.773 340.601 117.559 340.884 117.324C341.166 117.088 341.435 116.834 341.676 116.541C341.702 116.508 341.697 116.461 341.665 116.434C341.65 116.421 341.631 116.416 341.613 116.417H341.612C341.234 116.44 340.881 116.496 340.529 116.543C340.181 116.597 339.838 116.652 339.499 116.711L338.492 116.882C338.166 116.939 337.819 117 337.53 117.059L337.526 117.059C336.993 117.167 336.649 117.685 336.756 118.217C336.863 118.749 337.382 119.093 337.915 118.986C337.951 118.979 337.987 118.969 338.022 118.958Z" fill="#371A45"/>
<path d="M354.616 116.816C354.979 116.816 355.295 116.548 355.345 116.179C355.399 115.777 355.118 115.407 354.716 115.352C354.488 115.319 349.401 114.494 348.481 107.227C348.43 106.824 348.061 106.538 347.658 106.589C347.255 106.64 346.969 107.009 347.02 107.412C348.089 115.848 354.453 116.801 354.517 116.81C354.55 116.814 354.584 116.816 354.616 116.816Z" fill="#371A45"/>
<path d="M312.924 116.817C312.957 116.817 312.99 116.814 313.023 116.81C313.087 116.801 319.451 115.848 320.52 107.411C320.571 107.008 320.286 106.64 319.882 106.589C319.48 106.538 319.111 106.824 319.06 107.227C318.132 114.554 312.88 115.345 312.827 115.352C312.424 115.406 312.141 115.777 312.195 116.179C312.245 116.549 312.561 116.817 312.924 116.817Z" fill="#371A45"/>
<path d="M323.484 130.4C326.423 130.4 328.41 129.883 328.577 129.838C328.959 129.735 329.242 129.412 329.294 129.019L330.586 119.28C330.928 119.366 331.29 119.442 331.671 119.509C333.064 119.756 334.477 119.756 335.87 119.509C336.251 119.442 336.613 119.366 336.955 119.28L338.246 129.019C338.298 129.412 338.581 129.734 338.964 129.838C339.311 129.931 347.555 132.074 355.857 127.324C356.178 127.14 356.368 126.791 356.35 126.422C356.319 125.817 355.57 111.521 354.111 105.046C353.998 104.543 353.513 104.213 353.004 104.291C352.879 104.311 340.354 106.229 333.771 106.229C327.187 106.229 314.663 104.311 314.537 104.291C314.027 104.212 313.543 104.542 313.43 105.046C311.971 111.521 311.223 125.817 311.192 126.422C311.173 126.791 311.363 127.14 311.684 127.324C316 129.793 320.301 130.4 323.484 130.4ZM327.439 128.077C325.497 128.438 319.343 129.199 313.185 125.912C313.339 123.213 314.015 112.24 315.158 106.369C318.213 106.818 328.016 108.191 333.77 108.191C339.525 108.191 349.327 106.818 352.382 106.369C353.525 112.24 354.201 123.213 354.355 125.912C348.199 129.199 342.045 128.438 340.101 128.077L338.749 117.879C338.71 117.584 338.539 117.323 338.284 117.169C338.029 117.015 337.718 116.985 337.439 117.087C336.902 117.283 336.259 117.448 335.528 117.578C334.362 117.784 333.179 117.784 332.012 117.578C331.281 117.448 330.639 117.283 330.102 117.087C329.822 116.985 329.511 117.015 329.256 117.169C329.001 117.323 328.831 117.584 328.791 117.879L327.439 128.077Z" fill="#371A45"/>
<path d="M343.999 70.0062L344.353 71.2473L344.632 72.2306L345.945 76.8362L346.011 77.0693L347.631 82.7514L353.328 102.755C353.328 102.755 353.966 102.733 355.016 102.566C357.315 102.198 361.602 101.129 365.523 98.0463C366.028 97.6466 366.438 97.1634 366.74 96.6262C367.446 95.378 367.579 93.8451 367.027 92.4501C365.859 89.4998 363.734 84.8873 360.449 80.4509C360.449 80.4509 360.434 80.4314 360.404 80.3944C359.268 78.8616 357.99 77.3534 356.567 75.9435C356.53 75.9069 356.496 75.8699 356.459 75.8334C356.039 75.4212 355.607 75.0193 355.164 74.6268C355.139 74.6047 355.115 74.5825 355.09 74.5604C355.09 74.5604 355.09 74.5604 355.087 74.5604C353.156 72.8634 350.982 71.3651 348.553 70.2223C348.396 70.1487 348.239 70.0777 348.082 70.0067H343.999V70.0062Z" fill="#8E5E79"/>
<g opacity="0.25">
<path d="M347.63 82.7511L353.328 102.755C353.328 102.755 353.966 102.732 355.016 102.566C357.315 102.198 361.601 101.129 365.522 98.046C366.028 97.6462 366.437 97.163 366.739 96.6259C363.493 98.5168 359.567 99.8361 358.522 96.03C356.66 89.2442 350.241 79.6238 350.241 79.6238C350.241 79.6238 349.122 80.875 347.63 82.7511Z" fill="#561B42"/>
</g>
<g opacity="0.6">
<path d="M367.368 95.1211C367.368 95.1211 360.908 81.9464 352.337 74.8106L355.163 74.6268C355.163 74.6268 367.647 87.5456 367.368 95.1211Z" fill="white"/>
</g>
<path d="M352.031 99.1033C352.102 99.1033 352.176 99.0952 352.248 99.0786C360.839 97.1311 366.996 92.5327 367.255 92.3379C367.687 92.0112 367.773 91.3962 367.446 90.9637C367.119 90.532 366.504 90.4461 366.072 90.7723C366.012 90.8174 359.976 95.315 351.814 97.1655C351.286 97.2855 350.954 97.8107 351.074 98.3394C351.177 98.7945 351.582 99.1033 352.031 99.1033Z" fill="#371A45"/>
<path d="M353.328 103.736C353.339 103.736 353.35 103.736 353.362 103.735C353.639 103.726 360.233 103.454 366.13 98.8167C368.169 97.2133 368.895 94.5096 367.938 92.0888C365.374 85.602 359.436 73.9907 348.481 69.1098C348.356 69.0537 348.219 69.0248 348.082 69.0248H344C343.693 69.0248 343.402 69.169 343.217 69.4148C343.031 69.6602 342.972 69.9787 343.056 70.2743L352.384 103.024C352.505 103.446 352.891 103.736 353.328 103.736ZM347.87 70.9863C358.453 75.8127 364.148 87.84 366.112 92.8093C366.748 94.4174 366.267 96.2117 364.916 97.2746C360.631 100.644 355.864 101.498 354.051 101.708L345.3 70.9863H347.87Z" fill="#371A45"/>
<path d="M313.629 105.494C311.486 112.618 333.491 112.947 333.768 112.951C333.77 112.951 333.77 112.951 333.77 112.951C333.77 112.951 356.068 112.662 353.912 105.494C353.912 105.494 354.761 104.873 355.016 102.566C355.102 101.786 355.122 100.815 355.019 99.6082C354.611 94.8311 353.036 86.265 350.242 79.6242C350.242 79.6242 350.239 79.6242 350.242 79.6217C350.239 79.6191 350.239 79.6166 350.239 79.6166L349.037 76.4361L348.745 75.6612L347.091 71.2861L346.493 71.2788L344.353 71.2469L322.254 70.9377C322.254 70.9377 322.011 71.124 321.609 71.5655C321.174 72.0435 320.556 72.8185 319.857 73.9787C319.555 74.4789 319.238 75.0505 318.915 75.7029C318.797 75.9406 318.679 76.1886 318.559 76.4485C318.139 77.3654 317.715 78.4151 317.303 79.617C315.455 85.012 313.794 91.3929 312.979 96.19C312.764 97.4553 312.609 98.6104 312.523 99.6086C312.112 104.386 313.629 105.494 313.629 105.494Z" fill="#8E5E79"/>
<path d="M344 72.7483L333.77 81.5437L323.538 72.7483H344Z" fill="white"/>
<g opacity="0.25">
<path d="M312.52 102.566C312.434 101.786 312.414 100.815 312.517 99.6086C312.924 94.8315 314.5 86.2654 317.294 79.6246C317.223 80.0095 314.418 94.8511 316.597 97.0287C318.805 99.2356 321.539 95.1501 321.539 95.1501C321.539 95.1501 320.02 106.951 333.768 106.951C347.515 106.951 345.996 95.1501 345.996 95.1501C345.996 95.1501 348.73 99.2356 350.938 97.0287C353.117 94.8511 350.313 80.0095 350.241 79.6246C353.036 86.2654 354.611 94.8315 355.018 99.6086C355.121 100.815 355.102 101.786 355.016 102.566C354.76 104.874 353.911 105.494 353.911 105.494C356.068 112.663 333.77 112.952 333.77 112.952C333.77 112.952 333.77 112.952 333.767 112.952C333.765 112.952 333.765 112.952 333.765 112.952C333.765 112.952 311.466 112.663 313.623 105.494C313.623 105.494 312.775 104.873 312.52 102.566Z" fill="#561B42"/>
</g>
<path d="M315.632 107.051C316.074 107.051 316.449 106.712 316.487 106.265L316.836 102.146C318.174 101.75 320.98 100.346 322.303 95.452C322.402 95.085 322.728 94.8285 323.096 94.8285H344.444C344.812 94.8285 345.138 95.085 345.237 95.452C346.561 100.346 349.367 101.75 350.704 102.146L351.053 106.265C351.093 106.737 351.509 107.087 351.981 107.048C352.454 107.008 352.805 106.592 352.765 106.12L352.362 101.371C352.327 100.953 351.994 100.622 351.575 100.588C351.451 100.576 348.298 100.193 346.895 95.0046C346.594 93.8903 345.586 93.1124 344.444 93.1124H323.096C321.954 93.1124 320.947 93.8907 320.645 95.0046C319.242 100.194 316.09 100.576 315.956 100.589C315.545 100.631 315.213 100.961 315.178 101.371L314.776 106.12C314.736 106.593 315.086 107.008 315.559 107.048C315.583 107.05 315.608 107.051 315.632 107.051Z" fill="#371A45"/>
<path d="M333.635 109.775C336.743 109.775 339.537 109.548 341.896 109.24C349.32 108.272 354.039 106.369 354.236 106.288C354.675 106.109 354.886 105.608 354.707 105.17C354.527 104.731 354.026 104.52 353.587 104.699C353.541 104.718 348.835 106.611 341.616 107.546C334.973 108.406 324.776 108.608 313.921 104.687C313.474 104.526 312.983 104.757 312.821 105.202C312.66 105.648 312.891 106.14 313.337 106.301C320.679 108.954 327.724 109.775 333.635 109.775Z" fill="#371A45"/>
<path d="M317.03 79.5038C315.903 81.47 315.066 83.5833 314.369 85.7286C314.018 86.8016 313.724 87.8904 313.435 88.9805C313.153 90.0723 312.882 91.1679 312.656 92.2728C312.184 94.4797 311.807 96.7054 311.569 98.9701C311.541 99.2542 311.509 99.5337 311.493 99.8301C311.475 100.123 311.447 100.414 311.446 100.711C311.439 101.006 311.435 101.302 311.449 101.603C311.454 101.9 311.479 102.203 311.507 102.505C311.572 103.112 311.671 103.725 311.867 104.347C311.97 104.659 312.083 104.97 312.256 105.283C312.294 105.36 312.343 105.439 312.391 105.518C312.436 105.595 312.489 105.674 312.548 105.753C312.601 105.831 312.669 105.912 312.737 105.992C312.771 106.032 312.816 106.077 312.856 106.117C312.874 106.137 312.903 106.163 312.93 106.187L312.971 106.223C312.983 106.234 313.023 106.266 313.048 106.285L313.049 106.285L312.689 105.211C312.511 105.795 312.444 106.466 312.566 107.124C312.679 107.785 312.993 108.386 313.37 108.867C313.749 109.352 314.19 109.737 314.644 110.063C315.098 110.388 315.569 110.654 316.045 110.889C316.997 111.357 317.969 111.704 318.945 111.995C319.921 112.286 320.903 112.518 321.886 112.716C323.853 113.112 325.827 113.377 327.803 113.571C328.791 113.669 329.78 113.746 330.77 113.807C331.265 113.838 331.76 113.864 332.256 113.886L333.001 113.914L333.768 113.934L334.536 113.914L335.281 113.886C335.777 113.864 336.272 113.838 336.768 113.807C337.757 113.746 338.746 113.669 339.734 113.572C341.711 113.377 343.685 113.112 345.652 112.717C346.635 112.518 347.617 112.286 348.593 111.995C349.569 111.705 350.541 111.358 351.493 110.89C351.969 110.655 352.44 110.388 352.895 110.064C353.348 109.739 353.789 109.354 354.169 108.868C354.546 108.387 354.86 107.787 354.974 107.126C355.096 106.469 355.029 105.797 354.852 105.213L354.851 105.211L354.49 106.285C354.516 106.266 354.555 106.236 354.568 106.224L354.61 106.188C354.637 106.163 354.666 106.137 354.684 106.117C354.724 106.076 354.769 106.032 354.802 105.992C354.87 105.912 354.939 105.831 354.992 105.753C355.05 105.674 355.103 105.596 355.149 105.518C355.196 105.439 355.246 105.36 355.284 105.283C355.456 104.97 355.57 104.659 355.672 104.347C355.868 103.725 355.966 103.112 356.031 102.505C356.059 102.203 356.084 101.9 356.088 101.603C356.102 101.303 356.097 101.007 356.091 100.711C356.09 100.414 356.062 100.124 356.043 99.8305C356.026 99.5341 355.994 99.2547 355.966 98.9706C355.85 97.8375 355.693 96.716 355.506 95.6013C355.326 94.4857 355.11 93.3773 354.873 92.2749C354.644 91.1704 354.376 90.0744 354.092 88.9835C353.949 88.4378 353.796 87.8951 353.646 87.352C353.482 86.8119 353.337 86.2675 353.156 85.732C352.975 85.1974 352.815 84.6568 352.607 84.1307L352.31 83.3379C352.206 83.0751 352.092 82.8161 351.984 82.5554C351.548 81.5134 351.043 80.4965 350.467 79.5217C350.397 79.4026 350.243 79.363 350.124 79.4332C350.026 79.4906 349.982 79.6042 350.008 79.7088L350.009 79.7143C350.278 80.8044 350.584 81.8672 350.858 82.9407C350.999 83.4757 351.141 84.0095 351.275 84.5458L351.683 86.1514C352.234 88.2889 352.673 90.4563 353.066 92.6279C353.448 94.8004 353.764 96.9886 353.968 99.1645C353.993 99.4358 354.021 99.711 354.033 99.9717C354.047 100.236 354.069 100.501 354.068 100.762C354.075 101.024 354.082 101.286 354.07 101.543C354.069 101.804 354.049 102.057 354.028 102.31C353.978 102.812 353.899 103.307 353.762 103.75C353.69 103.967 353.616 104.184 353.523 104.363C353.502 104.413 353.477 104.452 353.454 104.494C353.431 104.538 353.407 104.575 353.383 104.608C353.359 104.648 353.337 104.672 353.317 104.701C353.307 104.715 353.301 104.718 353.293 104.728C353.288 104.735 353.291 104.731 353.292 104.731L353.295 104.73L353.332 104.702L352.971 105.776L352.972 105.778C353.177 106.489 353.077 107.083 352.619 107.663C352.169 108.244 351.425 108.738 350.623 109.132C349.815 109.528 348.935 109.847 348.033 110.115C347.13 110.384 346.202 110.604 345.263 110.794C343.385 111.171 341.468 111.429 339.543 111.619C338.58 111.714 337.614 111.789 336.647 111.849C336.163 111.879 335.68 111.904 335.196 111.925L334.472 111.953L333.769 111.971L333.066 111.953L332.342 111.925C331.859 111.904 331.375 111.879 330.891 111.849C329.925 111.789 328.958 111.713 327.995 111.619C326.07 111.429 324.153 111.171 322.275 110.793C321.337 110.604 320.409 110.384 319.506 110.114C318.603 109.847 317.723 109.528 316.915 109.131C316.114 108.737 315.369 108.243 314.919 107.662C314.462 107.082 314.363 106.487 314.568 105.776L314.207 104.702L314.208 104.702L314.245 104.73L314.247 104.731C314.249 104.732 314.251 104.736 314.246 104.729C314.239 104.719 314.233 104.715 314.223 104.701C314.202 104.672 314.18 104.648 314.156 104.608C314.132 104.575 314.109 104.537 314.086 104.493C314.062 104.451 314.037 104.412 314.016 104.363C313.924 104.184 313.849 103.967 313.778 103.75C313.641 103.306 313.563 102.812 313.514 102.31C313.493 102.057 313.473 101.803 313.472 101.543C313.461 101.286 313.469 101.024 313.475 100.762C313.473 100.501 313.497 100.236 313.511 99.9722C313.522 99.7114 313.552 99.4363 313.576 99.1649C313.782 96.9895 314.099 94.8013 314.484 92.6301L314.632 91.8156L314.79 91.0033C314.889 90.4601 315.008 89.9213 315.118 89.3803C315.232 88.8401 315.358 88.303 315.48 87.7645L315.87 86.1556C316.401 84.0112 316.981 81.8855 317.573 79.7326L317.574 79.7301C317.617 79.5718 317.524 79.4085 317.366 79.3651C317.233 79.3286 317.096 79.389 317.03 79.5038Z" fill="#371A45"/>
<path d="M333.77 81.5446C333.77 81.5446 339.161 80.3771 345.167 77.2311C345.179 77.2239 345.192 77.2188 345.204 77.2115C345.454 77.0814 345.702 76.9563 345.944 76.8364C346.946 76.3507 347.88 75.9632 348.744 75.6617C352.596 74.2982 354.988 74.5482 355.087 74.5606C355.089 74.5606 355.089 74.5606 355.089 74.5606C355.114 74.5801 355.141 74.6023 355.168 74.6244C355.563 74.9506 356.004 75.3699 356.458 75.8335C356.495 75.8701 356.529 75.9071 356.567 75.9437C358.267 77.6972 360.102 80.0122 360.404 80.3945C360.433 80.4311 360.448 80.4511 360.448 80.4511C364.467 76.4341 359.741 73.2119 359.741 73.2119C360.033 72.9202 360.286 72.6259 360.497 72.3341C363.409 68.3613 359.346 64.6437 359.346 64.6437C359.346 64.6437 353.343 67.7629 348.553 70.2229C347.829 70.5954 347.135 70.9514 346.492 71.2798C345.903 71.5813 345.356 71.8586 344.875 72.1036C344.794 72.1453 344.713 72.1869 344.632 72.2312C342.279 73.4892 339.406 75.993 337.205 78.0872C335.213 79.9828 333.77 81.5446 333.77 81.5446Z" fill="#8E5E79"/>
<path d="M359.187 72.4013C359.208 72.3894 359.194 72.4005 359.192 72.4039C359.19 72.4081 359.179 72.4158 359.172 72.4217C359.158 72.4349 359.14 72.4507 359.12 72.466C359.084 72.497 359.038 72.5272 358.995 72.5578C358.905 72.6182 358.81 72.6812 358.707 72.739C358.503 72.8551 358.279 72.9619 358.037 73.0525C357.795 73.1328 357.536 73.22 357.261 73.2723C356.986 73.3357 356.696 73.3787 356.384 73.4276L356.379 73.4284C356.326 73.4369 356.291 73.4863 356.299 73.539C356.303 73.5641 356.316 73.5854 356.335 73.5998C356.46 73.6981 356.592 73.7908 356.73 73.8763C356.871 73.9524 357.014 74.0358 357.167 74.0945C357.469 74.2242 357.795 74.3067 358.132 74.3565C358.471 74.4037 358.822 74.4083 359.177 74.3654C359.355 74.3467 359.532 74.3084 359.712 74.2595C359.801 74.2318 359.89 74.205 359.983 74.1689C360.028 74.1515 360.075 74.1344 360.123 74.111C360.148 74.0996 360.169 74.0902 360.198 74.0749C360.227 74.0596 360.244 74.0519 360.296 74.02C360.743 73.7138 360.857 73.1035 360.551 72.6565C360.245 72.2091 359.634 72.0951 359.187 72.4013Z" fill="#371A45"/>
<path d="M333.77 82.5251C333.839 82.5251 333.908 82.5178 333.977 82.503C334.203 82.454 339.568 81.273 345.621 78.1006C350.375 75.6096 353.761 75.496 354.708 75.522C356.659 77.2053 359.643 81.0157 359.674 81.0556C359.847 81.2772 360.107 81.4137 360.388 81.4312C360.669 81.4486 360.943 81.3444 361.142 81.1458C362.539 79.7495 363.174 78.258 363.029 76.7128C362.878 75.0979 361.887 73.8441 361.14 73.1139C362.093 71.8992 362.56 70.5803 362.529 69.1815C362.464 66.2009 360.11 64.0131 360.009 63.9217C359.705 63.6435 359.26 63.5848 358.894 63.7749C358.795 63.8268 348.864 68.985 344.431 71.2293C339.836 73.5553 333.323 80.5814 333.048 80.8796C332.758 81.1939 332.705 81.66 332.918 82.0313C333.095 82.3405 333.423 82.5251 333.77 82.5251ZM354.475 73.5549C353.015 73.5549 349.478 73.8645 344.71 76.3628C341.85 77.8616 339.116 78.9053 337.07 79.5802C339.363 77.3406 342.74 74.2835 345.318 72.9786C349.09 71.069 356.826 67.0583 359.135 65.8598C359.684 66.5212 360.54 67.7809 360.567 69.2359C360.589 70.3838 360.078 71.4875 359.048 72.5172C358.842 72.7234 358.738 73.0114 358.765 73.3018C358.792 73.5928 358.947 73.856 359.189 74.0206C359.203 74.0308 360.927 75.2434 361.076 76.9038C361.135 77.5617 360.932 78.2333 360.469 78.9087C359.352 77.5371 357.227 75.0243 355.705 73.7978C355.562 73.6825 355.39 73.6098 355.207 73.5877C355.168 73.583 354.916 73.5549 354.475 73.5549Z" fill="#371A45"/>
<path d="M306.999 80.3556C307.028 80.3875 307.06 80.4194 307.092 80.4513C307.092 80.4513 308.658 78.4476 310.302 76.6575C310.324 76.6329 310.346 76.6086 310.37 76.5839C311.065 75.8312 311.771 75.12 312.372 74.6246C312.399 74.6024 312.426 74.5803 312.451 74.5608C312.451 74.5608 314.91 74.2618 318.914 75.7036C319.692 75.9809 320.531 76.3266 321.422 76.7532C321.721 76.8978 322.025 77.0501 322.337 77.2117C322.349 77.2189 322.362 77.224 322.373 77.2313C328.38 80.3777 333.77 81.5447 333.77 81.5447C333.77 81.5447 332.328 79.9826 330.336 78.087C328.059 75.9192 325.06 73.3146 322.665 72.1033C322.339 71.9392 321.986 71.7576 321.608 71.5662C316.782 69.1041 308.194 64.6434 308.194 64.6434C308.194 64.6434 304.131 68.361 307.043 72.3338C307.254 72.6256 307.507 72.9199 307.799 73.2117C307.799 73.2121 303.149 76.3828 306.999 80.3556Z" fill="#8E5E79"/>
<path d="M307.244 74.0198C307.295 74.0521 307.313 74.0594 307.342 74.0747C307.37 74.09 307.391 74.0993 307.416 74.1108C307.465 74.1342 307.511 74.1512 307.557 74.1687C307.65 74.2052 307.738 74.2316 307.828 74.2593C308.007 74.3082 308.185 74.3464 308.363 74.3652C308.718 74.4085 309.069 74.4034 309.407 74.3562C309.745 74.3065 310.071 74.224 310.373 74.0942C310.525 74.036 310.668 73.9522 310.809 73.8761C310.948 73.7901 311.08 73.6979 311.205 73.5996C311.247 73.5669 311.254 73.506 311.221 73.4639C311.205 73.4439 311.184 73.432 311.16 73.4282L311.155 73.4274C310.844 73.378 310.554 73.3355 310.278 73.2721C310.003 73.2198 309.745 73.1326 309.502 73.0522C309.261 72.9616 309.036 72.8549 308.832 72.7388C308.73 72.6814 308.634 72.6184 308.544 72.5576C308.501 72.527 308.455 72.4968 308.419 72.4657C308.4 72.4504 308.382 72.4347 308.368 72.4215C308.36 72.4151 308.35 72.4075 308.348 72.4036C308.345 72.4002 308.331 72.3892 308.353 72.4011C307.905 72.0949 307.295 72.2089 306.988 72.6559C306.682 73.1033 306.797 73.7136 307.244 74.0198Z" fill="#561B42"/>
<path d="M333.77 82.525C334.117 82.525 334.445 82.3408 334.622 82.0308C334.834 81.6595 334.782 81.1934 334.491 80.8791C334.217 80.5809 327.704 73.5548 323.109 71.2288C318.676 68.9845 308.746 63.8263 308.646 63.7745C308.28 63.5843 307.835 63.643 307.53 63.9212C307.43 64.0131 305.077 66.2004 305.011 69.181C304.98 70.5794 305.447 71.8983 306.4 73.1134C305.653 73.8432 304.661 75.0974 304.51 76.7123C304.366 78.2579 305.001 79.749 306.398 81.1453C306.597 81.3439 306.873 81.4477 307.152 81.4307C307.433 81.4132 307.693 81.2767 307.866 81.0551C307.897 81.0152 310.882 77.2031 312.832 75.521C313.771 75.4942 317.159 75.6065 321.918 78.1001C327.972 81.272 333.337 82.4536 333.563 82.5025C333.632 82.5174 333.702 82.525 333.77 82.525ZM308.405 65.8597C310.715 67.0583 318.45 71.0689 322.222 72.9785C324.8 74.2834 328.177 77.3405 330.47 79.5802C328.425 78.9052 325.69 77.8611 322.83 76.3627C316.625 73.1117 312.505 73.5668 312.332 73.588C312.15 73.6101 311.978 73.6829 311.835 73.7981C310.313 75.0247 308.188 77.537 307.07 78.909C306.608 78.2337 306.405 77.5621 306.464 76.9041C306.613 75.2442 308.337 74.0312 308.354 74.0193C308.593 73.8538 308.748 73.5897 308.774 73.3001C308.8 73.0104 308.698 72.7234 308.492 72.5175C307.462 71.4883 306.951 70.3842 306.973 69.2363C307.001 67.7813 307.856 66.5211 308.405 65.8597Z" fill="#371A45"/>
<g opacity="0.25">
<path d="M307.043 72.3337C308.714 73.1873 310.498 73.9524 312.373 74.6239C312.375 74.6265 312.378 74.6265 312.38 74.6265C314.347 75.3376 316.416 75.9458 318.558 76.4485C319.464 76.662 320.384 76.8555 321.313 77.0299C321.652 77.0937 321.993 77.155 322.336 77.2115C324.935 77.6577 327.616 77.952 330.335 78.0868C331.473 78.1434 332.619 78.1727 333.77 78.1727C334.92 78.1727 336.066 78.1434 337.205 78.0868C339.923 77.952 342.605 77.6577 345.203 77.2115C345.473 77.1673 345.743 77.1209 346.011 77.0695C347.034 76.8832 348.042 76.6722 349.036 76.4366C351.158 75.9364 353.209 75.3308 355.162 74.6269C355.165 74.6269 355.168 74.6244 355.168 74.6244C357.042 73.9524 358.826 73.1873 360.497 72.3341C363.409 68.3613 359.346 64.6437 359.346 64.6437C359.346 64.6437 353.342 67.7629 348.553 70.2229C348.396 70.1493 348.239 70.0783 348.082 70.0072H343.999L344.352 71.2483L322.252 70.9391C322.252 70.9391 322.009 71.1254 321.607 71.5668C316.781 69.1047 308.193 64.6441 308.193 64.6441C308.193 64.6441 304.131 68.3609 307.043 72.3337Z" fill="#561B42"/>
</g>
<path d="M299.468 45.8018C299.853 45.8511 300.204 45.5793 300.254 45.1953L302.82 25.1607C302.869 24.7767 302.597 24.4254 302.213 24.376C298.181 23.8601 294.494 26.7088 293.978 30.7386L293.103 37.5703C292.586 41.6006 295.437 45.2859 299.468 45.8018Z" fill="white"/>
<path d="M299.56 45.9694C299.749 45.9694 299.933 45.9073 300.086 45.7891C300.268 45.6479 300.385 45.4446 300.414 45.2158L302.981 25.1813C303.041 24.7092 302.706 24.2762 302.234 24.2154C298.121 23.6884 294.344 26.606 293.817 30.7179L292.943 37.5496C292.416 41.6615 295.334 45.4353 299.448 45.9618C299.486 45.9673 299.523 45.9694 299.56 45.9694ZM301.273 24.4782C301.577 24.4782 301.883 24.4974 302.192 24.5369C302.487 24.5748 302.697 24.8453 302.659 25.1404L300.093 45.175C300.074 45.3179 300.002 45.445 299.888 45.5331C299.774 45.6211 299.631 45.659 299.489 45.6415C295.552 45.1375 292.759 41.5263 293.263 37.5917L294.138 30.76C294.603 27.1334 297.708 24.4782 301.273 24.4782Z" fill="#371A45"/>
<g opacity="0.35">
<path d="M293.513 34.3673L293.102 37.5716C292.586 41.6001 295.436 45.2862 299.469 45.8034C299.853 45.8532 300.205 45.5793 300.254 45.1956L300.938 39.8699C300.799 40.0988 300.534 40.2353 300.252 40.2017L299.776 40.1396C296.591 39.7321 294.141 37.3436 293.513 34.3673Z" fill="#371A45"/>
</g>
<path d="M299.561 46.709C299.914 46.709 300.255 46.5933 300.538 46.3743C300.877 46.1127 301.093 45.7346 301.148 45.3102L303.714 25.2756C303.827 24.3991 303.205 23.5953 302.328 23.483C297.809 22.9041 293.662 26.1088 293.084 30.6252L292.209 37.4569C291.63 41.9732 294.836 46.1179 299.355 46.6963C299.423 46.7048 299.492 46.709 299.561 46.709ZM301.9 25.2476L299.385 44.8794C295.957 44.3337 293.553 41.149 293.997 37.6848L294.872 30.8531C295.091 29.143 295.963 27.6199 297.328 26.5656C298.64 25.5525 300.256 25.0877 301.9 25.2476Z" fill="#371A45"/>
<path d="M368.377 32.8421C367.993 32.7928 367.641 33.0646 367.592 33.4486L365.026 53.4832C364.976 53.8672 365.248 54.2185 365.632 54.2679C369.664 54.7838 373.351 51.9351 373.868 47.9053L374.743 41.0736C375.259 37.0433 372.409 33.3585 368.377 32.8421Z" fill="white"/>
<path d="M366.572 54.4899C370.298 54.4899 373.543 51.7152 374.028 47.9257L374.904 41.094C375.159 39.1019 374.622 37.1301 373.394 35.5412C372.165 33.9522 370.39 32.937 368.398 32.6818C367.925 32.6227 367.492 32.9566 367.431 33.4282L364.865 53.4628C364.805 53.9349 365.14 54.3678 365.612 54.4287C365.934 54.4699 366.255 54.4899 366.572 54.4899ZM368.356 33.0029C370.263 33.2471 371.961 34.2189 373.137 35.7394C374.313 37.2594 374.826 39.1465 374.582 41.0527L373.707 47.8845C373.242 51.5106 370.137 54.1658 366.572 54.1658C366.268 54.1658 365.962 54.1467 365.653 54.1071C365.358 54.0693 365.148 53.7984 365.186 53.5036L367.752 33.4695C367.79 33.1743 368.061 32.9642 368.356 33.0029Z" fill="#371A45"/>
<g opacity="0.35">
<path d="M365.736 47.9255L365.024 53.4834C364.974 53.8674 365.248 54.2187 365.632 54.2685C367.749 54.5386 369.772 53.8827 371.29 52.614C372.661 51.4683 373.621 49.8202 373.866 47.9067L374.235 45.0278C372.767 47.407 369.992 48.8403 367.035 48.4626L366.304 48.369C366.037 48.3342 365.829 48.1577 365.736 47.9255Z" fill="#371A45"/>
</g>
<path d="M366.573 55.2296C370.665 55.2296 374.229 52.1818 374.762 48.0198L375.637 41.1881C376.216 36.6717 373.01 32.5271 368.491 31.9487C367.614 31.836 366.81 32.4582 366.697 33.3343L364.131 53.3689C364.019 54.2454 364.641 55.0493 365.517 55.1615C365.872 55.2075 366.225 55.2296 366.573 55.2296ZM368.46 33.7647C370.091 34.0238 371.538 34.8799 372.552 36.1915C373.607 37.5555 374.068 39.2487 373.848 40.9592L372.974 47.791C372.53 51.2551 369.399 53.73 365.946 53.3965L368.46 33.7647Z" fill="#371A45"/>
<path d="M333.918 73.7411C314.899 73.7411 299.481 58.3311 299.481 39.3218C299.481 20.3126 314.899 4.90253 333.918 4.90253C352.938 4.90253 368.356 20.3126 368.356 39.3218C368.356 58.3311 352.938 73.7411 333.918 73.7411Z" fill="white"/>
<path d="M333.963 73.904C342.469 73.904 350.572 70.8213 356.967 65.1124C363.86 58.9591 367.943 50.4912 368.463 41.2693C369.537 22.2312 354.915 5.86919 335.867 4.79529C326.641 4.27556 317.762 7.37733 310.87 13.5307C303.977 19.684 299.895 28.1519 299.374 37.3739C298.3 56.4115 312.922 72.7735 331.97 73.8474C332.636 73.8852 333.301 73.904 333.963 73.904ZM333.875 5.06281C334.531 5.06281 335.188 5.08109 335.849 5.11852C354.718 6.18264 369.203 22.3911 368.139 41.2505C367.624 50.3866 363.579 58.7749 356.752 64.8704C350.417 70.5257 342.388 73.5795 333.963 73.5799C333.307 73.5799 332.649 73.5616 331.989 73.5242C313.119 72.4605 298.634 56.2516 299.698 37.3921C300.214 28.2561 304.258 19.8678 311.086 13.7723C317.42 8.11737 325.449 5.06281 333.875 5.06281Z" fill="#371A45"/>
<g opacity="0.35">
<path d="M300.134 32.6449C299.827 34.1862 299.627 35.7679 299.535 37.3837C298.467 56.3622 312.991 72.6153 331.979 73.6875C350.968 74.7555 367.229 60.2384 368.302 41.2604C368.333 40.7147 368.351 40.1677 368.356 39.6285C365.094 56.2261 350.006 68.2959 332.632 67.3168C314.19 66.2757 299.961 50.9157 300.134 32.6449Z" fill="#371A45"/>
</g>
<path d="M333.964 74.6432C342.652 74.6432 350.929 71.4946 357.46 65.6637C364.5 59.3789 368.67 50.7298 369.201 41.3106C370.299 21.8659 355.364 5.15429 335.909 4.05742C326.485 3.52621 317.417 6.69475 310.377 12.9795C303.337 19.2643 299.168 27.9129 298.636 37.3326C298.105 46.7519 301.275 55.8148 307.563 62.8507C313.851 69.887 322.505 74.0546 331.929 74.5858C332.609 74.6241 333.288 74.6432 333.964 74.6432ZM333.876 5.80246C334.518 5.80246 335.161 5.82032 335.807 5.8569C354.269 6.89763 368.442 22.7565 367.401 41.2093C366.897 50.148 362.94 58.3556 356.259 64.3197C350.061 69.853 342.206 72.8407 333.962 72.8412C333.319 72.8412 332.676 72.8233 332.03 72.7867C323.087 72.2823 314.875 68.3278 308.908 61.6505C302.94 54.9731 299.932 46.373 300.436 37.4343C300.94 28.4956 304.897 20.288 311.578 14.3239C317.777 8.79067 325.631 5.80246 333.876 5.80246Z" fill="#371A45"/>
<path d="M299.596 38.2722C299.115 44.9904 300.85 51.3836 304.212 56.811C306.733 60.8799 317.748 68.4737 331.94 69.617C345.099 70.6773 357.582 64.5175 360.657 60.8488C364.758 55.9552 367.386 49.8742 367.867 43.156C369.14 25.3777 354.386 16.9145 335.533 15.5659C316.679 14.2172 300.869 20.4939 299.596 38.2722Z" fill="#371A45"/>
<path d="M335.036 70.6414C347.416 70.6418 358.37 64.981 361.348 61.4275C365.723 56.2082 368.288 49.9123 368.767 43.2205C369.392 34.4971 366.374 27.5207 359.796 22.4847C354.06 18.0925 345.692 15.3893 335.598 14.6671C325.502 13.9449 316.836 15.4297 310.531 18.9606C303.303 23.0091 299.322 29.4848 298.697 38.2079C298.218 44.8997 299.86 51.4966 303.446 57.2855C304.946 59.7067 308.714 62.7043 313.28 65.1086C317.279 67.2143 323.75 69.8614 331.868 70.5155C332.931 70.6006 333.989 70.6414 335.036 70.6414ZM330.906 16.3011C332.607 16.3011 334.153 16.3704 335.468 16.4649C345.462 17.1794 368.536 21.2053 366.968 43.0917C366.517 49.4028 364.095 55.3431 359.966 60.2703C357.262 63.4962 346.688 68.8368 334.992 68.8377C334.005 68.8377 333.012 68.7998 332.013 68.719C317.787 67.5728 307.227 59.9649 304.979 56.337C301.594 50.8723 300.043 44.6483 300.495 38.3367C301.857 19.3314 319.691 16.3011 330.906 16.3011Z" fill="#371A45"/>
<g opacity="0.5">
<path d="M306.472 37.125C306.11 33.7804 307.782 30.8564 310.207 30.5941C312.632 30.3318 314.891 32.8305 315.254 36.1751C315.616 39.5197 313.944 42.4437 311.519 42.7059C309.094 42.9682 306.835 40.4695 306.472 37.125Z" fill="white"/>
</g>
<g opacity="0.5">
<path d="M313.072 49.6552C312.695 48.1577 313.432 46.6817 314.717 46.3586C316.003 46.0354 317.351 46.9874 317.727 48.4849C318.104 49.9825 317.367 51.4585 316.082 51.7816C314.796 52.1048 313.448 51.1528 313.072 49.6552Z" fill="white"/>
</g>
<g opacity="0.35">
<path d="M307.423 22.1619C302.966 25.8433 300.109 31.1312 299.597 38.2712C299.116 44.9907 300.852 51.3835 304.212 56.8108C306.733 60.8797 317.75 68.4732 331.942 69.6181C336.953 70.0234 341.864 69.3795 346.197 68.2235C328.782 66.4445 315.368 57.1324 312.243 52.0857C307.975 45.1974 305.773 37.0821 306.385 28.5572C306.546 26.2788 306.901 24.1493 307.423 22.1619Z" fill="#111A28"/>
</g>
<path d="M366.382 28.7133C366.57 28.7133 366.76 28.6546 366.922 28.5329C367.302 28.2484 367.393 27.7227 367.143 27.3293C361.745 18.0478 350.412 12.1361 336.045 11.1081C321.779 10.0874 309.734 14.1584 302.99 22.2762C302.708 22.5774 302.662 23.0435 302.903 23.3986C303.183 23.8103 303.744 23.9167 304.156 23.6372C304.167 23.6296 304.184 23.6177 304.195 23.6096C304.252 23.5671 304.303 23.5177 304.349 23.4629C310.71 15.7737 322.216 11.9264 335.916 12.9054C349.692 13.8913 360.51 19.4875 365.598 28.259C365.611 28.2829 365.626 28.3058 365.642 28.3279C365.647 28.3348 365.655 28.3462 365.66 28.3526C365.837 28.5887 366.108 28.7133 366.382 28.7133Z" fill="#371A45"/>
<g opacity="0.5">
<path d="M359.444 53.1835C359.444 53.1835 366.209 36.0394 357.253 28.374C348.296 20.7087 334.689 19.7637 334.944 20.6585C334.944 20.6585 349.746 25.3807 354.787 37.704C358.674 47.2067 359.444 53.1835 359.444 53.1835Z" fill="white"/>
</g>
<path d="M320.331 105.922C319.659 106.343 318.964 106.722 318.249 107.055C317.245 107.525 316.202 107.908 315.135 108.2C310.504 109.466 305.398 109.024 300.839 106.568C296.269 104.106 293.088 100.074 291.604 95.4999C291.279 94.4953 291.035 93.4643 290.876 92.4189C290.751 91.5994 290.68 90.7709 290.661 89.9381C294.492 92.9884 299.354 96.1833 304.844 99.1405C310.332 102.097 315.675 104.4 320.331 105.922Z" fill="#FFB200"/>
<path d="M291.359 95.7159L291.603 95.5007L291.741 95.2042L291.803 95.2332L291.849 95.2842C293.587 97.2512 297.9 100.241 302.837 102.9C307.8 105.574 312.531 107.481 315.182 107.877L315.086 108.522C312.365 108.116 307.552 106.181 302.527 103.474C297.451 100.74 293.172 97.7671 291.359 95.7159Z" fill="#D66B09"/>
<path d="M304.843 99.1405C310.332 102.097 315.675 104.4 320.331 105.922C319.659 106.343 318.964 106.722 318.248 107.055C314.572 105.955 309.35 103.702 303.769 100.696C298.424 97.8165 293.836 94.8313 290.876 92.4189C290.751 91.5994 290.679 90.7709 290.66 89.9381C294.492 92.9888 299.354 96.1833 304.843 99.1405Z" fill="#D66B09"/>
<g opacity="0.35">
<path d="M321.057 104.469C320.385 104.89 319.69 105.269 318.974 105.603C317.971 106.073 316.928 106.455 315.86 106.747C311.23 108.014 306.124 107.571 301.564 105.115C296.995 102.654 293.814 98.6212 292.33 94.0475C292.004 93.0429 291.761 92.0119 291.602 90.9665C291.477 90.147 291.406 89.3185 291.386 88.4857C295.218 91.536 300.08 94.7309 305.569 97.6881C311.058 100.645 316.401 102.948 321.057 104.469Z" fill="#371A45"/>
</g>
<g opacity="0.35">
<path d="M328.094 99.539C327.922 99.4977 327.747 99.4527 327.565 99.4033C327.76 99.4229 327.958 99.4395 328.155 99.451C328.135 99.4799 328.116 99.5092 328.094 99.539Z" fill="#371A45"/>
</g>
<path d="M327.075 98.7126C326.688 99.431 326.262 100.115 325.8 100.763C321.864 99.8044 315.254 97.0216 308.072 93.1526C300.89 89.284 294.93 85.295 291.965 82.536C292.253 81.7943 292.59 81.0624 292.977 80.344C292.996 80.3104 293.013 80.2772 293.032 80.2436C293.204 79.9276 293.384 79.6193 293.572 79.3177C294.01 78.6105 294.487 77.941 294.999 77.3099C295.02 77.2843 295.041 77.2584 295.062 77.2333C295.828 76.3002 296.67 75.4525 297.575 74.6942C299.296 73.2516 301.243 72.1339 303.315 71.3696C308.347 69.514 314.122 69.7445 319.215 72.4881C324.266 75.2093 327.621 79.8498 328.861 85.0198C329.371 87.1421 329.523 89.3541 329.292 91.5589C329.168 92.7379 328.933 93.9156 328.585 95.0758C328.557 95.1698 328.529 95.2625 328.499 95.3561C328.253 96.1306 327.956 96.8974 327.606 97.6519C327.476 97.9318 327.339 98.2099 327.194 98.4859C327.156 98.5616 327.116 98.6369 327.075 98.7126Z" fill="#FFB200"/>
<path d="M327.195 98.4864C327.156 98.5621 327.116 98.6374 327.075 98.7126C326.688 99.431 326.262 100.115 325.8 100.763C321.864 99.8044 315.254 97.0216 308.072 93.1526C300.89 89.284 294.93 85.295 291.964 82.5361C292.252 81.7943 292.59 81.0624 292.977 80.344C292.995 80.3104 293.013 80.2773 293.032 80.2437C295.661 82.9988 301.636 87.1302 308.957 91.0741C316.568 95.1741 323.548 97.9475 327.195 98.4864Z" fill="#D66B09"/>
<path d="M297.036 75.0629L298.114 74.3263C299.606 76.5064 305.538 80.6634 312.538 84.4342C320.89 88.9331 327.257 91.097 329.23 90.9095L329.354 92.2088C326.743 92.4572 319.737 89.7947 311.919 85.5833C304.64 81.662 298.659 77.4344 297.036 75.0629Z" fill="#D66B09"/>
<path d="M302.861 71.8375L303.771 70.9022C305.922 72.9939 310.449 76.0123 315.587 78.7802C320.971 81.6804 326.104 83.8256 328.985 84.3794L328.738 85.6608C325.736 85.0837 320.46 82.8874 314.968 79.9285C309.732 77.1079 305.092 74.0074 302.861 71.8375Z" fill="#D66B09"/>
<path d="M294.541 77.6267L295.583 76.8403C297.409 79.2561 303.562 83.533 310.894 87.4832C318.585 91.6262 325.855 94.4804 328.572 94.4238L328.599 95.7287C325.633 95.7903 318.269 92.9387 310.275 88.632C302.675 84.5384 296.5 80.2186 294.541 77.6267Z" fill="#D66B09"/>
<path d="M310.023 109.608C313.746 109.608 317.462 108.58 320.719 106.539C320.959 106.389 321.09 106.113 321.055 105.833C321.021 105.552 320.827 105.316 320.558 105.228C315.776 103.666 310.462 101.338 305.189 98.4983C299.917 95.6581 295.05 92.5006 291.115 89.3673C290.894 89.1908 290.59 89.1585 290.336 89.2844C290.083 89.4099 289.924 89.671 289.931 89.9538C290.09 97.1739 294.137 103.786 300.492 107.209C303.466 108.812 306.747 109.608 310.023 109.608ZM318.56 106.09C313.13 108.879 306.609 108.848 301.184 105.925C295.76 103.004 292.149 97.5762 291.493 91.5096C295.246 94.3626 299.709 97.2032 304.497 99.7823C309.285 102.362 314.111 104.525 318.56 106.09Z" fill="#371A45"/>
<path d="M335.446 106.337C334.1 108.834 328.194 108.492 320.331 105.922C315.675 104.401 310.332 102.098 304.843 99.1408C299.353 96.1837 294.491 92.9892 290.66 89.9384C284.189 84.7863 280.657 80.0441 282.003 77.5479C283.226 75.2811 288.207 75.3551 295 77.3102C294.487 77.9414 294.01 78.6108 293.572 79.3181C291.6 78.849 290.322 78.8524 290.013 79.4253C289.698 80.0088 290.43 81.1078 291.965 82.5364C294.93 85.2958 300.891 89.2847 308.072 93.1529C315.254 97.0219 321.864 99.8047 325.8 100.763C327.837 101.258 329.158 101.266 329.473 100.682C329.781 100.11 329.082 99.0404 327.606 97.6522C327.957 96.8977 328.254 96.1313 328.499 95.3564C333.868 99.9523 336.669 104.07 335.446 106.337Z" fill="#FFC536"/>
<path d="M287.849 80.6701C287.401 79.831 287.272 79.0748 287.602 78.4632C288.265 77.2332 290.421 77.1001 294.191 78.0566L293.932 79.0799C290.389 78.1817 288.82 78.4313 288.532 78.9642C288.049 79.8599 290.197 82.7473 296.053 86.9741C299.329 89.3371 303.31 91.7983 307.567 94.0911C311.823 96.3844 316.069 98.3549 319.844 99.7898C326.596 102.355 330.191 102.561 330.673 101.666C330.961 101.132 330.307 99.6848 327.608 97.2218L328.32 96.4418C331.193 99.0643 332.266 100.936 331.603 102.166C330.411 104.376 324.346 102.63 319.468 100.777C315.65 99.3254 311.362 97.335 307.065 95.0205C302.768 92.7059 298.747 90.2196 295.435 87.8298C292.375 85.6211 289.021 82.863 287.849 80.6701Z" fill="#FFEC90"/>
<path d="M284.806 80.937C284.174 79.7538 283.966 78.6518 284.449 77.7561C285.697 75.4403 290.71 76.2696 294.695 77.3729L294.413 78.3906C288.571 76.7728 285.916 77.2606 285.378 78.2567C284.716 79.4854 286.435 82.8177 293.463 88.1659C297.095 90.9308 301.551 93.7591 306.35 96.3446C311.149 98.9296 315.963 101.095 320.271 102.607C328.604 105.533 332.335 105.137 332.997 103.909C333.534 102.913 332.482 100.428 327.918 96.4394L328.614 95.645C331.727 98.3652 335.176 102.094 333.928 104.41C332.305 107.418 324.456 105.196 319.92 103.604C315.561 102.073 310.695 99.8844 305.849 97.2743C301.002 94.6633 296.498 91.8044 292.822 89.0063C290.138 86.9627 286.296 83.7253 284.806 80.937Z" fill="#FFEC90"/>
<g opacity="0.35">
<path d="M292.445 90.7152C296.198 93.7026 300.938 96.8294 306.291 99.7356C302.641 96.117 300.912 92.9864 301.921 91.1163C302.123 90.7412 302.43 90.4307 302.829 90.1823C298.037 87.3238 294.172 84.5895 291.965 82.5365C290.431 81.1084 289.699 80.0094 290.013 79.4254C290.322 78.8525 291.601 78.8491 293.572 79.3182C293.954 78.7024 294.367 78.1167 294.805 77.5587C289.035 76.142 284.889 76.2849 283.788 78.3247C282.442 80.8204 285.974 85.563 292.445 90.7152Z" fill="#371A45"/>
</g>
<path d="M330.847 108.755C333.536 108.755 335.344 108.064 336.089 106.683C337.948 103.236 332.429 97.76 328.974 94.8024C328.788 94.6433 328.535 94.588 328.3 94.6548C328.064 94.722 327.878 94.9023 327.804 95.1358C327.566 95.8861 327.277 96.6295 326.945 97.3449C326.812 97.6298 326.877 97.9675 327.106 98.1831C328.53 99.5224 328.768 100.143 328.807 100.323C328.632 100.391 327.961 100.538 325.973 100.054C321.976 99.081 315.249 96.1906 308.419 92.5108C301.589 88.8315 295.475 84.8047 292.463 82.0023C290.965 80.6077 290.719 79.9668 290.679 79.7835C290.851 79.7171 291.5 79.5742 293.404 80.0272C293.71 80.0999 294.028 79.9685 294.193 79.7014C294.609 79.0307 295.071 78.3808 295.567 77.7692C295.721 77.5791 295.77 77.3248 295.696 77.0913C295.623 76.8578 295.437 76.6766 295.202 76.609C290.831 75.3505 283.22 73.7547 281.362 77.2014C279.859 79.9868 283.083 84.837 290.207 90.5085C294.208 93.6944 299.15 96.9013 304.498 99.7823C309.846 102.663 315.243 105.025 320.105 106.614C324.469 108.041 328.114 108.755 330.847 108.755ZM334.804 105.991C333.72 108.002 328.128 107.702 320.558 105.228C315.776 103.666 310.462 101.338 305.189 98.4983C299.917 95.6581 295.05 92.5006 291.115 89.3674C284.886 84.4078 281.562 79.9038 282.646 77.8934C283.374 76.5426 286.682 75.8328 293.764 77.7237C293.581 77.9764 293.403 78.2337 293.232 78.4939C291.034 78.0321 289.836 78.2179 289.371 79.0787C288.865 80.0174 289.511 81.2482 291.468 83.0694C294.611 85.9942 300.689 90.0036 307.726 93.7944C314.763 97.5856 321.456 100.455 325.628 101.471C328.225 102.103 329.609 101.966 330.115 101.028C330.58 100.166 330.076 99.0631 328.482 97.4827C328.606 97.1969 328.723 96.9072 328.834 96.6155C334.307 101.488 335.532 104.641 334.804 105.991Z" fill="#371A45"/>
<g opacity="0.35">
<path d="M327.012 101.44C323.076 100.482 316.465 97.699 309.284 93.83C302.103 89.9614 296.142 85.972 293.176 83.213C293.465 82.4717 293.803 81.7393 294.189 81.0206C294.207 80.9865 294.225 80.9542 294.244 80.9202C294.417 80.6042 294.596 80.2958 294.784 79.9947C295.221 79.2879 295.699 78.6184 296.211 77.9864C296.232 77.9609 296.253 77.9354 296.274 77.9107C297.04 76.9776 297.882 76.1295 298.786 75.3712C300.508 73.9294 302.455 72.8117 304.528 72.0462C308.598 70.5457 313.151 70.4091 317.439 71.8641C315.641 72.0011 313.872 72.3885 312.188 73.0099C310.114 73.7742 308.168 74.8915 306.446 76.335C305.541 77.0924 304.7 77.9401 303.934 78.8728C303.913 78.8991 303.892 78.9247 303.871 78.9502C303.844 78.9838 303.811 79.0272 303.773 79.0782C301.714 81.8716 302.764 85.5675 305.099 88.1347C309.55 93.0279 324.308 99.7537 327.557 101.101C327.277 101.577 327.327 100.996 327.012 101.44Z" fill="#371A45"/>
</g>
<g opacity="0.41">
<path d="M325.173 100.578C324.715 100.467 324.222 100.331 323.694 100.171C323.989 99.7181 324.269 99.249 324.529 98.7659C324.57 98.6902 324.609 98.6149 324.649 98.54C324.794 98.2636 324.931 97.9854 325.06 97.7056C325.411 96.9515 325.708 96.1838 325.954 95.4098C325.984 95.3166 326.011 95.2235 326.04 95.1299C326.388 93.9697 326.623 92.7911 326.746 91.6118C326.978 89.407 326.826 87.1954 326.315 85.0739C325.075 79.9035 321.721 75.2625 316.669 72.5414C313.297 70.7249 309.626 70.01 306.068 70.2736C310.204 69.5493 314.605 70.1571 318.589 72.3036C323.64 75.0252 326.994 79.6653 328.234 84.8349C328.744 86.9572 328.897 89.1692 328.665 91.3744C328.542 92.5525 328.308 93.7302 327.959 94.8909C327.931 94.9853 327.902 95.0784 327.872 95.1712C327.627 95.9465 327.33 96.7121 326.98 97.4661C326.849 97.7468 326.712 98.025 326.568 98.3006C326.529 98.3767 326.49 98.452 326.448 98.5273C326.061 99.2456 325.634 99.9299 325.173 100.578Z" fill="white"/>
</g>
<path d="M325.8 101.492C326.033 101.492 326.256 101.381 326.395 101.186C326.875 100.511 327.321 99.7954 327.718 99.0588C327.913 98.6968 328.098 98.3264 328.269 97.9581C328.627 97.1878 328.938 96.3861 329.195 95.5768C332.104 86.4003 328.053 76.4205 319.562 71.8463C311.071 67.2725 300.503 69.377 294.433 76.8505C293.898 77.5101 293.4 78.211 292.952 78.9341C292.738 79.2781 292.531 79.6362 292.336 79.9982C291.938 80.7357 291.585 81.5008 291.285 82.2723C291.177 82.5504 291.25 82.8664 291.468 83.0697C294.611 85.9946 300.689 90.004 307.726 93.7947C314.764 97.5859 321.456 100.455 325.628 101.472C325.685 101.486 325.743 101.492 325.8 101.492ZM310.032 70.9C313.039 70.9 316.075 71.6251 318.869 73.1307C326.744 77.3727 330.501 86.6274 327.804 95.1361C327.566 95.8864 327.277 96.6298 326.944 97.3452C326.786 97.6876 326.614 98.0308 326.433 98.3668C326.143 98.9035 325.827 99.4279 325.488 99.9311C321.446 98.8529 314.98 96.0463 308.418 92.5112C301.856 88.9764 295.955 85.1214 292.832 82.3386C293.066 81.7802 293.33 81.2273 293.62 80.6906C293.801 80.355 293.993 80.0228 294.192 79.703C294.608 79.0314 295.07 78.3812 295.566 77.77C299.197 73.2987 304.566 70.9 310.032 70.9Z" fill="#371A45"/>
<path d="M292.45 96.1838C291.467 96.3505 290.647 97.0025 290.231 97.9088C289.722 99.0193 289.378 100.908 290.632 103.597C291.712 105.912 293.131 107.096 294.28 107.702C295.48 108.334 296.973 108.034 297.85 106.998C299.002 105.637 300.06 103.237 298.037 99.8069C295.983 96.3241 293.816 95.9524 292.45 96.1838Z" fill="white"/>
<g opacity="0.25">
<path d="M295.012 107.966C295.056 107.921 295.101 107.875 295.142 107.826C296.294 106.466 297.352 104.065 295.329 100.635C293.779 98.0066 292.165 97.1504 290.879 96.988C291.304 96.5729 291.846 96.2866 292.45 96.1841C293.816 95.9528 295.983 96.3245 298.037 99.8073C300.061 103.237 299.002 105.638 297.85 106.999C297.145 107.831 296.042 108.187 295.012 107.966Z" fill="#561B42"/>
</g>
<path d="M295.612 108.758C296.661 108.758 297.698 108.308 298.407 107.47C299.507 106.17 301.003 103.399 298.666 99.4366C296.43 95.645 293.986 95.1831 292.328 95.4646C291.12 95.6692 290.088 96.4696 289.568 97.6052C288.995 98.856 288.599 100.964 289.971 103.905C291.172 106.481 292.792 107.742 293.94 108.347C294.466 108.625 295.041 108.758 295.612 108.758ZM293.105 96.8575C294.643 96.8575 296.121 97.9935 297.409 100.177C298.842 102.607 298.803 104.744 297.293 106.528C296.636 107.304 295.512 107.526 294.62 107.057C293.671 106.557 292.323 105.497 291.293 103.289C290.157 100.853 290.45 99.1844 290.895 98.213C291.214 97.5167 291.841 97.0272 292.572 96.903C292.75 96.8724 292.928 96.8575 293.105 96.8575Z" fill="#371A45"/>
</g>
<path fill-rule="evenodd" clip-rule="evenodd" d="M205.424 88.5404C206.262 89.1869 206.775 90.1472 206.863 91.1923L206.875 91.4426V101.543C206.875 104.147 204.812 106.264 202.225 106.401H199.738C198.549 106.377 197.588 105.456 197.5 104.297L197.488 104.122V100.56C197.488 100.173 197.199 99.8504 196.813 99.7869L196.7 99.7745H193.362C192.963 99.7869 192.638 100.073 192.588 100.447L192.575 100.56V104.11C192.575 104.184 192.562 104.271 192.55 104.333L192.538 104.36L192.524 104.445C192.375 105.505 191.5 106.314 190.413 106.39L190.25 106.401H188.013C185.4 106.401 183.263 104.36 183.125 101.792V91.4426C183.137 90.3826 183.6 89.3986 184.375 88.7135L192.163 82.4731C193.75 81.2163 195.975 81.1665 197.612 82.3236L197.813 82.4731L205.424 88.5404ZM205.124 101.743L205.138 101.543V91.4539C205.124 90.9195 204.9 90.42 204.513 90.0476L204.35 89.9093L196.725 83.8308C195.775 83.071 194.425 83.0349 193.425 83.6938L193.237 83.8308L185.637 89.9355C185.2 90.2581 184.938 90.7439 184.875 91.2546L184.862 91.4539V101.543C184.862 103.2 186.162 104.558 187.813 104.657H190.25C190.525 104.657 190.763 104.472 190.799 104.21L190.825 103.986L190.838 103.922V100.56C190.838 99.2276 191.863 98.144 193.175 98.0431H196.7C198.037 98.0431 199.124 99.0657 199.225 100.374V104.122C199.225 104.383 199.413 104.609 199.663 104.657H201.987C203.662 104.657 205.024 103.375 205.124 101.743Z" fill="white"/>
<path fill-rule="evenodd" clip-rule="evenodd" d="M53.9485 81H43.0515C38.8198 81 36 84.0142 36 88.3405V98.5714C36 102.902 38.8124 105.912 43.0515 105.912H53.9485C58.1876 105.912 61 102.902 61 98.5714V88.3405C61 84.0102 58.1876 81 53.9485 81ZM43.0514 82.7378H53.9485C57.1953 82.7378 59.2558 84.9432 59.2558 88.3403V98.5712C59.2558 101.968 57.1953 104.174 53.9485 104.174H43.0514C39.8046 104.174 37.7441 101.968 37.7441 98.5712V88.3403C37.7441 84.9477 39.8115 82.7378 43.0514 82.7378ZM49.4081 87.4508C49.3504 87.0266 48.9855 86.6997 48.544 86.6997C48.0623 86.6997 47.6719 87.0888 47.6719 87.5687V99.3211L47.6798 99.439C47.7376 99.8632 48.1025 100.19 48.544 100.19C49.0256 100.19 49.4161 99.801 49.4161 99.3211V87.5687L49.4081 87.4508ZM43.9823 91.254C43.9246 90.8299 43.5597 90.5029 43.1182 90.5029C42.6365 90.5029 42.2461 90.892 42.2461 91.372V99.3208L42.2541 99.4387C42.3118 99.8629 42.6767 100.19 43.1182 100.19C43.5998 100.19 43.9903 99.8007 43.9903 99.3208V91.372L43.9823 91.254ZM53.8819 94.7036C54.3234 94.7036 54.6882 95.0305 54.746 95.4547L54.754 95.5726V99.321C54.754 99.801 54.3635 100.19 53.8819 100.19C53.4404 100.19 53.0755 99.8631 53.0177 99.439L53.0098 99.321V95.5726C53.0098 95.0927 53.4002 94.7036 53.8819 94.7036Z" fill="white"/>
<defs>
<clipPath id="clip0_5_1561">
<rect width="116" height="123" fill="white" transform="translate(277)"/>
</clipPath>
</defs>
</svg>
