<svg width="393" height="128" viewBox="0 0 393 128" fill="none" xmlns="http://www.w3.org/2000/svg">
<rect y="51" width="393" height="68" fill="#4A327E"/>
<path fill-rule="evenodd" clip-rule="evenodd" d="M206.424 87.5739C207.262 88.2226 207.775 89.1864 207.863 90.2351L207.875 90.4864V100.623C207.875 103.235 205.812 105.36 203.225 105.498H200.738C199.549 105.474 198.588 104.549 198.5 103.386L198.488 103.21V99.6364C198.488 99.2476 198.199 98.9239 197.813 98.8601L197.7 98.8476H194.362C193.963 98.8601 193.638 99.1476 193.588 99.5226L193.575 99.6364V103.199C193.575 103.273 193.562 103.36 193.55 103.423L193.538 103.449L193.524 103.535C193.375 104.599 192.5 105.41 191.413 105.486L191.25 105.498H189.013C186.4 105.498 184.263 103.449 184.125 100.873V90.4864C184.137 89.4226 184.6 88.4351 185.375 87.7476L193.163 81.4851C194.75 80.2239 196.975 80.1739 198.612 81.3351L198.813 81.4851L206.424 87.5739ZM206.124 100.823L206.138 100.623V90.4976C206.124 89.9614 205.9 89.4601 205.513 89.0864L205.35 88.9476L197.725 82.8476C196.775 82.0851 195.425 82.0489 194.425 82.7101L194.237 82.8476L186.637 88.9739C186.2 89.2976 185.938 89.7851 185.875 90.2976L185.862 90.4976V100.623C185.862 102.285 187.162 103.648 188.813 103.748H191.25C191.525 103.748 191.763 103.561 191.799 103.299L191.825 103.074L191.838 103.01V99.6364C191.838 98.2989 192.863 97.2114 194.175 97.1101H197.7C199.037 97.1101 200.124 98.1364 200.225 99.4489V103.21C200.225 103.473 200.413 103.699 200.663 103.748H202.987C204.662 103.748 206.024 102.461 206.124 100.823Z" fill="white"/>
<path fill-rule="evenodd" clip-rule="evenodd" d="M53.9485 79.9998H43.0515C38.8198 79.9998 36 83.014 36 87.3403V97.5712C36 101.902 38.8124 104.912 43.0515 104.912H53.9485C58.1876 104.912 61 101.902 61 97.5712V87.3403C61 83.0099 58.1876 79.9998 53.9485 79.9998ZM43.0514 81.7377H53.9485C57.1953 81.7377 59.2558 83.9431 59.2558 87.3402V97.5711C59.2558 100.968 57.1953 103.174 53.9485 103.174H43.0514C39.8046 103.174 37.7441 100.968 37.7441 97.5711V87.3402C37.7441 83.9476 39.8115 81.7377 43.0514 81.7377ZM49.4083 86.4506C49.3506 86.0265 48.9857 85.6995 48.5442 85.6995C48.0626 85.6995 47.6721 86.0886 47.6721 86.5686V98.3209L47.6801 98.4388C47.7378 98.863 48.1027 99.1899 48.5442 99.1899C49.0259 99.1899 49.4163 98.8008 49.4163 98.3209V86.5686L49.4083 86.4506ZM43.9818 90.254C43.9241 89.8299 43.5592 89.5029 43.1177 89.5029C42.6361 89.5029 42.2456 89.892 42.2456 90.372V98.3208L42.2536 98.4387C42.3113 98.8629 42.6762 99.1898 43.1177 99.1898C43.5993 99.1898 43.9898 98.8007 43.9898 98.3208V90.372L43.9818 90.254ZM53.8819 93.7035C54.3234 93.7035 54.6882 94.0304 54.746 94.4546L54.754 94.5725V98.3209C54.754 98.8009 54.3635 99.1899 53.8819 99.1899C53.4404 99.1899 53.0755 98.863 53.0177 98.4388L53.0098 98.3209V94.5725C53.0098 94.0926 53.4002 93.7035 53.8819 93.7035Z" fill="white"/>
<path d="M324.732 48.3007C321.491 55.0572 318.266 63.9671 316.564 65.3566C313.19 68.112 309.342 69.0799 305.813 69.008C305.813 69.008 303.243 64.151 301.426 65.0188C300.596 65.4149 299.701 66.6961 301.21 69.4788C301.271 69.5935 301.37 69.6909 301.459 69.7993C301.459 69.7993 298.691 69.6527 296.222 67.2979C293.485 64.6883 292.854 66.7088 292.646 67.9381C292.438 69.1664 292.009 75.9557 296.658 78.9095C301.329 81.878 312.259 83.4606 320.635 75.0105L326.774 66.1543L324.732 48.3007Z" fill="white"/>
<path d="M368.156 85.9335C364.177 90.9544 354.059 89.0249 354.059 89.0249L354.42 62.8296L354.534 54.6636L354.544 53.9142L354.63 47.7224C354.63 47.7224 358.411 47.8844 362.169 48.9471C362.794 49.1228 363.421 49.325 364.028 49.5562C364.283 49.6519 364.535 49.7538 364.783 49.8604C366.887 50.7718 368.662 52.0649 369.305 53.8915C371.54 60.2436 371.426 81.8059 368.156 85.9335Z" fill="white"/>
<g opacity="0.35">
<path d="M370.82 68.2574C370.833 75.7942 369.993 83.616 368.156 85.9334C364.176 90.9543 354.058 89.0257 354.058 89.0257L354.489 79.9446C354.489 79.9446 364.607 81.8741 368.587 76.8523C369.665 75.491 370.4 72.2366 370.82 68.2574Z" fill="#371A45"/>
</g>
<path d="M358.447 90.1495C355.931 90.1495 354.009 89.7899 353.917 89.7717C353.506 89.6933 353.236 89.2954 353.314 88.8839C353.392 88.4723 353.79 88.2018 354.201 88.2801C354.243 88.2883 356.092 88.6271 358.467 88.6271C361.544 88.6271 365.504 88.058 367.562 85.4619C368.037 84.8609 368.722 83.4186 369.28 79.9584C369.692 77.3997 369.954 74.2082 370.036 70.7289C370.201 63.7366 369.619 57.0722 368.589 54.1438C367.683 51.5641 363.998 50.1618 361.067 49.4397C357.756 48.6239 354.63 48.48 354.598 48.4782C354.179 48.46 353.854 48.1058 353.873 47.6869C353.891 47.268 354.244 46.943 354.663 46.9612C354.796 46.9666 357.952 47.1114 361.407 47.9592C363.462 48.4636 365.194 49.1156 366.555 49.8959C368.341 50.9203 369.506 52.1797 370.019 53.6393C370.722 55.6362 371.094 58.7075 371.282 60.933C371.535 63.9151 371.631 67.4062 371.551 70.7644C371.463 74.515 371.014 83.5479 368.749 86.4044C367.75 87.6646 366.328 88.6216 364.522 89.2508C363.12 89.7398 361.48 90.0321 359.65 90.1195C359.239 90.1404 358.835 90.1495 358.447 90.1495Z" fill="#371A45"/>
<path d="M370.024 71.4137L363.101 71.8198C362.483 71.8562 361.966 72.3042 361.846 72.9116C361.406 75.1379 360.655 80.3327 362.798 82.0874C364.575 83.5434 367.503 83.4241 369.239 82.0009C371.182 80.4083 371.453 75.3064 371.464 72.7777C371.467 71.9919 370.807 71.3672 370.024 71.4137Z" fill="white"/>
<g opacity="0.35">
<path d="M361.846 72.9125C361.405 75.1379 360.655 80.3327 362.798 82.0874C364.575 83.5443 367.502 83.425 369.24 82.0009C370.435 81.0211 370.997 78.7137 371.255 76.4947C370.926 77.6001 370.422 78.4934 369.803 79.0752C366.263 82.4079 363.727 78.3686 363.727 78.3686C363.727 78.3686 363.259 79.332 362.899 79.3803C361.39 79.5851 361.779 74.8757 362.036 72.4426C361.946 72.581 361.88 72.7395 361.846 72.9125Z" fill="#371A45"/>
</g>
<path d="M365.921 83.8856C364.606 83.8856 363.304 83.4832 362.317 82.6746C361.208 81.7658 360.629 80.0876 360.595 77.6865C360.57 75.8653 360.857 74.0041 361.102 72.7639C361.289 71.8178 362.093 71.1176 363.056 71.0612L369.98 70.655C370.562 70.6204 371.139 70.8317 371.562 71.2323C371.985 71.633 372.226 72.1975 372.223 72.7803C372.217 74.0888 372.144 76.0338 371.823 77.8704C371.414 80.2206 370.726 81.7631 369.719 82.5881C368.665 83.4522 367.286 83.8856 365.921 83.8856ZM370.069 72.1711L363.145 72.5773C362.871 72.5936 362.643 72.7912 362.59 73.0589C362.359 74.2281 362.088 75.9764 362.112 77.6655C362.138 79.5704 362.541 80.8962 363.278 81.4999C364.735 82.6937 367.245 82.6536 368.759 81.4134C369.96 80.43 370.687 77.2002 370.705 72.7748C370.706 72.6064 370.64 72.4507 370.518 72.335C370.396 72.2194 370.236 72.1611 370.069 72.1711Z" fill="#371A45"/>
<path d="M364.052 74.3083C364.105 74.7245 364.129 75.1452 364.158 75.5631C364.185 75.982 364.212 76.399 364.249 76.8133C364.325 77.641 364.442 78.4624 364.668 79.2309C364.781 79.6142 364.922 79.9839 365.098 80.3245C365.274 80.6641 365.487 80.9737 365.734 81.2351C365.981 81.4964 366.263 81.7095 366.571 81.8706C366.878 82.0318 367.214 82.1402 367.562 82.2103C367.975 82.2931 368.241 82.6947 368.158 83.1072C368.076 83.5197 367.674 83.7865 367.262 83.7036C367.225 83.6963 367.19 83.6863 367.155 83.6736L367.14 83.6681C366.688 83.5024 366.247 83.2793 365.852 82.9861C365.458 82.6938 365.114 82.3359 364.843 81.9417C364.571 81.5474 364.37 81.1212 364.225 80.6896C364.079 80.258 363.987 79.8209 363.927 79.3866C363.81 78.517 363.822 77.6611 363.872 76.8179C363.897 76.3963 363.933 75.9774 363.969 75.5595C364.003 75.1433 364.042 74.7272 364.052 74.3083Z" fill="#371A45"/>
<path d="M365.784 53.7467C365.683 53.6547 365.565 53.591 365.446 53.5364C365.326 53.4817 365.201 53.4389 365.076 53.4007C364.824 53.326 364.565 53.2714 364.305 53.2277C363.785 53.1421 363.26 53.0975 362.735 53.0747C362.21 53.0529 361.685 53.0556 361.163 53.0811C360.641 53.1066 360.123 53.1576 359.611 53.2386C359.356 53.2796 359.102 53.3269 358.852 53.3825C358.601 53.438 358.353 53.5027 358.109 53.5755C357.866 53.6493 357.626 53.7294 357.392 53.8214C357.158 53.9143 356.93 54.0144 356.709 54.1273C356.489 54.2393 356.276 54.3604 356.074 54.4961L355.924 54.5999L355.78 54.7083C355.684 54.782 355.591 54.8567 355.502 54.9359C355.324 55.0944 355.159 55.2655 355.009 55.4467C354.86 55.6289 354.725 55.8219 354.605 56.025L354.602 56.0313C354.444 56.2981 354.101 56.3865 353.834 56.2289C353.578 56.0778 353.487 55.7527 353.62 55.4914C353.758 55.2209 353.923 54.9641 354.111 54.7265C354.296 54.487 354.505 54.2676 354.729 54.0681C354.84 53.9671 354.957 53.8733 355.074 53.7813L355.254 53.6502L355.438 53.5263C355.686 53.3661 355.943 53.2231 356.205 53.0975C356.73 52.8471 357.276 52.6613 357.827 52.5275C358.379 52.3909 358.936 52.3053 359.494 52.2561C360.608 52.1614 361.725 52.2033 362.814 52.4027C363.358 52.5029 363.897 52.6422 364.415 52.8407C364.674 52.9418 364.928 53.0556 365.169 53.1985C365.289 53.2687 365.404 53.3497 365.512 53.438C365.54 53.4599 365.566 53.4836 365.591 53.5072C365.616 53.53 365.64 53.5564 365.663 53.5819C365.709 53.6311 365.75 53.6884 365.784 53.7467Z" fill="#371A45"/>
<g opacity="0.35">
<path d="M364.029 49.5572C361.42 51.4175 358.187 52.9127 354.544 53.9143L354.63 47.7224C354.63 47.7224 358.411 47.8845 362.169 48.9471C362.795 49.1238 363.422 49.325 364.029 49.5572Z" fill="#371A45"/>
</g>
<g opacity="0.35">
<path d="M326.775 66.1552L320.636 75.0114C312.26 83.4615 301.329 81.8789 296.658 78.9105C294.981 77.8451 293.965 76.278 293.362 74.6554C293.837 75.2154 292.966 69.6582 293.639 70.0861C293.889 70.2446 294.043 72.5629 296.048 74.893C297.022 76.0258 298.527 76.9336 300.358 77.5109C300.899 77.6812 300.474 78.2257 301.073 78.2922C312.005 79.5096 315.046 75.2345 316.84 71.045L323.717 50.4834C324.054 49.7403 324.394 49.0082 324.733 48.3007L326.775 66.1552Z" fill="#371A45"/>
</g>
<path d="M305.874 82.0482C304.225 82.0482 302.599 81.8579 301.02 81.48C299.2 81.0447 297.551 80.3773 296.251 79.5514C295.076 78.8038 294.11 77.7776 293.381 76.4982C292.791 75.4629 292.356 74.2619 292.086 72.927C291.632 70.6751 291.764 68.5954 291.897 67.8105C291.984 67.3033 292.246 65.7608 293.458 65.3574C294.37 65.0542 295.445 65.5095 296.744 66.7488C297.884 67.8351 299.1 68.4097 300.018 68.7129C299.602 67.6211 299.524 66.6641 299.786 65.8582C300.009 65.1735 300.475 64.6317 301.099 64.3339C301.562 64.1127 302.319 63.9879 303.299 64.6463C303.804 64.9859 304.342 65.5149 304.896 66.2188C305.496 66.9828 305.988 67.7859 306.258 68.2521C308.909 68.2385 312.632 67.5874 316.084 64.7683C316.359 64.5425 316.908 63.8213 317.95 61.6614C318.758 59.9896 319.679 57.8489 320.654 55.5824C321.753 53.0274 322.889 50.3858 324.048 47.971C324.194 47.6659 324.525 47.4948 324.858 47.5512C325.191 47.6077 325.447 47.8772 325.485 48.2132L327.528 66.0677C327.549 66.2507 327.503 66.4355 327.398 66.5867L321.259 75.4429C321.233 75.4793 321.205 75.513 321.174 75.5449C316.32 80.441 310.955 81.7568 307.308 81.999C306.829 82.0318 306.35 82.0482 305.874 82.0482ZM294.02 66.7888C293.974 66.7888 293.948 66.7961 293.938 66.7989C293.879 66.818 293.58 66.97 293.394 68.0655C293.3 68.6191 293.149 70.5185 293.574 72.6265C294.1 75.2326 295.274 77.1311 297.064 78.2693C299.054 79.5341 302.763 80.7797 307.207 80.4847C310.581 80.2607 315.543 79.0433 320.051 74.5232L325.989 65.9575L324.284 51.066C323.527 52.7451 322.779 54.4843 322.048 56.1843C319.714 61.6077 318.224 64.9814 317.043 65.9456C313.043 69.2128 308.72 69.8283 305.797 69.7673C305.521 69.7618 305.271 69.607 305.142 69.3639C305.136 69.3521 304.514 68.1838 303.694 67.1449C302.757 65.9566 302.044 65.565 301.753 65.7043C301.611 65.7717 301.354 65.9429 301.23 66.3272C301.02 66.97 301.25 67.9598 301.875 69.1144C301.887 69.1336 301.927 69.18 301.956 69.2137C301.986 69.2483 302.016 69.2829 302.046 69.3193C302.236 69.5524 302.27 69.8748 302.135 70.1434C301.999 70.4111 301.718 70.5732 301.418 70.5577C301.293 70.5513 298.34 70.3674 295.698 67.8478C294.708 66.9045 294.206 66.7888 294.02 66.7888Z" fill="#371A45"/>
<path d="M292.512 74.5568C292.337 73.9876 292.255 73.3994 292.237 72.8094C292.225 72.2193 292.28 71.6256 292.423 71.0347C292.459 70.8872 292.5 70.7387 292.55 70.5921C292.575 70.5184 292.599 70.4446 292.628 70.3718C292.656 70.298 292.684 70.2252 292.718 70.1514C292.849 69.8591 293.009 69.5668 293.236 69.29L293.326 69.1871L293.372 69.1361L293.422 69.086C293.456 69.0533 293.489 69.0205 293.524 68.9877L293.637 68.8948C293.656 68.8793 293.674 68.8639 293.694 68.8493L293.757 68.8065C293.799 68.7783 293.839 68.75 293.884 68.7246C293.929 68.6991 293.976 68.6745 294.021 68.6508L294.056 68.6335L294.093 68.618L294.168 68.588C294.265 68.5452 294.373 68.5206 294.476 68.4933C294.584 68.476 294.691 68.4568 294.797 68.4568L294.877 68.4559H294.917L294.951 68.4578C294.997 68.4614 295.04 68.4623 295.087 68.4687C295.178 68.4787 295.271 68.4933 295.366 68.5151C295.555 68.5588 295.752 68.6308 295.931 68.7382C296.109 68.8447 296.268 68.9832 296.391 69.1288C296.516 69.2745 296.611 69.4257 296.687 69.5714C296.763 69.7171 296.822 69.86 296.875 69.9966C296.979 70.2707 297.056 70.5266 297.136 70.7715C297.217 71.0146 297.299 71.2468 297.398 71.4645C297.594 71.9015 297.868 72.2821 298.248 72.5872C298.341 72.6637 298.443 72.7338 298.548 72.7994C298.653 72.8658 298.764 72.9268 298.877 72.9842C299.106 73.0962 299.348 73.1918 299.598 73.2738H299.599C299.656 73.2929 299.687 73.3548 299.669 73.4122C299.653 73.4595 299.608 73.4896 299.56 73.4877C299.287 73.4768 299.013 73.4431 298.738 73.3803C298.464 73.3184 298.191 73.2246 297.93 73.0935C297.8 73.0279 297.671 72.9551 297.549 72.8713C297.427 72.7866 297.309 72.6937 297.198 72.5936C296.975 72.3932 296.78 72.161 296.615 71.9188C296.28 71.4344 296.055 70.9045 295.821 70.482C295.703 70.2734 295.581 70.0959 295.465 70.0012C295.408 69.9511 295.353 69.9247 295.299 69.9028C295.245 69.8828 295.186 69.871 295.114 69.8655C295.078 69.8628 295.039 69.8628 294.998 69.8637C294.978 69.8637 294.956 69.8664 294.935 69.8673L294.918 69.8682L294.908 69.871C294.902 69.8728 294.896 69.8746 294.889 69.8755C294.863 69.8773 294.84 69.891 294.816 69.8955C294.795 69.9101 294.771 69.9138 294.749 69.932C294.66 69.9821 294.559 70.0895 294.462 70.2325C294.366 70.38 294.278 70.563 294.207 70.7624C294.188 70.8116 294.172 70.8635 294.155 70.9154C294.137 70.9664 294.124 71.0201 294.109 71.0738C294.092 71.1266 294.081 71.1822 294.068 71.2368C294.053 71.2905 294.043 71.347 294.03 71.4025C293.939 71.8496 293.898 72.3231 293.892 72.7966C293.888 73.271 293.925 73.7454 293.989 74.2135L293.991 74.2326C294.048 74.6487 293.757 75.033 293.341 75.0894C292.967 75.1377 292.62 74.9073 292.512 74.5568Z" fill="#371A45"/>
<path d="M336.417 124.526C334.442 125.722 331.1 126.756 326.369 126.752C319.754 126.749 314.355 126.445 314.412 121.68C314.455 117.898 320.97 116.193 320.97 116.193C318.068 105.577 317.393 96.3858 317.62 88.0514C317.698 85.2532 317.876 82.5515 318.105 79.9227L340.207 84.0239C338.764 89.9754 338.231 95.7575 338.077 101.01C337.714 113.314 339.431 122.703 336.417 124.526Z" fill="white"/>
<g opacity="0.35">
<path d="M340.208 84.0248C340.113 84.4182 340.021 84.8107 339.935 85.2022C339.896 85.3661 339.861 85.53 339.826 85.6939C339.778 85.9116 339.733 86.1292 339.689 86.3477C339.629 86.6355 339.572 86.9214 339.517 87.2055C339.499 87.2974 339.482 87.3894 339.465 87.4814C339.43 87.6735 339.393 87.8629 339.36 88.0532C339.311 88.3191 339.264 88.585 339.22 88.8509C339.189 89.023 339.161 89.1951 339.134 89.3663C339.016 90.1002 338.908 90.8295 338.813 91.5544C338.753 92.0024 338.699 92.4476 338.647 92.8911C338.619 93.1287 338.594 93.3646 338.567 93.6004C338.545 93.8044 338.524 94.0084 338.505 94.2123C338.472 94.5465 338.44 94.8779 338.412 95.2094C338.392 95.4352 338.372 95.661 338.354 95.885C338.327 96.2028 338.305 96.5206 338.282 96.8366C338.268 97.0387 338.253 97.2381 338.243 97.4385C338.23 97.6279 338.22 97.8163 338.207 98.0039C338.187 98.3317 338.172 98.6595 338.155 98.9828C338.155 99.0046 338.153 99.0265 338.152 99.0484C338.122 99.7103 338.096 100.365 338.078 101.011C337.715 113.314 339.431 122.703 336.417 124.526C334.442 125.722 331.1 126.756 326.369 126.752C321.084 126.749 316.574 126.555 315.007 124.046C317.199 124.852 320.382 124.94 323.911 124.941C328.642 124.943 331.986 123.908 333.961 122.715C336.043 121.456 335.867 116.586 335.679 109.638C335.551 104.91 332.677 100.65 328.293 98.8854C323.014 96.7601 318.856 93.1078 317.621 88.0514C317.699 85.2532 317.877 82.5515 318.106 79.9227L337.449 83.5122L340.208 84.0248Z" fill="#371A45"/>
</g>
<path d="M326.387 127.512C326.38 127.512 326.375 127.512 326.369 127.512C321.37 127.509 317.062 127.334 314.958 125.202C314.075 124.307 313.636 123.119 313.653 121.671C313.675 119.834 314.95 118.169 317.342 116.853C318.37 116.287 319.388 115.902 320.045 115.683C318.355 109.322 317.352 103.106 316.983 96.7029C316.682 91.4981 316.799 86.1448 317.349 79.8573C317.385 79.4394 317.753 79.1307 318.171 79.1671C318.588 79.2035 318.896 79.5723 318.86 79.9893C318.02 89.5822 317.701 101.362 321.7 115.993L321.903 116.735L321.161 116.928C321.145 116.932 319.581 117.349 318.048 118.197C316.745 118.917 315.188 120.108 315.169 121.688C315.156 122.73 315.44 123.53 316.036 124.135C317.726 125.847 321.887 125.99 326.368 125.993C326.373 125.993 326.379 125.993 326.385 125.993C331.724 125.993 334.715 124.667 336.023 123.876C336.733 123.447 337.169 122.24 337.359 120.184C337.556 118.058 337.478 115.196 337.388 111.881C337.186 104.502 336.912 94.3964 339.469 83.8447C339.568 83.4377 339.977 83.1873 340.385 83.2856C340.792 83.3849 341.042 83.7946 340.943 84.2026C338.435 94.5567 338.706 104.546 338.905 111.839C339.1 118.989 339.228 123.713 336.809 125.175C335.365 126.05 332.093 127.512 326.387 127.512Z" fill="#371A45"/>
<path d="M298.954 80.0479C298.954 80.0479 295.458 78.6219 295.746 76.1279C296.02 73.7613 297.666 72.7214 298.428 72.8598C299.578 73.0693 299.154 76.3309 299.154 76.3309C299.154 76.3309 302.249 75.6188 303.475 76.3018" fill="white"/>
<g opacity="0.35">
<path d="M301.072 78.2928L298.954 80.0475C298.954 80.0475 295.458 78.6224 295.745 76.1284C295.831 75.3826 296.053 74.7716 296.342 74.2836C296.34 74.3355 296.338 74.3874 296.338 74.4411C296.331 77.527 299.996 78.1708 301.072 78.2928Z" fill="#371A45"/>
</g>
<path d="M330.817 107.435C329.266 107.435 327.69 107.284 326.115 106.984C323.446 106.476 320.77 105.535 318.159 104.188C317.884 104.046 317.776 103.708 317.918 103.433C318.06 103.158 318.397 103.05 318.672 103.192C324.335 106.114 329.23 106.475 332.338 106.263C335.71 106.034 337.77 105.099 337.791 105.09C338.072 104.961 338.404 105.084 338.534 105.364C338.664 105.645 338.542 105.978 338.262 106.108C338.173 106.15 336.034 107.126 332.473 107.378C331.925 107.415 331.373 107.435 330.817 107.435Z" fill="#371A45"/>
<path d="M320.76 115.556C320.783 115.55 320.798 115.546 320.814 115.542L320.862 115.53L320.955 115.509C321.016 115.495 321.076 115.483 321.136 115.472L321.315 115.438L321.494 115.408C321.73 115.37 321.967 115.339 322.202 115.312C322.674 115.262 323.145 115.233 323.614 115.224C324.553 115.207 325.488 115.265 326.408 115.401C326.638 115.433 326.866 115.475 327.095 115.515C327.208 115.537 327.322 115.562 327.435 115.584L327.605 115.62L327.774 115.66C328.225 115.761 328.669 115.89 329.109 116.027C329.985 116.311 330.833 116.662 331.645 117.077C330.789 116.765 329.912 116.524 329.026 116.353C328.582 116.274 328.138 116.201 327.69 116.158L327.523 116.14L327.356 116.126C327.244 116.118 327.133 116.107 327.021 116.101C326.797 116.089 326.574 116.076 326.35 116.073C325.458 116.052 324.567 116.107 323.693 116.231C323.257 116.294 322.824 116.375 322.398 116.474C322.186 116.525 321.975 116.58 321.768 116.64L321.613 116.686L321.461 116.735C321.411 116.751 321.361 116.768 321.313 116.786C321.288 116.794 321.264 116.803 321.241 116.811L321.207 116.824C321.197 116.828 321.184 116.833 321.181 116.835C320.857 117.028 320.438 116.921 320.245 116.597C320.052 116.273 320.158 115.853 320.482 115.66C320.533 115.63 320.586 115.607 320.639 115.591L320.76 115.556Z" fill="#371A45"/>
<g opacity="0.35">
<path d="M336.587 99.1148C336.621 98.4528 336.663 97.7699 336.714 97.0624C336.664 97.7699 336.621 98.4528 336.587 99.1148Z" fill="#371A45"/>
</g>
<g opacity="0.35">
<path d="M336.758 96.4871C336.788 96.101 336.82 95.7076 336.856 95.3079C336.823 95.7076 336.788 96.101 336.758 96.4871Z" fill="#371A45"/>
</g>
<g opacity="0.35">
<path d="M337.036 93.4586C337.075 93.0907 337.116 92.7156 337.16 92.335C337.116 92.7156 337.075 93.0907 337.036 93.4586Z" fill="#371A45"/>
</g>
<g opacity="0.35">
<path d="M337.18 92.1601C337.23 91.7285 337.284 91.2923 337.34 90.847C337.284 91.2923 337.229 91.7303 337.18 92.1601Z" fill="#371A45"/>
</g>
<path d="M359.624 82.5197C359.574 83.2236 359.478 83.8983 359.34 84.5485C358.496 88.5377 356.055 91.5498 352.735 93.6323C339.932 101.671 314.04 95.9006 316.108 79.1406C317.173 70.5266 320.473 61.7305 322.915 52.9854C323.328 51.5066 323.715 50.0297 324.064 48.5563C328.222 38.9653 353.327 42.8307 354.583 45.9221C354.961 46.8518 355.326 47.9026 355.676 49.0563C356.125 50.5195 356.546 52.1422 356.939 53.875C358.595 61.186 359.708 70.451 359.757 77.8676C359.768 79.5239 359.726 81.0883 359.624 82.5197Z" fill="white"/>
<g opacity="0.35">
<path d="M359.624 82.5198C359.268 87.5307 356.597 91.2094 352.736 93.6324C340.033 101.609 314.444 95.9908 316.067 79.5304C317.546 93.7144 340.815 98.2017 352.736 90.7168C356.597 88.2946 359.269 84.615 359.624 79.6042C359.686 78.7491 359.726 77.8431 359.746 76.8979C359.782 78.9167 359.746 80.8134 359.624 82.5198Z" fill="#371A45"/>
</g>
<path d="M338.787 97.9749C337.821 97.9749 336.848 97.9339 335.871 97.851C330.413 97.3876 325.38 95.6547 321.697 92.9722C319.412 91.3077 317.701 89.3272 316.611 87.0863C315.422 84.6423 315 81.9379 315.357 79.0478C316.062 73.3321 317.721 67.6064 319.503 61.7551C319.673 61.1969 319.844 60.6388 320.015 60.0806C321.192 56.2361 322.409 52.2606 323.327 48.3806L323.342 48.3151L323.368 48.2532C324.398 45.8766 326.621 44.1119 329.975 43.0065C332.673 42.1168 336.124 41.6716 339.952 41.7162C343.326 41.7553 346.942 42.187 349.873 42.8999C351.259 43.2368 352.46 43.6311 353.345 44.04C354.416 44.5344 355.051 45.0571 355.286 45.638C358.662 53.9543 361.137 71.9052 360.38 82.5762C360.168 85.5538 359.17 88.2099 357.412 90.4736C355.808 92.5397 353.611 94.2306 350.883 95.5009C347.398 97.1208 343.186 97.9749 338.787 97.9749ZM324.787 48.7977C323.86 52.704 322.642 56.6796 321.465 60.5249C321.294 61.0822 321.124 61.6404 320.954 62.1977C319.192 67.9825 317.553 73.6381 316.862 79.2335C316.082 85.5565 319.547 89.5266 322.59 91.7438C329.752 96.9623 341.899 98.0058 350.243 94.1213C353.921 92.4095 358.402 88.9976 358.866 82.466C359.611 71.9772 357.188 54.3558 353.881 46.208C353.791 45.9859 352.795 45.1718 349.514 44.3741C346.69 43.6876 343.198 43.2714 339.934 43.2332C336.269 43.1904 332.989 43.6102 330.448 44.4479C327.555 45.4022 325.65 46.8655 324.787 48.7977Z" fill="#371A45"/>
<path d="M317.95 80.8763C319.733 80.8763 321.178 79.4299 321.178 77.6456C321.178 75.8614 319.733 74.4149 317.95 74.4149C316.168 74.4149 314.723 75.8614 314.723 77.6456C314.723 79.4299 316.168 80.8763 317.95 80.8763Z" fill="white"/>
<g opacity="0.35">
<path d="M314.723 77.6456C314.723 79.4303 316.166 80.8781 317.949 80.8781C319.732 80.8781 321.179 79.4303 321.179 77.6456C321.179 77.153 321.069 76.6831 320.869 76.2643C320.35 77.3551 319.238 78.1127 317.949 78.1127C316.662 78.1127 315.549 77.3551 315.033 76.2643C314.834 76.6822 314.723 77.1521 314.723 77.6456Z" fill="#371A45"/>
</g>
<path d="M317.95 81.5491C315.8 81.5491 314.05 79.798 314.05 77.6454C314.05 75.4928 315.8 73.7418 317.95 73.7418C320.101 73.7418 321.85 75.4928 321.85 77.6454C321.85 79.798 320.101 81.5491 317.95 81.5491ZM317.95 75.0876C316.541 75.0876 315.395 76.235 315.395 77.6454C315.395 79.0559 316.541 80.2032 317.95 80.2032C319.359 80.2032 320.505 79.0559 320.505 77.6454C320.505 76.235 319.359 75.0876 317.95 75.0876Z" fill="#371A45"/>
<g opacity="0.35">
<path d="M359.624 82.52C359.574 83.2239 359.478 83.8986 359.34 84.5487C357.988 84.9585 353.753 85.8081 343.41 84.9585L343.359 85.8199C343.238 87.8404 341.487 89.393 339.473 89.2737L322.438 88.2602C320.423 88.1382 318.868 86.3899 318.989 84.3694L319.101 82.4826L319.53 75.2955C319.649 73.275 321.397 71.7224 323.416 71.8435L340.447 72.857C340.699 72.8734 340.942 72.9107 341.175 72.9745C342.825 73.4161 344.001 74.9768 343.897 76.7461L343.805 78.3031C346.066 78.5845 354.06 79.4168 359.658 77.8897C359.69 77.8815 359.724 77.8733 359.756 77.8679C359.767 79.5242 359.725 81.0886 359.624 82.52Z" fill="#371A45"/>
</g>
<path d="M321.315 85.6613L338.349 86.6757C340.365 86.7968 342.114 85.2434 342.235 83.2228L342.774 74.149C342.879 72.3798 341.701 70.819 340.052 70.3774C339.818 70.3137 339.575 70.2745 339.323 70.259L322.292 69.2447C320.274 69.1236 318.524 70.677 318.406 72.6976L317.978 79.8838L317.865 81.7705C317.745 83.7919 319.299 85.5402 321.315 85.6613Z" fill="white"/>
<g opacity="0.35">
<path d="M321.315 85.6612L338.349 86.6756C340.365 86.7967 342.114 85.2433 342.235 83.2227L342.774 74.1489C342.879 72.3797 341.701 70.8189 340.052 70.3773C339.047 70.9628 338.408 71.338 338.408 71.338C337.146 78.5715 334.858 82.08 325.814 81.6903C321.911 81.5209 319.484 80.7788 317.978 79.8855L317.866 81.7722C317.745 83.7918 319.299 85.5401 321.315 85.6612Z" fill="#371A45"/>
</g>
<path d="M338.57 87.4414C338.481 87.4414 338.393 87.4387 338.303 87.4332L321.271 86.4188C320.093 86.3487 319.01 85.8206 318.222 84.9319C317.434 84.0431 317.039 82.9049 317.109 81.7257L317.648 72.651C317.794 70.2089 319.895 68.3395 322.337 68.4851L339.37 69.4995C341.809 69.6452 343.677 71.7504 343.531 74.1926L342.992 83.2673C342.922 84.4465 342.394 85.5301 341.506 86.3187C340.686 87.048 339.652 87.4414 338.57 87.4414ZM322.071 69.9967C320.542 69.9967 319.255 71.1941 319.162 72.7421L318.622 81.8168C318.576 82.5908 318.837 83.3393 319.356 83.9248C319.874 84.5103 320.586 84.8572 321.36 84.9036L338.393 85.918C339.167 85.9645 339.914 85.7031 340.498 85.1841C341.083 84.6651 341.43 83.9521 341.476 83.1781L342.016 74.1034C342.062 73.3294 341.801 72.5809 341.283 71.9954C340.764 71.4099 340.052 71.063 339.279 71.0165L322.247 70.0012C322.187 69.9985 322.129 69.9967 322.071 69.9967Z" fill="#371A45"/>
<path d="M320.636 85.5528C320.854 85.612 321.08 85.6475 321.315 85.6603L338.349 86.6746C339.826 86.7621 341.16 85.9535 341.814 84.716C342.052 84.2671 342.201 83.7608 342.232 83.2218L342.473 79.1907L342.553 77.8603L342.773 74.1479C342.894 72.1274 341.339 70.3791 339.323 70.258L335.643 70.0394C337.32 70.4601 338.523 72.0345 338.418 73.821L338.128 78.7226L337.879 82.8976C337.759 84.9154 336.01 86.4716 333.993 86.3505L320.636 85.5528Z" fill="white"/>
<g opacity="0.35">
<path d="M320.636 85.553C320.854 85.6122 321.08 85.6477 321.315 85.6605L338.349 86.6749C340.365 86.796 342.114 85.2425 342.232 83.222L342.553 77.8615C342.068 78.7829 341.229 79.9002 339.99 79.9485C339.31 79.9767 338.675 79.4504 338.128 78.7238L337.879 82.8987C337.759 84.9166 336.01 86.4727 333.993 86.3516L320.636 85.553Z" fill="#371A45"/>
</g>
<path d="M338.573 87.4414C338.484 87.4414 338.394 87.4387 338.304 87.4332L321.273 86.4189C320.993 86.4034 320.714 86.3597 320.443 86.2886L320.681 84.7962L334.041 85.593C334.813 85.6394 335.561 85.379 336.145 84.859C336.73 84.3391 337.076 83.627 337.122 82.8531L337.661 73.7783C337.744 72.3806 336.818 71.1176 335.46 70.7752L335.69 69.281L339.369 69.4995C340.548 69.5706 341.63 70.0987 342.418 70.9865C343.207 71.8752 343.601 73.0143 343.531 74.1935L342.991 83.2674C342.922 84.4466 342.394 85.531 341.506 86.3196C340.686 87.0481 339.653 87.4414 338.573 87.4414ZM337.304 85.8525L338.394 85.9171C339.167 85.9636 339.915 85.7031 340.499 85.1832C341.084 84.6633 341.431 83.9512 341.476 83.1772V83.1763L342.016 74.1016C342.062 73.3276 341.802 72.5791 341.283 71.9936C340.763 71.4081 340.052 71.0603 339.278 71.0138L338.305 70.9565C338.912 71.7714 339.24 72.7931 339.176 73.8666L338.636 82.9414C338.571 84.0523 338.1 85.0776 337.304 85.8525Z" fill="#371A45"/>
<path d="M331.428 78.0345C331.41 78.3705 331.737 81.105 331.737 81.105C331.737 81.105 332.594 81.1514 333.647 81.2079C334.962 81.2789 336.102 79.9722 336.192 78.2904C336.282 76.6086 335.289 75.1881 333.974 75.1171C333.086 75.0697 332.063 75.0142 332.063 75.0142C332.063 75.0142 331.457 77.4873 331.428 78.0345Z" fill="#22A7F0"/>
<g opacity="0.35">
<path d="M331.428 78.0345C331.41 78.3705 331.737 81.105 331.737 81.105C331.737 81.105 332.594 81.1514 333.647 81.2079C334.962 81.2789 336.102 79.9722 336.192 78.2904C336.282 76.6086 335.289 75.1881 333.974 75.1171C333.086 75.0697 332.063 75.0142 332.063 75.0142C332.063 75.0142 331.457 77.4873 331.428 78.0345Z" fill="#371A45"/>
</g>
<path d="M333.752 81.7795C333.707 81.7795 333.662 81.7785 333.617 81.7758L331.707 81.6729C331.43 81.6584 331.205 81.4462 331.173 81.1721C331.073 80.3353 330.842 78.3512 330.862 78.0033C330.893 77.4324 331.409 75.2998 331.512 74.8782C331.578 74.6124 331.821 74.4312 332.095 74.4448L334.005 74.5477C334.82 74.5914 335.556 75.0267 336.078 75.7724C336.569 76.4754 336.812 77.3805 336.762 78.3202C336.711 79.2599 336.373 80.1341 335.809 80.7797C335.243 81.428 334.517 81.7795 333.752 81.7795ZM332.245 80.562L333.677 80.6394C334.136 80.664 334.587 80.4482 334.951 80.0321C335.348 79.5768 335.587 78.9476 335.625 78.2601C335.662 77.5726 335.491 76.9216 335.144 76.4262C334.828 75.9737 334.401 75.7105 333.944 75.6859L332.505 75.6085C332.284 76.54 332.014 77.7538 331.997 78.0625C331.992 78.2546 332.111 79.4083 332.245 80.562Z" fill="#371A45"/>
<path d="M334.287 78.1888C334.378 76.507 333.384 75.0862 332.069 75.0154C330.754 74.9446 329.614 76.2506 329.524 77.9324C329.433 79.6143 330.426 81.0351 331.742 81.1059C333.057 81.1767 334.197 79.8707 334.287 78.1888Z" fill="#22A7F0"/>
<g opacity="0.35">
<path d="M331.737 81.1038C333.051 81.1748 334.191 79.8691 334.282 78.1872C334.302 77.8011 334.267 77.4278 334.182 77.0836C333.865 78.4194 332.865 79.3701 331.737 79.31C330.724 79.2553 329.901 78.3994 329.619 77.2402C329.566 77.4606 329.531 77.6919 329.519 77.9304C329.428 79.6141 330.421 81.0328 331.737 81.1038Z" fill="#371A45"/>
</g>
<g opacity="0.7">
<path d="M329.557 78.7244C329.779 77.2247 330.845 76.112 332.063 76.1776C333.164 76.2359 334.042 77.2429 334.244 78.5587C334.262 78.4385 334.275 78.3129 334.282 78.1872C334.373 76.5054 333.379 75.0849 332.063 75.0139C330.748 74.9428 329.608 76.2486 329.519 77.9304C329.504 78.2036 329.517 78.4695 329.557 78.7244Z" fill="white"/>
</g>
<path d="M331.84 81.6767C331.796 81.6767 331.75 81.6758 331.706 81.6731C330.891 81.6294 330.156 81.1941 329.633 80.4484C329.142 79.7454 328.899 78.8403 328.949 77.9006C328.999 76.9609 329.338 76.0867 329.902 75.4411C330.5 74.7555 331.279 74.4022 332.093 74.4459C332.908 74.4896 333.643 74.9248 334.165 75.6706C334.657 76.3736 334.9 77.2787 334.849 78.2184C334.799 79.1581 334.461 80.0322 333.897 80.6778C333.331 81.3252 332.606 81.6767 331.84 81.6767ZM331.962 75.5814C331.528 75.5814 331.104 75.7953 330.76 76.1905C330.362 76.6458 330.123 77.275 330.086 77.9625C330.049 78.6491 330.22 79.301 330.567 79.7964C330.883 80.2489 331.31 80.5121 331.767 80.5367C332.225 80.5613 332.677 80.3455 333.041 79.9293C333.439 79.4741 333.678 78.8448 333.715 78.1574C333.752 77.4708 333.581 76.8188 333.235 76.3235C332.918 75.8709 332.492 75.6078 332.034 75.5832C332.009 75.5814 331.986 75.5814 331.962 75.5814Z" fill="#371A45"/>
<path d="M326.615 86.4718C326.609 86.4718 326.601 86.4718 326.595 86.4718C326.286 86.4609 326.045 86.2005 326.056 85.8918L326.213 81.4874C326.251 80.4092 325.876 79.373 325.158 78.569L324.935 78.3204C323.997 77.2723 323.511 75.8655 323.602 74.4614L323.934 69.3458C323.954 69.0371 324.222 68.8022 324.529 68.8222C324.838 68.8423 325.072 69.1091 325.052 69.4177L324.72 74.5333C324.648 75.6388 325.031 76.7469 325.77 77.5719L325.993 77.8205C326.906 78.8412 327.383 80.157 327.334 81.5265L327.176 85.9309C327.164 86.2333 326.914 86.4718 326.615 86.4718Z" fill="#371A45"/>
<path d="M361.314 78.2868C361.23 80.7991 358.742 81.7579 358.742 81.7579C358.742 81.7579 355.301 83.5445 341.103 82.2587C341.103 82.2587 337.087 78.1448 342.066 75.6234C342.066 75.6234 351.955 77.0849 358.536 75.291C359.722 74.9678 361.388 76.0423 361.314 78.2868Z" fill="white"/>
<g opacity="0.35">
<path d="M361.313 78.2868C361.231 80.799 358.743 81.7588 358.743 81.7588C358.743 81.7588 355.301 83.5453 341.103 82.2587C341.103 82.2587 338.83 79.9304 339.825 77.704C339.829 77.7158 339.834 77.7277 339.837 77.7395C340.295 78.9579 341.437 79.7892 342.733 79.8912C355.567 80.9001 358.742 79.2511 358.742 79.2511C358.742 79.2511 360.484 78.5791 361.1 76.8909C361.251 77.2879 361.331 77.7532 361.313 78.2868Z" fill="#371A45"/>
</g>
<path d="M350.256 83.4859C347.805 83.4859 345.005 83.3539 341.878 83.0889C341.059 83.0197 340.326 82.5926 339.866 81.9179C339.253 81.0164 338.585 79.6314 338.888 78.1481C339.113 77.05 339.825 76.1094 341.006 75.3527C341.53 75.0167 342.162 74.8746 342.788 74.9529C345.06 75.2352 352.893 76.042 358.335 74.5587C359.123 74.3438 360.02 74.5523 360.732 75.1159C361.627 75.8234 362.114 76.989 362.071 78.312C361.976 81.1548 359.393 82.3113 359.048 82.4533C358.825 82.558 357.848 82.9587 355.487 83.2282C353.978 83.3994 352.23 83.4859 350.256 83.4859ZM342.452 76.4508C342.229 76.4508 342.009 76.5136 341.824 76.632C341.002 77.1592 340.514 77.7711 340.375 78.4523C340.178 79.4156 340.671 80.4036 341.12 81.0629C341.321 81.3579 341.643 81.5446 342.005 81.5755C348.741 82.1455 352.835 81.9825 355.082 81.7449C357.436 81.4963 358.321 81.1157 358.397 81.082L358.439 81.0583L358.469 81.0501C358.548 81.0182 360.49 80.227 360.555 78.2619C360.593 77.1174 360.094 76.5464 359.793 76.3079C359.461 76.0456 359.055 75.9363 358.734 76.0238C353.024 77.5808 344.942 76.7513 342.602 76.4599C342.553 76.4545 342.503 76.4508 342.452 76.4508Z" fill="#371A45"/>
<path d="M341.363 94.4646C341.32 93.8591 342.548 109.95 343.961 119.795C344.975 126.86 351.44 127.594 361.778 126.862C365.583 126.592 368.498 125.457 368.204 122.446C367.809 118.401 361.894 116.869 361.894 116.869C361.894 116.869 360.422 100.236 359.261 82.9678" fill="white"/>
<path d="M341.111 94.4829C341.109 94.4756 341.108 94.4756 341.106 94.461C342.129 94.3927 341.393 94.4537 341.622 94.4419L341.631 94.4738L341.649 94.5357L341.684 94.6595C341.707 94.7424 341.727 94.8253 341.748 94.9081C341.79 95.0738 341.829 95.2396 341.868 95.4053C341.943 95.7367 342.01 96.0691 342.076 96.4015C342.203 97.0662 342.312 97.7327 342.406 98.4011C342.502 99.0685 342.576 99.7378 342.653 100.407C342.729 101.076 342.798 101.746 342.864 102.416C342.996 103.755 343.099 105.098 343.213 106.44C343.268 107.111 343.329 107.781 343.39 108.451C343.454 109.121 343.521 109.79 343.593 110.46C343.878 113.136 344.183 115.808 344.542 118.469L344.68 119.465L344.716 119.713L344.753 119.946C344.765 120.024 344.781 120.101 344.795 120.177L344.817 120.293L344.842 120.408C344.971 121.02 345.165 121.606 345.424 122.152C345.554 122.425 345.703 122.686 345.869 122.934C346.037 123.181 346.221 123.414 346.424 123.632C346.829 124.068 347.304 124.441 347.828 124.749C348.353 125.058 348.924 125.308 349.523 125.502C349.822 125.601 350.127 125.687 350.436 125.765C350.746 125.84 351.06 125.906 351.377 125.963C352.647 126.191 353.961 126.284 355.281 126.316C356.602 126.347 357.932 126.315 359.265 126.253C359.932 126.221 360.599 126.182 361.266 126.137L361.766 126.102C361.928 126.09 362.091 126.078 362.252 126.061C362.414 126.048 362.574 126.028 362.735 126.01C362.894 125.988 363.055 125.969 363.212 125.943C363.53 125.895 363.844 125.838 364.15 125.767C364.458 125.697 364.759 125.615 365.05 125.518C365.628 125.321 366.171 125.061 366.589 124.717C366.798 124.544 366.975 124.354 367.111 124.145C367.246 123.934 367.342 123.706 367.4 123.458C367.457 123.211 367.475 122.946 367.46 122.669C367.446 122.391 367.4 122.117 367.319 121.852C367.159 121.321 366.87 120.822 366.488 120.374C366.106 119.926 365.637 119.527 365.125 119.178C364.612 118.827 364.056 118.523 363.477 118.259C363.188 118.128 362.892 118.006 362.594 117.895C362.444 117.839 362.294 117.786 362.144 117.737C362.069 117.712 361.994 117.689 361.92 117.666L361.809 117.633L361.708 117.605L361.188 117.459L361.143 116.937C360.895 114.11 360.658 111.287 360.425 108.461C360.192 105.636 359.967 102.81 359.746 99.9836L359.1 91.5035C359.039 90.7969 358.967 90.0921 358.902 89.3855C358.839 88.6798 358.79 87.9723 358.765 87.2639C358.753 86.9097 358.743 86.5545 358.74 86.1994C358.738 85.8443 358.746 85.4883 358.762 85.1322C358.779 84.7762 358.805 84.4193 358.844 84.0614C358.884 83.7036 358.932 83.3448 359.012 82.9842C359.044 82.8422 359.185 82.752 359.327 82.7839C359.417 82.8039 359.485 82.8677 359.516 82.9478L359.517 82.9496C359.646 83.2956 359.742 83.6444 359.831 83.9931C359.918 84.3419 359.993 84.6915 360.058 85.0421C360.189 85.7423 360.275 86.4462 360.35 87.151C360.503 88.5596 360.54 89.9765 360.624 91.3906C360.666 92.0972 360.722 92.8038 360.774 93.5095L360.933 95.6275L361.258 99.8634C361.478 102.687 361.704 105.511 361.937 108.334C362.169 111.157 362.407 113.981 362.654 116.8L362.088 116.132L362.163 116.153L362.231 116.172L362.362 116.211C362.448 116.237 362.534 116.265 362.618 116.292C362.787 116.348 362.956 116.407 363.121 116.469C363.454 116.592 363.782 116.727 364.105 116.875C364.751 117.17 365.381 117.512 365.981 117.922C366.58 118.332 367.15 118.811 367.643 119.388C367.766 119.533 367.883 119.684 367.995 119.84C368.105 119.997 368.211 120.16 368.306 120.329C368.498 120.669 368.659 121.031 368.772 121.412C368.888 121.792 368.956 122.187 368.976 122.582C368.998 122.978 368.973 123.392 368.878 123.801C368.783 124.209 368.616 124.612 368.385 124.968C368.154 125.324 367.864 125.631 367.554 125.887C367.242 126.143 366.909 126.35 366.569 126.523C366.229 126.696 365.883 126.836 365.536 126.954C365.188 127.07 364.839 127.164 364.489 127.244C364.14 127.325 363.791 127.388 363.442 127.441C363.268 127.469 363.094 127.49 362.92 127.513C362.747 127.532 362.573 127.554 362.399 127.568C362.225 127.586 362.052 127.599 361.879 127.613L361.371 127.649C360.695 127.694 360.018 127.734 359.34 127.766C357.983 127.83 356.619 127.863 355.247 127.832C353.876 127.797 352.494 127.701 351.112 127.455C350.766 127.392 350.421 127.32 350.077 127.236C349.734 127.151 349.391 127.054 349.049 126.941C348.368 126.718 347.697 126.428 347.06 126.054C346.424 125.68 345.826 125.215 345.314 124.662C345.058 124.386 344.824 124.09 344.614 123.779C344.405 123.467 344.22 123.14 344.059 122.805C343.739 122.134 343.511 121.431 343.361 120.725L343.332 120.592L343.307 120.459C343.29 120.37 343.272 120.282 343.258 120.193L343.217 119.927L343.18 119.674L343.041 118.668C342.679 115.984 342.372 113.3 342.087 110.615L341.872 108.6L341.648 106.588C341.5 105.247 341.351 103.905 341.237 102.56C341.181 101.888 341.129 101.215 341.086 100.541C341.043 99.8671 341.002 99.1933 340.982 98.5185C340.962 97.8429 340.957 97.1663 340.974 96.488C340.984 96.1483 340.996 95.8096 341.018 95.469C341.029 95.2988 341.041 95.1285 341.055 94.9582C341.063 94.8726 341.071 94.7879 341.08 94.7023L341.093 94.5749L341.101 94.5111L341.105 94.4792C341.334 94.4583 340.597 94.5047 341.618 94.4319C341.617 94.4273 341.616 94.4383 341.616 94.4419L341.605 94.4856C341.57 94.6213 341.432 94.7032 341.296 94.6695C341.2 94.6495 341.131 94.573 341.111 94.4829Z" fill="#371A45"/>
<path d="M348.763 108.823C346.574 108.823 344.482 108.577 342.536 108.088C342.236 108.012 342.054 107.708 342.13 107.407C342.205 107.107 342.509 106.925 342.809 107C347.424 108.16 352.049 107.661 355.115 107.039C358.457 106.36 360.73 105.391 360.753 105.381C361.036 105.259 361.366 105.391 361.489 105.675C361.61 105.959 361.479 106.288 361.196 106.411C361.1 106.452 358.815 107.428 355.366 108.131C353.341 108.544 351.336 108.774 349.404 108.817C349.19 108.822 348.976 108.823 348.763 108.823Z" fill="#371A45"/>
<path d="M361.693 117.51C361.69 117.509 361.676 117.503 361.666 117.5L361.631 117.487L361.559 117.461C361.509 117.444 361.459 117.429 361.408 117.411C361.307 117.378 361.203 117.348 361.098 117.318C360.889 117.259 360.676 117.206 360.462 117.156C360.032 117.059 359.595 116.979 359.155 116.917C358.275 116.793 357.379 116.736 356.481 116.753C356.369 116.756 356.256 116.756 356.143 116.761L355.806 116.777C355.693 116.782 355.581 116.792 355.468 116.799L355.299 116.811L355.131 116.828L354.793 116.862L354.457 116.906C354.4 116.913 354.344 116.92 354.288 116.929L354.121 116.955L353.785 117.01C352.893 117.171 352.008 117.399 351.142 117.699C351.965 117.296 352.823 116.957 353.707 116.683C354.592 116.415 355.502 116.209 356.426 116.082C357.35 115.951 358.289 115.894 359.232 115.911C359.703 115.919 360.176 115.946 360.649 115.994C360.885 116.02 361.123 116.049 361.36 116.085C361.479 116.105 361.599 116.124 361.719 116.146C361.779 116.158 361.839 116.169 361.901 116.183L361.993 116.203L362.042 116.214C362.058 116.217 362.073 116.221 362.096 116.227L362.196 116.255C362.559 116.354 362.773 116.728 362.674 117.092C362.575 117.455 362.201 117.669 361.838 117.57C361.789 117.555 361.737 117.534 361.693 117.51Z" fill="#371A45"/>
<g opacity="0.35">
<path d="M341.863 94.96C341.863 95.2286 342.586 110.223 343.962 119.795C344.976 126.861 351.439 127.595 361.778 126.861C365.584 126.592 368.499 125.457 368.205 122.446C368.197 122.375 368.19 122.306 368.179 122.238C367.008 123.005 365.256 123.386 363.255 123.527C352.917 124.261 346.452 123.527 345.437 116.461C344.387 109.145 342.678 99.2943 341.886 94.9654L341.866 94.9727C341.865 94.9672 341.865 94.9636 341.863 94.96Z" fill="#371A45"/>
</g>
<path d="M305.41 48.5092C305.443 48.9955 305.448 49.4817 305.422 49.9661C305.386 50.6463 305.292 51.322 305.141 51.9858C304.489 54.8623 302.773 57.502 300.124 59.2621C297.47 61.0259 294.365 61.5832 291.459 61.0633C290.82 60.9485 290.192 60.7828 289.579 60.5661C289.099 60.3967 288.63 60.1955 288.173 59.9651C290.933 58.7713 294.07 57.0613 297.259 54.9415C300.447 52.8217 303.239 50.5926 305.41 48.5092Z" fill="#FFB200"/>
<path d="M291.505 61.259L291.459 61.0641L291.338 60.9039L291.371 60.8784L291.412 60.8684C292.981 60.495 295.847 59.0226 298.715 57.1168C301.599 55.2 304 53.1886 304.981 51.8655L305.303 52.105C304.296 53.4627 301.857 55.5106 298.937 57.451C295.988 59.4105 293.141 60.8693 291.505 61.259Z" fill="#D66B09"/>
<path d="M297.258 54.9416C300.447 52.8227 303.239 50.5927 305.41 48.5102C305.443 48.9964 305.448 49.4827 305.422 49.9671C303.763 51.6416 301.032 53.8197 297.79 55.9741C294.685 58.0375 291.742 59.6601 289.579 60.5661C289.098 60.3968 288.629 60.1955 288.172 59.9652C290.933 58.7714 294.07 57.0605 297.258 54.9416Z" fill="#D66B09"/>
<g opacity="0.35">
<path d="M305.41 46.8611C305.443 47.3474 305.448 47.8336 305.422 48.3181C305.386 48.9983 305.292 49.6739 305.141 50.3377C304.489 53.2142 302.773 55.8539 300.124 57.6141C297.47 59.3778 294.365 59.9351 291.459 59.4152C290.82 59.3005 290.192 59.1347 289.579 58.918C289.099 58.7486 288.63 58.5474 288.173 58.317C290.933 57.1233 294.07 55.4132 297.259 53.2934C300.447 51.1736 303.239 48.9436 305.41 46.8611Z" fill="#371A45"/>
</g>
<g opacity="0.35">
<path d="M304.196 42.453C304.124 42.534 304.049 42.6169 303.97 42.7007C304.037 42.6005 304.102 42.4985 304.166 42.3947C304.176 42.4138 304.186 42.433 304.196 42.453Z" fill="#371A45"/>
</g>
<path d="M303.454 42.7661C303.731 43.184 303.979 43.6129 304.196 44.0509C302.539 45.9066 299.12 48.6839 294.948 51.4566C290.776 54.2292 286.892 56.3053 284.54 57.113C284.221 56.7424 283.922 56.3472 283.645 55.9293C283.632 55.9092 283.619 55.8901 283.606 55.8701C283.485 55.6852 283.37 55.4986 283.261 55.3092C283.004 54.8676 282.779 54.4141 282.586 53.9543C282.578 53.936 282.57 53.9169 282.562 53.8978C282.278 53.2121 282.062 52.511 281.913 51.8008C281.629 50.4504 281.586 49.0709 281.771 47.7269C282.22 44.4625 284.014 41.3984 286.973 39.4325C289.908 37.482 293.392 37.0076 296.551 37.8317C297.848 38.1695 299.091 38.7277 300.218 39.4917C300.821 39.8996 301.391 40.3676 301.919 40.893C301.962 40.9349 302.004 40.9777 302.046 41.0205C302.395 41.3784 302.724 41.7608 303.032 42.1696C303.146 42.3208 303.257 42.4756 303.365 42.634C303.395 42.6787 303.425 42.7224 303.454 42.7661Z" fill="#FFB200"/>
<path d="M303.366 42.6361C303.396 42.6789 303.425 42.7226 303.454 42.7663C303.731 43.1843 303.979 43.6132 304.196 44.0511C302.539 45.9069 299.12 48.6841 294.948 51.4568C290.777 54.2295 286.892 56.3056 284.54 57.1133C284.221 56.7427 283.922 56.3475 283.645 55.9295C283.632 55.9095 283.619 55.8904 283.606 55.8703C285.86 55.243 289.825 53.2005 294.078 50.3741C298.499 47.4375 302.019 44.4572 303.366 42.6361Z" fill="#D66B09"/>
<path d="M281.956 52.2016L281.869 51.4039C283.482 51.2264 287.448 49.2149 291.515 46.5114C296.367 43.2871 299.38 40.4625 299.849 39.338L300.588 39.6466C299.968 41.1336 296.5 44.1603 291.958 47.1789C287.73 49.9907 283.71 52.0085 281.956 52.2016Z" fill="#D66B09"/>
<path d="M281.893 48.1113L281.649 47.3474C283.404 46.7874 286.348 45.2066 289.333 43.2234C292.46 41.1455 295.107 38.9838 296.239 37.5824L296.862 38.0869C295.682 39.5465 292.966 41.771 289.776 43.8908C286.735 45.9123 283.714 47.5295 281.893 48.1113Z" fill="#D66B09"/>
<path d="M282.624 54.2968L282.499 53.5046C284.336 53.2141 288.432 51.118 292.691 48.287C297.16 45.3177 300.808 42.2035 301.563 40.7147L302.278 41.078C301.453 42.7034 297.779 45.8695 293.135 48.9563C288.721 51.8883 284.594 53.9854 282.624 54.2968Z" fill="#D66B09"/>
<path d="M293.56 62.0157C291.573 62.0157 289.603 61.5477 287.827 60.648C287.563 60.5142 287.399 60.2383 287.408 59.9414C287.417 59.6446 287.596 59.3796 287.869 59.2621C290.687 58.0438 293.788 56.3292 296.835 54.3041C299.882 52.279 302.664 50.0845 304.88 47.9574C305.094 47.7516 305.408 47.6888 305.685 47.7953C305.962 47.9019 306.152 48.1595 306.173 48.4564C306.327 50.6527 305.904 52.8617 304.95 54.8468C303.969 56.8919 302.446 58.6393 300.548 59.9004C298.65 61.1616 296.45 61.8882 294.187 62.0002C293.978 62.0102 293.768 62.0157 293.56 62.0157ZM290.09 59.9314C293.294 60.9767 296.849 60.5205 299.701 58.6247C302.554 56.7289 304.353 53.6266 304.635 50.2657C302.608 52.0677 300.234 53.8834 297.681 55.5789C295.128 57.2753 292.536 58.7604 290.09 59.9314Z" fill="#371A45"/>
<path d="M310.004 40.4371C310.968 41.8894 309.075 44.9917 305.409 48.5102C303.239 50.5936 300.447 52.8227 297.258 54.9416C294.069 57.0614 290.932 58.7714 288.172 59.9652C283.51 61.9812 279.919 62.523 278.956 61.0706C278.081 59.7512 279.561 57.0732 282.585 53.9572C282.778 54.418 283.003 54.8705 283.26 55.3122C282.436 56.2455 282.068 56.9393 282.289 57.2726C282.515 57.6123 283.322 57.533 284.539 57.1151C286.891 56.3065 290.775 54.2304 294.947 51.4586C299.12 48.6859 302.539 45.9087 304.195 44.0529C305.052 43.0923 305.438 42.3784 305.213 42.0388C304.992 41.7055 304.211 41.7756 303.032 42.1735C302.724 41.7656 302.395 41.3822 302.046 41.0244C306.089 39.4436 309.129 39.1177 310.004 40.4371Z" fill="#FFC536"/>
<path d="M282.338 58.8048C281.754 58.8048 281.307 58.6555 281.071 58.3004C280.596 57.5847 281.148 56.3781 282.756 54.6107L283.235 55.0478C281.724 56.7078 281.406 57.6311 281.612 57.9407C281.957 58.4615 284.142 58.1337 288.126 56.1824C290.353 55.0915 292.837 53.6455 295.309 52.0029C297.783 50.3593 300.077 48.6283 301.946 46.9984C305.289 44.0809 306.438 42.1924 306.094 41.6715C305.887 41.361 304.915 41.2964 302.8 42.0467L302.583 41.4348C304.835 40.6371 306.159 40.5971 306.634 41.3128C307.486 42.5985 304.787 45.3803 302.373 47.4882C300.483 49.1373 298.165 50.8856 295.669 52.5446C293.173 54.2037 290.663 55.6634 288.41 56.767C286.329 57.785 283.866 58.8048 282.338 58.8048Z" fill="#FFEC90"/>
<path d="M281.603 60.5314C280.78 60.5314 280.122 60.3256 279.777 59.8039C278.883 58.4562 280.782 55.9795 282.531 54.1392L283.002 54.5863C280.436 57.2843 279.933 58.8651 280.317 59.4442C280.791 60.159 283.093 60.1918 288.023 57.9317C290.571 56.7635 293.392 55.1663 296.18 53.3142C298.968 51.4612 301.533 49.4798 303.598 47.5822C307.592 43.9126 308.456 41.7755 307.981 41.0607C307.597 40.4816 305.947 40.3322 302.466 41.6517L302.237 41.0443C304.61 40.1447 307.628 39.3543 308.522 40.7019C309.682 42.452 306.209 46.0634 304.036 48.0612C301.947 49.9806 299.354 51.9848 296.538 53.856C293.723 55.7273 290.871 57.3417 288.293 58.5236C286.409 59.3859 283.545 60.5314 281.603 60.5314Z" fill="#FFEC90"/>
<g opacity="0.35">
<path d="M298.474 53.6575C295.352 55.7172 292.287 57.3817 289.585 58.5509C284.923 60.5669 281.331 61.1087 280.368 59.6563C279.494 58.3369 280.974 55.6589 283.997 52.543C284.191 53.0037 284.416 53.4563 284.673 53.8979C283.848 54.8303 283.48 55.5242 283.702 55.8574C283.928 56.1971 284.734 56.1188 285.952 55.7008C287.512 55.1645 289.747 54.07 292.293 52.5839C292.285 52.9491 292.367 53.2669 292.541 53.5309C293.263 54.62 295.459 54.589 298.474 53.6575Z" fill="#371A45"/>
</g>
<path d="M281.133 62.5947C279.921 62.5947 278.914 62.2833 278.368 61.4601C277.788 60.5841 277.894 59.3731 278.683 57.8597C279.355 56.5731 280.497 55.0943 282.078 53.4644C282.243 53.2941 282.482 53.2185 282.715 53.2622C282.948 53.306 283.143 53.4635 283.235 53.682C283.419 54.1182 283.633 54.5471 283.87 54.9568C284.023 55.22 283.99 55.5514 283.788 55.78C283.371 56.2526 283.157 56.5694 283.047 56.7679C283.281 56.7434 283.675 56.6641 284.31 56.4456C286.679 55.6315 290.605 53.4944 294.556 50.8684C298.507 48.2423 301.999 45.4495 303.668 43.5801C304.115 43.0793 304.341 42.747 304.454 42.5412C304.229 42.5658 303.853 42.6395 303.257 42.8417C302.969 42.9391 302.651 42.8408 302.468 42.5976C302.183 42.2188 301.871 41.8555 301.541 41.5168C301.375 41.3474 301.306 41.1061 301.356 40.8739C301.406 40.6426 301.569 40.4514 301.789 40.3649C303.904 39.5381 305.709 39.0592 307.154 38.939C308.855 38.7978 310.011 39.1703 310.592 40.0462C312.168 42.4219 308.327 46.6879 305.897 49.0199C303.619 51.2062 300.767 53.4571 297.648 55.5305C294.529 57.6029 291.35 59.3603 288.452 60.6133C286.433 61.4865 283.419 62.5947 281.133 62.5947ZM282.39 55.1954C279.808 58.0364 279.08 59.9777 279.546 60.6788C279.843 61.1268 280.769 61.2862 282.088 61.1168C283.615 60.9201 285.622 60.2973 287.893 59.3157C290.714 58.0956 293.818 56.38 296.868 54.3522C299.918 52.3253 302.702 50.1281 304.921 47.9991C306.707 46.2855 308.059 44.6756 308.833 43.3434C309.5 42.1924 309.713 41.2755 309.417 40.8275C308.952 40.1264 306.881 40.0444 303.264 41.3238C303.271 41.3329 303.278 41.342 303.285 41.3511C304.272 41.0633 305.325 40.9286 305.802 41.647C306.364 42.4938 305.52 43.6284 304.723 44.5226C302.953 46.5058 299.444 49.3186 295.339 52.0466C291.233 54.7747 287.281 56.9191 284.769 57.7832C283.636 58.172 282.264 58.5099 281.702 57.663C281.225 56.9446 281.758 56.0249 282.406 55.2263C282.401 55.2154 282.396 55.2054 282.39 55.1954Z" fill="#371A45"/>
<g opacity="0.35">
<path d="M305.489 42.7552C303.833 44.6109 300.413 47.3891 296.242 50.1609C292.07 52.9335 288.185 55.0097 285.833 55.8182C285.515 55.4467 285.216 55.0524 284.938 54.6345C284.925 54.6145 284.913 54.5953 284.9 54.5762C284.779 54.3914 284.663 54.2047 284.554 54.0153C284.298 53.5737 284.073 53.1211 283.878 52.6604C283.87 52.6422 283.863 52.623 283.855 52.6039C283.572 51.9183 283.355 51.2162 283.206 50.5069C282.922 49.1565 282.879 47.777 283.064 46.4321C283.428 43.7914 284.671 41.2837 286.698 39.3806C286.253 40.395 285.951 41.4658 285.801 42.5585C285.616 43.9034 285.658 45.282 285.943 46.6333C286.092 47.3436 286.308 48.0447 286.592 48.7294C286.6 48.7486 286.607 48.7677 286.615 48.7859C286.625 48.8105 286.64 48.8405 286.656 48.876C287.574 50.801 289.88 51.3018 291.946 50.7791C295.884 49.783 303.794 43.7313 305.463 42.36C305.64 42.6523 305.34 42.4565 305.489 42.7552Z" fill="#371A45"/>
</g>
<g opacity="0.41">
<path d="M303.914 44.3379C303.721 44.5537 303.505 44.7822 303.266 45.0217C303.105 44.7303 302.933 44.4435 302.746 44.1621C302.717 44.1184 302.687 44.0756 302.658 44.0319C302.551 43.8735 302.44 43.7178 302.325 43.5675C302.017 43.1596 301.687 42.7763 301.34 42.4184C301.298 42.3756 301.255 42.3328 301.212 42.2909C300.685 41.7655 300.114 41.2975 299.51 40.8896C298.383 40.1256 297.141 39.5674 295.843 39.2305C292.683 38.4055 289.199 38.8799 286.265 40.8304C284.306 42.1325 282.857 43.9154 281.972 45.9195C282.775 43.4674 284.376 41.2583 286.691 39.7204C289.626 37.7709 293.11 37.2955 296.269 38.1205C297.566 38.4592 298.809 39.0156 299.937 39.7805C300.539 40.1884 301.111 40.6565 301.638 41.1809C301.682 41.2228 301.724 41.2656 301.766 41.3093C302.115 41.6672 302.443 42.0496 302.751 42.4576C302.865 42.6096 302.976 42.7644 303.084 42.9219C303.114 42.9647 303.143 43.0085 303.172 43.0522C303.449 43.471 303.697 43.8999 303.914 44.3379Z" fill="white"/>
</g>
<path d="M284.54 57.8799C284.32 57.8799 284.108 57.7862 283.959 57.6132C283.619 57.2171 283.299 56.7936 283.007 56.3538C282.864 56.138 282.726 55.9158 282.597 55.6946C282.329 55.232 282.087 54.7467 281.88 54.2531C279.526 48.6586 281.49 42.1589 286.549 38.7962C291.609 35.4335 298.356 36.1455 302.592 40.4871C302.966 40.8705 303.319 41.2821 303.641 41.71C303.795 41.9131 303.946 42.1262 304.089 42.342C304.381 42.7818 304.646 43.2416 304.878 43.7087C305.017 43.9892 304.972 44.3261 304.764 44.5601C302.99 46.5461 299.477 49.3625 295.368 52.0942C291.259 54.825 287.302 56.9721 284.785 57.8372C284.706 57.8663 284.622 57.8799 284.54 57.8799ZM293.549 38.2134C291.419 38.2134 289.275 38.8226 287.396 40.0719C282.948 43.0276 281.221 48.7424 283.29 53.6585C283.473 54.092 283.685 54.519 283.921 54.9261C284.034 55.1218 284.155 55.3167 284.281 55.5061C284.44 55.7465 284.61 55.9814 284.787 56.2081C287.182 55.2876 290.842 53.2661 294.524 50.8185C298.207 48.3709 301.49 45.7794 303.266 43.9273C303.126 43.676 302.975 43.4292 302.816 43.1888C302.69 42.9985 302.558 42.8118 302.422 42.6324C302.138 42.2546 301.828 41.8931 301.5 41.5571C299.349 39.3535 296.462 38.2134 293.549 38.2134Z" fill="#371A45"/>
<path d="M365.701 95.8962C364.298 96.9434 363.126 96.0884 358.086 96.4854C357.264 96.5509 354.175 97.0153 353.179 95.8043C352.726 95.2543 352.649 94.4411 352.736 93.6316C352.886 92.233 353.518 90.8453 353.518 90.8453C353.518 90.8453 352.19 90.6313 351.659 88.7109C351.133 86.8024 353.381 83.1246 353.381 83.1246C353.381 83.1246 353.858 69.2365 352.025 59.7475L350.33 57.6131L341.041 45.9214L355.179 48.3016C355.179 48.3016 355.359 48.5593 355.677 49.0547C356.176 49.8241 357.01 51.1672 358.024 52.9938C361.507 59.2676 367.109 71.2407 368.421 85.2471C368.657 87.7685 368.972 93.4586 365.701 95.8962Z" fill="white"/>
<g opacity="0.35">
<path d="M368.328 90.9116C368 92.8484 367.255 94.7387 365.702 95.8961C364.299 96.9432 363.127 96.0882 358.087 96.4852C357.265 96.5508 354.176 97.0152 353.18 95.8041C352.727 95.2541 352.65 94.441 352.737 93.6315C352.887 92.2328 353.519 90.8451 353.519 90.8451C353.519 90.8451 352.191 90.6312 351.661 88.7108C351.379 87.6937 351.886 86.1766 352.421 84.9792C352.386 85.3471 352.399 85.6931 352.483 85.9927C353.014 87.9131 354.341 88.1271 354.341 88.1271C354.341 88.1271 353.708 89.5139 353.559 90.9134C353.474 91.7229 354.272 90.0912 354.295 90.8033C354.4 94.1888 358.087 93.8327 358.91 93.7672C363.949 93.3692 365.121 94.2252 366.525 93.178C367.321 92.5843 367.904 91.7994 368.328 90.9116Z" fill="#371A45"/>
</g>
<path d="M352.273 59.7001C352.443 60.1672 352.589 60.6416 352.729 61.1178L352.832 61.4757C352.864 61.595 352.89 61.7161 352.92 61.8363C352.978 62.0766 353.032 62.3179 353.087 62.5592C353.14 62.8005 353.192 63.0428 353.242 63.285C353.269 63.4061 353.288 63.5272 353.309 63.6492L353.371 64.0143C353.412 64.2575 353.45 64.5015 353.489 64.7455L353.544 65.1116C353.562 65.2336 353.581 65.3556 353.594 65.4776C353.841 67.4335 353.993 69.3976 354.075 71.3626L354.121 72.8359L354.132 73.2047L354.138 73.5735L354.151 74.3102L354.165 75.0468L354.172 75.7835L354.18 76.5201C354.185 76.766 354.183 77.0109 354.185 77.2568C354.187 77.7476 354.194 78.2384 354.192 78.7292C354.192 79.22 354.193 79.7108 354.188 80.2016L354.182 80.9382L354.171 81.6749C354.163 82.1675 354.152 82.6555 354.137 83.1536C354.134 83.2838 354.096 83.4049 354.034 83.5097L354.026 83.5242L353.963 83.6317L353.896 83.7455C353.853 83.822 353.809 83.9003 353.766 83.9786C353.68 84.1352 353.596 84.2927 353.515 84.4521C353.351 84.7699 353.199 85.0922 353.057 85.4173C352.916 85.7424 352.785 86.0693 352.675 86.3971C352.564 86.7249 352.472 87.0527 352.411 87.3723C352.349 87.691 352.325 88.0024 352.347 88.2674C352.358 88.3293 352.361 88.3967 352.377 88.4495L352.386 88.4923C352.388 88.4996 352.388 88.506 352.391 88.5141L352.4 88.5415L352.435 88.6526C352.459 88.7263 352.48 88.8019 352.511 88.8693L352.554 88.974C352.567 89.0086 352.581 89.045 352.599 89.076C352.725 89.3437 352.887 89.575 353.078 89.7544C353.172 89.8463 353.276 89.9219 353.381 89.9829L353.42 90.0066C353.434 90.0139 353.447 90.0193 353.46 90.0266L353.501 90.0466C353.513 90.053 353.527 90.0576 353.54 90.063C353.566 90.0749 353.59 90.0822 353.614 90.0913C353.626 90.0949 353.634 90.0967 353.644 90.1004C353.651 90.1022 353.651 90.1022 353.652 90.1022L353.647 90.1013L353.637 90.0995L354.206 91.1648L354.162 91.2686L354.115 91.3834C354.084 91.4608 354.053 91.5382 354.024 91.6174C353.964 91.7749 353.909 91.9343 353.856 92.0936C353.804 92.2539 353.756 92.4141 353.712 92.5753C353.67 92.7365 353.629 92.8976 353.596 93.0579C353.527 93.3793 353.483 93.698 353.467 94.0049C353.461 94.157 353.46 94.3081 353.472 94.4493C353.475 94.5221 353.488 94.5886 353.496 94.6569C353.501 94.6906 353.509 94.7215 353.515 94.7543L353.524 94.8026C353.528 94.818 353.532 94.8326 353.537 94.8481C353.566 94.9737 353.613 95.0775 353.662 95.1732C353.676 95.1959 353.689 95.2178 353.702 95.2414C353.717 95.2615 353.732 95.2806 353.746 95.3015C353.76 95.3243 353.775 95.3371 353.79 95.3525C353.797 95.3598 353.803 95.3689 353.811 95.3762L353.837 95.399C353.905 95.46 353.997 95.521 354.107 95.5747C354.22 95.6275 354.348 95.6731 354.487 95.7113C354.765 95.7869 355.079 95.8306 355.402 95.8524C355.564 95.8634 355.729 95.8679 355.896 95.8707C356.063 95.8716 356.231 95.8688 356.401 95.8625C356.741 95.8488 357.083 95.8233 357.432 95.7896L357.698 95.7632L357.977 95.7359L358.529 95.6949C359.262 95.6476 359.997 95.6175 360.732 95.6148C361.1 95.613 361.468 95.6175 361.834 95.6266C362.2 95.6357 362.565 95.6512 362.922 95.6649C363.279 95.6785 363.629 95.6913 363.948 95.6822C364.107 95.6767 364.258 95.6658 364.396 95.6457C364.534 95.6257 364.658 95.5957 364.772 95.5529C364.888 95.511 364.997 95.4563 365.107 95.3853L365.149 95.3598L365.191 95.3298C365.219 95.3097 365.245 95.2934 365.276 95.2669L365.456 95.1222L365.502 95.0857L365.545 95.0457L365.629 94.9665C365.686 94.9136 365.744 94.8636 365.796 94.8044L365.956 94.635L366.105 94.4538C366.13 94.4228 366.156 94.3946 366.179 94.3627L366.248 94.2671L366.317 94.1715C366.341 94.1397 366.363 94.1078 366.384 94.0741L366.513 93.8729C366.535 93.8401 366.553 93.8046 366.574 93.7691L366.633 93.6643L366.692 93.5596C366.711 93.5241 366.728 93.4877 366.746 93.4513L366.855 93.2336C366.918 93.0834 366.989 92.9368 367.045 92.7811C367.285 92.1692 367.45 91.5136 367.569 90.8452C367.625 90.5092 367.672 90.1714 367.707 89.829C367.74 89.4866 367.767 89.1434 367.78 88.7964C367.81 88.1044 367.801 87.4069 367.767 86.7076C367.75 86.3579 367.725 86.0074 367.695 85.6568C367.668 85.3062 367.624 84.9511 367.587 84.5969L367.472 83.5351L367.458 83.4022L367.44 83.2702L367.403 83.0052L367.33 82.4762L367.258 81.9471L367.222 81.6821L367.204 81.5501L367.183 81.4181L367.01 80.3636C366.903 79.6598 366.757 78.9614 366.627 78.2611L366.577 77.9989L366.552 77.8678L366.523 77.7375L366.411 77.2149L366.184 76.1695C366.104 75.8226 366.018 75.4766 365.935 75.1297L365.809 74.6097L365.747 74.3502L365.678 74.0916L365.404 73.0581C365.357 72.886 365.315 72.713 365.264 72.5418L365.116 72.0283L364.819 71.0002L364.501 69.9786L364.342 69.4677L364.302 69.3403L364.259 69.2137L364.175 68.9596L363.836 67.9444C363.781 67.775 363.721 67.6065 363.661 67.439L363.482 66.9345C363.361 66.5985 363.247 66.2607 363.118 65.9274L362.741 64.9249C362.679 64.7574 362.613 64.5916 362.547 64.4259L362.351 63.9278C362.093 63.2622 361.812 62.6057 361.54 61.9455C361.255 61.2908 360.977 60.6334 360.679 59.9851C360.389 59.3331 360.081 58.6884 359.775 58.0428L359.306 57.0803C359.148 56.7607 358.985 56.4429 358.825 56.1233C358.176 54.8513 357.499 53.5947 356.79 52.3572C356.433 51.7399 356.073 51.1252 355.7 50.5197C355.608 50.3676 355.514 50.2174 355.419 50.0662C355.325 49.9151 355.23 49.7657 355.134 49.6164C355.04 49.4662 354.942 49.3186 354.846 49.1711C354.75 49.0254 354.649 48.8743 354.557 48.7395L355.053 49.0546L351.518 48.46C350.339 48.2633 349.156 48.0994 347.975 47.9164C346.794 47.7333 345.62 47.5112 344.453 47.2462C343.87 47.1114 343.289 46.9603 342.713 46.7854C342.424 46.6989 342.137 46.6061 341.851 46.5059C341.566 46.4048 341.28 46.2992 340.998 46.1744C340.866 46.1162 340.806 45.9623 340.864 45.8302C340.904 45.7401 340.99 45.6827 341.082 45.6755C341.389 45.65 341.693 45.6427 341.996 45.6418C342.299 45.6408 342.601 45.6463 342.902 45.6591C343.504 45.6827 344.102 45.7301 344.697 45.7938C345.886 45.9259 347.068 46.1007 348.244 46.3138C349.42 46.5277 350.592 46.7599 351.77 46.9603L355.305 47.5558L355.31 47.5567C355.517 47.5913 355.691 47.7106 355.802 47.8708C355.913 48.032 356.011 48.1813 356.114 48.3361C356.214 48.49 356.315 48.643 356.412 48.7969C356.511 48.9508 356.609 49.1047 356.705 49.2595C356.802 49.4143 356.899 49.5681 356.993 49.7238C357.375 50.3439 357.742 50.9713 358.106 51.6005C358.829 52.8617 359.518 54.1401 360.178 55.4331C360.838 56.7252 361.465 58.0355 362.062 59.3586C362.365 60.0178 362.647 60.6862 362.938 61.3518C363.214 62.0229 363.5 62.6904 363.762 63.3669L363.962 63.8732C364.028 64.0417 364.096 64.2101 364.159 64.3804L364.542 65.4002C364.672 65.739 364.79 66.0832 364.912 66.4246L365.094 66.9382C365.155 67.1094 365.217 67.2796 365.273 67.4527L365.617 68.4862L365.704 68.7448L365.747 68.8741L365.788 69.0043L365.949 69.5242L366.273 70.565L366.576 71.6121L366.727 72.1357C366.778 72.3105 366.822 72.4863 366.869 72.662L367.149 73.7156L367.219 73.9787L367.283 74.2437L367.411 74.7736C367.496 75.1269 367.584 75.4802 367.665 75.8345L367.896 76.9007L368.012 77.4334L368.041 77.5664L368.066 77.7002L368.117 77.9679C368.251 78.6827 368.399 79.3948 368.508 80.115L368.685 81.1923L368.707 81.327L368.725 81.4618L368.762 81.7322L368.836 82.2731L368.91 82.814L368.947 83.0844L368.965 83.2192L368.981 83.3549L369.098 84.4403C369.136 84.8027 369.18 85.1623 369.209 85.5293C369.24 85.8954 369.265 86.2641 369.284 86.6329C369.321 87.3714 369.33 88.1153 369.298 88.862C369.284 89.2353 369.255 89.6096 369.219 89.9838C369.182 90.3581 369.129 90.7332 369.066 91.1075C368.932 91.855 368.747 92.6044 368.461 93.3329C368.395 93.5159 368.31 93.6953 368.233 93.8756L368.101 94.1415C368.078 94.1861 368.058 94.2307 368.034 94.2744L367.961 94.4046L367.887 94.5348C367.863 94.5786 367.839 94.6223 367.811 94.6641L367.649 94.9182C367.622 94.961 367.593 95.002 367.563 95.0429L367.474 95.1659L367.385 95.2888C367.356 95.3298 367.321 95.368 367.289 95.4072C367.225 95.4855 367.16 95.5647 367.095 95.6421L366.885 95.8661C366.816 95.9426 366.74 96.0109 366.664 96.081L366.552 96.1857L366.495 96.2376L366.435 96.2859L366.194 96.4789C366.156 96.5108 366.108 96.5436 366.062 96.5754L365.993 96.6237L365.92 96.6701C365.728 96.7931 365.514 96.9014 365.291 96.9825C365.068 97.0644 364.84 97.1172 364.622 97.1491C364.404 97.1819 364.196 97.1955 363.995 97.2019C363.596 97.2128 363.227 97.1973 362.865 97.1846C362.503 97.1709 362.149 97.1564 361.796 97.1473C361.443 97.1382 361.092 97.1345 360.74 97.1363C360.037 97.1382 359.334 97.1673 358.63 97.2128L358.106 97.2511L357.577 97.303C357.21 97.3385 356.835 97.3676 356.457 97.3822C356.267 97.3895 356.076 97.3922 355.883 97.3913C355.69 97.3886 355.495 97.3831 355.299 97.3695C354.905 97.3412 354.503 97.2902 354.086 97.1773C353.878 97.119 353.666 97.0462 353.452 96.946C353.239 96.8431 353.023 96.7102 352.824 96.5308L352.749 96.4634C352.725 96.4398 352.702 96.4133 352.678 96.3888C352.632 96.3378 352.584 96.2868 352.547 96.2349C352.508 96.183 352.47 96.1302 352.433 96.0774C352.4 96.0227 352.367 95.9681 352.335 95.9125C352.215 95.6913 352.123 95.46 352.068 95.2351C352.06 95.2069 352.052 95.1786 352.045 95.1504L352.028 95.0666C352.017 95.0111 352.005 94.9546 351.996 94.8991C351.981 94.7889 351.964 94.6778 351.959 94.5704C351.94 94.3527 351.942 94.1433 351.95 93.9357C351.971 93.5241 352.028 93.1271 352.111 92.7447C352.191 92.3613 352.294 91.9898 352.413 91.6247C352.473 91.4425 352.535 91.2623 352.603 91.0829C352.636 90.9927 352.672 90.9035 352.707 90.8143L352.763 90.6795L352.792 90.6112L352.825 90.5365L353.394 91.6019L353.367 91.5973L353.342 91.5928L353.311 91.5855C353.291 91.581 353.269 91.5755 353.252 91.5709C353.218 91.5609 353.181 91.5509 353.148 91.5409C353.085 91.519 353.02 91.4972 352.961 91.4717C352.931 91.4589 352.901 91.4471 352.872 91.4334L352.786 91.3916C352.758 91.377 352.729 91.3642 352.702 91.3488L352.621 91.3023C352.405 91.1776 352.208 91.0301 352.035 90.8625C351.684 90.532 351.418 90.1386 351.227 89.7334C351.2 89.6833 351.18 89.6323 351.159 89.5804L351.096 89.4265C351.052 89.3246 351.021 89.2208 350.988 89.117L350.939 88.9612L350.927 88.9221C350.923 88.9084 350.92 88.8911 350.916 88.8766L350.894 88.7828C350.862 88.6562 350.852 88.5369 350.834 88.4149C350.83 88.3557 350.827 88.2974 350.823 88.2382L350.819 88.1499V88.0643L350.821 87.8931L350.832 87.7274L350.837 87.6446L350.846 87.5635L350.865 87.4023C350.882 87.2967 350.898 87.192 350.917 87.0891C350.996 86.6784 351.107 86.2887 351.235 85.9108C351.362 85.5329 351.507 85.1687 351.663 84.8109C351.819 84.453 351.986 84.1033 352.162 83.7601C352.251 83.588 352.341 83.4168 352.434 83.2474C352.481 83.1627 352.528 83.078 352.577 82.9934L352.651 82.8659L352.73 82.7329L352.619 83.1035C352.634 82.6246 352.644 82.1365 352.653 81.6512L352.663 80.9218L352.669 80.1924C352.675 79.7062 352.674 79.22 352.673 78.7328C352.675 78.2466 352.667 77.7603 352.663 77.2732C352.636 75.3273 352.554 73.3832 352.447 71.4428L352.362 69.9886L352.342 69.6253C352.336 69.5042 352.329 69.3831 352.32 69.262L352.272 68.5353C352.24 68.0518 352.221 67.5656 352.182 67.083C352.147 66.5994 352.116 66.1159 352.085 65.6315C352.08 65.5104 352.067 65.3902 352.059 65.2691L352.031 64.9067C352.014 64.6654 351.998 64.4232 351.983 64.181L351.962 63.8177C351.955 63.6966 351.952 63.5745 351.941 63.4543C351.924 63.213 351.908 62.9708 351.893 62.7286C351.88 62.4864 351.866 62.2433 351.856 62.0002L351.84 61.635L351.818 61.2708C351.791 60.7845 351.769 60.2956 351.772 59.8002V59.7902C351.773 59.6491 351.888 59.5343 352.03 59.5352C352.144 59.5325 352.238 59.6026 352.273 59.7001Z" fill="#371A45"/>
<g opacity="0.35">
<path d="M358.024 52.9945C357.671 53.2986 357.309 53.59 356.94 53.8741C354.935 55.4148 352.713 56.6805 350.329 57.6138C346.909 58.9569 343.158 59.618 339.25 59.4404C332.995 59.1563 327.335 56.766 322.916 52.9854C323.329 51.5066 323.717 50.0297 324.066 48.5563C328.223 38.9653 353.329 42.8307 354.585 45.9221C354.962 46.8518 355.327 47.9026 355.677 49.0563C356.176 49.8248 357.01 51.1679 358.024 52.9945Z" fill="#371A45"/>
</g>
<path d="M366.876 36.0698C366.572 36.078 366.319 35.8367 366.311 35.5325L365.904 19.6522C365.896 19.3481 366.137 19.0949 366.441 19.0867C369.632 19.0048 372.286 21.528 372.368 24.7222L372.506 30.1374C372.588 33.3326 370.067 35.9878 366.876 36.0698Z" fill="white"/>
<path d="M366.861 36.2063C366.49 36.2063 366.185 35.9095 366.175 35.5361L365.768 19.6549C365.763 19.4709 365.831 19.297 365.956 19.1632C366.083 19.0302 366.254 18.9537 366.437 18.9492C368.016 18.9082 369.518 19.4864 370.663 20.5755C371.808 21.6654 372.462 23.136 372.502 24.7176L372.641 30.1328C372.681 31.7145 372.104 33.2169 371.016 34.3633C369.927 35.5106 368.458 36.1644 366.878 36.2045C366.873 36.2063 366.867 36.2063 366.861 36.2063ZM366.872 35.9341C368.38 35.8958 369.781 35.2712 370.819 34.1776C371.857 33.084 372.409 31.6498 372.369 30.1419L372.231 24.7268C372.193 23.2179 371.569 21.8147 370.476 20.7758C369.384 19.7368 367.953 19.1859 366.445 19.2242C366.334 19.2269 366.231 19.2724 366.155 19.3535C366.078 19.4336 366.038 19.5392 366.041 19.6503L366.447 35.5307C366.453 35.7583 366.643 35.9395 366.872 35.9341Z" fill="#371A45"/>
<g opacity="0.35">
<path d="M372.44 27.5989L372.506 30.1385C372.587 33.3318 370.067 35.988 366.875 36.0717C366.571 36.0799 366.318 35.8377 366.31 35.5336L366.201 31.3122C366.291 31.5025 366.487 31.63 366.71 31.6263L367.087 31.6154C369.608 31.5508 371.712 29.8771 372.44 27.5989Z" fill="#371A45"/>
</g>
<path d="M366.861 36.8294C366.154 36.8294 365.571 36.263 365.552 35.5519L365.145 19.6706C365.136 19.3209 365.265 18.9877 365.505 18.7345C365.746 18.4805 366.071 18.3357 366.421 18.3266C368.167 18.282 369.826 18.9203 371.092 20.1241C372.358 21.3278 373.081 22.9541 373.125 24.7015L373.263 30.1167C373.308 31.864 372.67 33.5249 371.468 34.7924C370.265 36.06 368.64 36.7829 366.895 36.8276C366.884 36.8294 366.872 36.8294 366.861 36.8294ZM366.667 19.8445L367.063 35.3014C368.325 35.2177 369.492 34.6713 370.368 33.748C371.292 32.7746 371.782 31.4989 371.747 30.1567L371.609 24.7416C371.574 23.3994 371.02 22.151 370.048 21.2258C369.125 20.3499 367.932 19.8636 366.667 19.8445Z" fill="#371A45"/>
<path d="M314.073 20.4306C314.377 20.4224 314.63 20.6637 314.638 20.9679L315.045 36.8482C315.053 37.1523 314.812 37.4055 314.508 37.4137C311.317 37.4956 308.663 34.9724 308.582 31.7782L308.443 26.363C308.36 23.1687 310.881 20.5126 314.073 20.4306Z" fill="white"/>
<path d="M314.356 37.5522C312.833 37.5522 311.393 36.9777 310.285 35.9232C309.14 34.8333 308.486 33.3627 308.446 31.781L308.307 26.3659C308.223 23.1015 310.809 20.377 314.07 20.2933C314.449 20.2833 314.765 20.5837 314.775 20.9635L315.181 36.8438C315.191 37.2226 314.891 37.5395 314.512 37.5495C314.46 37.5513 314.407 37.5522 314.356 37.5522ZM314.077 20.5674C310.966 20.6475 308.5 23.2453 308.58 26.3595L308.719 31.7747C308.757 33.2835 309.381 34.6867 310.474 35.7256C311.566 36.7646 312.998 37.3155 314.505 37.2772C314.734 37.2718 314.915 37.0806 314.909 36.852L314.503 20.9716C314.5 20.8606 314.455 20.7577 314.374 20.6812C314.294 20.6047 314.188 20.5646 314.077 20.5674Z" fill="#371A45"/>
<g opacity="0.35">
<path d="M314.933 32.4431L315.045 36.8484C315.053 37.1525 314.811 37.4057 314.507 37.4139C312.832 37.4558 311.303 36.7819 310.219 35.6674C309.239 34.6612 308.621 33.2954 308.582 31.7784L308.523 29.4965C309.48 31.4751 311.534 32.8182 313.874 32.7581L314.453 32.7436C314.665 32.739 314.841 32.617 314.933 32.4431Z" fill="#371A45"/>
</g>
<path d="M314.355 38.1749C312.672 38.1749 311.08 37.5393 309.856 36.3747C308.59 35.1709 307.867 33.5447 307.823 31.7973L307.684 26.3821C307.591 22.7744 310.448 19.7641 314.052 19.6712C314.776 19.653 315.377 20.2257 315.395 20.9478L315.802 36.8282C315.82 37.5503 315.248 38.154 314.526 38.1722C314.47 38.174 314.413 38.1749 314.355 38.1749ZM313.885 21.1991C311.215 21.3767 309.132 23.6422 309.201 26.3439L309.34 31.759C309.375 33.1012 309.929 34.3496 310.901 35.2747C311.824 36.1516 313.017 36.6379 314.281 36.657L313.885 21.1991Z" fill="#371A45"/>
<path d="M340.477 55.3212C355.414 55.3212 367.522 43.201 367.522 28.25C367.522 13.2989 355.414 1.17871 340.477 1.17871C325.541 1.17871 313.433 13.2989 313.433 28.25C313.433 43.201 325.541 55.3212 340.477 55.3212Z" fill="white"/>
<path d="M340.509 55.4589C340.088 55.4589 339.667 55.4489 339.245 55.4297C335.579 55.2631 332.056 54.3826 328.773 52.8137C325.602 51.2976 322.786 49.206 320.406 46.5972C318.026 43.9875 316.2 40.9926 314.979 37.6936C313.715 34.2781 313.159 30.6859 313.326 27.0172C313.492 23.3476 314.372 19.821 315.939 16.5347C317.454 13.3605 319.543 10.5422 322.149 8.16019C324.757 5.77723 327.749 3.94971 331.044 2.72773C334.456 1.46295 338.045 0.905677 341.71 1.07231C345.376 1.23895 348.899 2.11947 352.182 3.68838C355.354 5.20448 358.169 7.29606 360.549 9.90485C362.929 12.5145 364.755 15.5094 365.976 18.8084C367.24 22.224 367.796 25.8162 367.63 29.4848C367.463 33.1544 366.584 36.6811 365.016 39.9673C363.502 43.1416 361.412 45.9598 358.806 48.3418C356.199 50.7248 353.207 52.5523 349.911 53.7743C346.893 54.8934 343.735 55.4589 340.509 55.4589ZM340.449 1.31543C333.723 1.31543 327.332 3.79128 322.333 8.36143C317.025 13.212 313.922 19.8419 313.597 27.029C313.271 34.2162 315.761 41.1001 320.607 46.4133C325.453 51.7264 332.077 54.8315 339.257 55.1575C339.674 55.1766 340.091 55.1857 340.506 55.1857C347.231 55.1857 353.623 52.7099 358.621 48.1397C363.929 43.2882 367.031 36.6583 367.357 29.4712C367.683 22.2841 365.193 15.4001 360.347 10.087C355.501 4.77378 348.878 1.66965 341.698 1.34366C341.28 1.32454 340.863 1.31543 340.449 1.31543Z" fill="#371A45"/>
<g opacity="0.35">
<path d="M367.405 25.7222C367.522 26.9524 367.552 28.2063 367.495 29.4774C366.816 44.4126 354.172 55.9705 339.251 55.2939C324.33 54.6146 312.784 41.9577 313.459 27.0234C313.478 26.5936 313.508 26.1648 313.548 25.7423C314.772 38.9892 325.597 49.6375 339.249 50.2585C353.741 50.915 366.082 40.0328 367.405 25.7222Z" fill="#371A45"/>
</g>
<path d="M340.51 56.0815C340.08 56.0815 339.649 56.0715 339.217 56.0524C335.468 55.8821 331.864 54.9816 328.505 53.3762C325.261 51.8255 322.382 49.6866 319.946 47.0177C317.512 44.3488 315.644 41.2848 314.396 37.9102C313.103 34.4163 312.533 30.7422 312.704 26.9888C312.874 23.2363 313.773 19.6287 315.377 16.2659C316.926 13.0188 319.063 10.1369 321.729 7.69928C324.396 5.26259 327.457 3.39228 330.828 2.14298C334.318 0.848145 337.989 0.278128 341.739 0.448404C345.487 0.618681 349.092 1.51924 352.451 3.12457C355.695 4.67527 358.574 6.8142 361.009 9.48309C363.444 12.152 365.312 15.216 366.56 18.5906C367.853 22.0845 368.422 25.7586 368.252 29.512C368.082 33.2645 367.182 36.8721 365.579 40.2349C364.029 43.482 361.893 46.3639 359.226 48.8015C356.56 51.2382 353.499 53.1085 350.128 54.3578C347.039 55.5033 343.809 56.0815 340.51 56.0815ZM340.449 1.9381C333.878 1.9381 327.636 4.35748 322.752 8.8211C317.567 13.5606 314.537 20.0366 314.218 27.058C313.9 34.0785 316.332 40.804 321.066 45.9933C325.8 51.1827 332.271 54.2167 339.285 54.5354C339.693 54.5536 340.1 54.5627 340.506 54.5627C347.077 54.5627 353.319 52.1433 358.203 47.6797C363.388 42.9402 366.418 36.4642 366.737 29.4428C367.055 22.4223 364.623 15.6968 359.889 10.5075C355.154 5.31723 348.684 2.28411 341.67 1.96541C341.262 1.9472 340.854 1.9381 340.449 1.9381Z" fill="#371A45"/>
<path d="M340.51 56.0815C340.08 56.0815 339.649 56.0715 339.217 56.0524C335.468 55.8821 331.864 54.9816 328.505 53.3762C325.261 51.8255 322.382 49.6866 319.946 47.0177C317.512 44.3488 315.644 41.2848 314.396 37.9102C313.103 34.4163 312.533 30.7422 312.704 26.9888C312.874 23.2363 313.773 19.6287 315.377 16.2659C316.926 13.0188 319.063 10.1369 321.729 7.69928C324.396 5.26259 327.457 3.39228 330.828 2.14298C334.318 0.848145 337.989 0.278128 341.739 0.448404C345.487 0.618681 349.092 1.51924 352.451 3.12457C355.695 4.67527 358.574 6.8142 361.009 9.48309C363.444 12.152 365.312 15.216 366.56 18.5906C367.853 22.0845 368.422 25.7586 368.252 29.512C368.082 33.2645 367.182 36.8721 365.579 40.2349C364.029 43.482 361.893 46.3639 359.226 48.8015C356.56 51.2382 353.499 53.1085 350.128 54.3578C347.039 55.5033 343.809 56.0815 340.51 56.0815ZM340.449 1.9381C333.878 1.9381 327.636 4.35748 322.752 8.8211C317.567 13.5606 314.537 20.0366 314.218 27.058C313.9 34.0785 316.332 40.804 321.066 45.9933C325.8 51.1827 332.271 54.2167 339.285 54.5354C339.693 54.5536 340.1 54.5627 340.506 54.5627C347.077 54.5627 353.319 52.1433 358.203 47.6797C363.388 42.9402 366.418 36.4642 366.737 29.4428C367.055 22.4223 364.623 15.6968 359.889 10.5075C355.154 5.31723 348.684 2.28411 341.67 1.96541C341.262 1.9472 340.854 1.9381 340.449 1.9381Z" fill="#371A45"/>
<path d="M367.486 29.7614C367.326 35.0564 365.46 39.9206 362.401 43.8989C360.107 46.8819 350.895 51.9438 339.716 51.7061C329.351 51.4858 320.09 45.67 317.98 42.554C315.167 38.3981 313.599 33.4301 313.759 28.1351C314.183 14.1232 326.385 8.67895 341.222 9.12786C356.059 9.57677 367.91 15.7495 367.486 29.7614Z" fill="#371A45"/>
<path d="M340.376 52.6814C340.116 52.6814 339.856 52.6787 339.593 52.6732C333.669 52.5467 328.604 50.6754 325.398 49.1275C321.76 47.371 318.624 45.0736 317.405 43.2752C314.422 38.8681 312.929 33.7671 313.087 28.5249C313.193 25.0447 314.02 21.9469 315.546 19.3163C316.982 16.8405 319.047 14.7616 321.68 13.1381C326.488 10.1742 333.213 8.73456 341.127 8.97495C349.042 9.21443 355.667 11.0592 360.288 14.3082C362.818 16.0883 364.752 18.2874 366.037 20.8461C367.401 23.5641 368.04 26.7074 367.935 30.1867C367.777 35.4298 365.979 40.4306 362.734 44.6493C361.384 46.4049 358.225 48.4309 354.489 49.9388C351.346 51.2054 346.393 52.6814 340.376 52.6814ZM339.442 10.0695C332.466 10.0695 326.555 11.4499 322.269 14.0924C317.114 17.2693 314.403 22.1372 314.208 28.5586C314.057 33.564 315.483 38.4356 318.334 42.646C319.181 43.8962 321.666 46.0798 325.885 48.1176C328.991 49.6174 333.894 51.4312 339.618 51.5523C345.798 51.6844 350.889 50.181 354.071 48.8971C358.333 47.1779 360.924 45.1647 361.847 43.9636C364.946 39.9334 366.665 35.1566 366.816 30.1512C367.01 23.7298 364.598 18.7071 359.645 15.2233C355.204 12.1009 348.79 10.3271 341.094 10.094C340.538 10.0777 339.986 10.0695 339.442 10.0695Z" fill="#371A45"/>
<g opacity="0.5">
<path d="M362.096 28.7257C362.645 26.1379 361.573 23.7168 359.699 23.3181C357.826 22.9193 355.862 24.6939 355.312 27.2817C354.762 29.8695 355.835 32.2905 357.708 32.6893C359.582 33.088 361.546 31.3134 362.096 28.7257Z" fill="white"/>
</g>
<g opacity="0.5">
<path d="M355.938 38.001C356.352 36.8593 355.894 35.6458 354.915 35.2903C353.937 34.9349 352.808 35.5722 352.394 36.7139C351.981 37.8555 352.438 39.0691 353.417 39.4245C354.395 39.7799 355.524 39.1426 355.938 38.001Z" fill="white"/>
</g>
<g opacity="0.35">
<path d="M362.547 16.9379C365.736 20.1741 367.545 24.5394 367.376 30.1676C367.216 35.4635 365.349 40.3268 362.292 44.306C359.998 47.2882 350.785 52.3509 339.606 52.1142C335.658 52.0313 331.872 51.1353 328.579 49.8851C342.327 49.8833 353.55 43.6668 356.395 39.9681C360.278 34.919 362.646 28.7453 362.848 22.0262C362.903 20.2296 362.796 18.5351 362.547 16.9379Z" fill="#111A28"/>
</g>
<path d="M365.438 18.4841C365.278 18.4841 365.119 18.4276 364.991 18.3138L364.925 18.2555L364.875 18.1818C360.512 11.6484 351.819 7.71294 341.025 7.38604C330.172 7.05733 321.263 10.5785 316.581 17.0454L316.562 17.0709L316.536 17.1018C316.289 17.3796 315.865 17.4041 315.587 17.1574C315.32 16.9197 315.287 16.5163 315.505 16.2386C316.771 14.4949 318.333 12.9342 320.147 11.6002C321.913 10.3017 323.934 9.20718 326.153 8.3467C328.326 7.50442 330.703 6.88068 333.219 6.4946C335.711 6.11125 338.351 5.95918 341.066 6.04113C346.426 6.20321 351.495 7.28224 355.724 9.16075C357.899 10.1269 359.865 11.3051 361.567 12.6628C363.316 14.0587 364.798 15.6531 365.972 17.4023C366.164 17.6536 366.158 18.0133 365.941 18.2583C365.807 18.4076 365.622 18.4841 365.438 18.4841Z" fill="#371A45"/>
<g opacity="0.5">
<path d="M319.43 37.0596C319.43 37.0596 315.512 23.1051 323.121 17.822C330.731 12.5388 341.437 12.8858 341.165 13.565C341.165 13.565 329.225 16.0782 324.303 25.3187C320.508 32.4439 319.43 37.0596 319.43 37.0596Z" fill="white"/>
</g>
<path d="M353.246 71.6067C353.026 71.6067 352.817 71.4755 352.727 71.2588C352.61 70.9729 352.746 70.6451 353.032 70.5267C353.11 70.4948 354.971 69.7345 357.455 69.2783C358.922 69.0088 360.303 68.9041 361.558 68.9651C363.154 69.0434 364.555 69.394 365.721 70.0059C365.995 70.1497 366.101 70.4885 365.957 70.7626C365.813 71.0366 365.475 71.1423 365.201 70.9984C362.873 69.7773 359.826 69.9867 357.679 70.3783C355.305 70.8108 353.477 71.5566 353.459 71.5648C353.39 71.593 353.317 71.6067 353.246 71.6067Z" fill="#371A45"/>
<path d="M354.561 87.8003C354.573 87.8786 354.582 87.9478 354.591 88.0206C354.599 88.0926 354.607 88.1645 354.613 88.2365C354.627 88.3803 354.637 88.5242 354.643 88.669C354.656 88.9585 354.656 89.2499 354.641 89.544C354.621 89.8391 354.587 90.1368 354.527 90.4373C354.461 90.7387 354.369 91.0428 354.23 91.347L354.229 91.3479C354.1 91.6302 353.766 91.754 353.484 91.6247C353.202 91.4954 353.079 91.1612 353.208 90.8789C353.221 90.8507 353.238 90.8207 353.255 90.7961C353.382 90.6112 353.492 90.3972 353.585 90.166C353.674 89.9319 353.748 89.6843 353.808 89.4293C353.865 89.1734 353.911 88.9103 353.944 88.6444C353.96 88.5115 353.974 88.3776 353.984 88.2437C353.989 88.1764 353.993 88.1099 353.996 88.0425C354 87.9769 354.002 87.9068 354.004 87.8467V87.8358C354.007 87.681 354.136 87.5581 354.291 87.5617C354.43 87.5645 354.542 87.6674 354.561 87.8003Z" fill="#371A45"/>
<path d="M303.423 76.3962C303.266 76.3297 303.098 76.2887 302.926 76.265C302.754 76.2414 302.579 76.2304 302.402 76.2286C302.227 76.2259 302.048 76.2359 301.872 76.2487C301.694 76.2614 301.517 76.2805 301.341 76.3033C300.987 76.3488 300.635 76.4162 300.284 76.4881C300.108 76.5246 299.933 76.5646 299.76 76.6074C299.673 76.6284 299.586 76.6511 299.5 76.673C299.415 76.6957 299.327 76.7194 299.248 76.7431C299.035 76.8068 298.812 76.6857 298.748 76.4717C298.735 76.4271 298.73 76.3825 298.732 76.3388L298.734 76.2751L298.74 76.1658L298.743 76.052L298.75 75.8234C298.753 75.6713 298.753 75.5193 298.749 75.3681C298.742 75.0658 298.723 74.7653 298.682 74.4785C298.662 74.3346 298.637 74.1953 298.606 74.0624C298.575 73.9303 298.537 73.8047 298.491 73.6991C298.447 73.5943 298.392 73.5097 298.352 73.476C298.333 73.4587 298.32 73.455 298.317 73.4568C298.312 73.4587 298.32 73.465 298.314 73.4678C298.31 73.4687 298.308 73.4687 298.304 73.4687C298.299 73.4696 298.292 73.4705 298.287 73.4714C298.282 73.4714 298.273 73.4732 298.266 73.4751C298.258 73.4769 298.251 73.476 298.242 73.4796C298.224 73.4842 298.206 73.4869 298.185 73.4942C298.165 73.4987 298.143 73.5078 298.12 73.5151C298.031 73.547 297.932 73.5989 297.836 73.6608C297.641 73.7846 297.456 73.9577 297.297 74.1525C297.138 74.3483 297.001 74.5677 296.89 74.8027C296.781 75.0385 296.695 75.2871 296.635 75.5466C296.62 75.6122 296.604 75.6759 296.594 75.7424L296.576 75.8407C296.57 75.8735 296.567 75.9072 296.561 75.9409C296.557 75.9746 296.551 76.0073 296.547 76.041L296.537 76.1421L296.532 76.1922L296.529 76.2177V76.2386L296.527 76.3206C296.521 76.5382 296.557 76.7467 296.63 76.9553C296.651 77.0072 296.671 77.0581 296.694 77.11L296.732 77.1865C296.745 77.212 296.756 77.2384 296.772 77.263C296.803 77.3131 296.828 77.3659 296.863 77.4151L296.912 77.4907C296.928 77.5162 296.949 77.5398 296.967 77.5653C297.114 77.7638 297.291 77.956 297.489 78.1372C297.887 78.4987 298.363 78.8201 298.863 79.0942C298.924 79.1288 298.987 79.1625 299.05 79.1943C299.112 79.2262 299.176 79.2572 299.233 79.2845L299.253 79.2936L299.257 79.2954C299.259 79.2963 299.255 79.2945 299.254 79.2945C299.249 79.2927 299.249 79.2927 299.248 79.2927L299.301 79.3136L299.407 79.3555L299.621 79.4402C299.764 79.4967 299.907 79.5513 300.047 79.6041C300.187 79.6587 300.328 79.7088 300.457 79.7553L300.471 79.7607C300.866 79.9019 301.072 80.3371 300.931 80.7323C300.8 81.0984 300.418 81.3023 300.048 81.2176C299.874 81.1785 299.714 81.1329 299.554 81.0874C299.396 81.041 299.24 80.9918 299.085 80.9426C299.007 80.9171 298.93 80.8935 298.853 80.8662L298.737 80.8261L298.679 80.8051L298.646 80.7924L298.621 80.7824L298.586 80.7687C298.499 80.7323 298.42 80.6977 298.34 80.6604C298.259 80.6239 298.181 80.5866 298.103 80.5475C297.947 80.4701 297.796 80.3872 297.645 80.2998C297.494 80.2133 297.348 80.1195 297.202 80.0221C296.911 79.8263 296.63 79.6096 296.362 79.3637C296.096 79.116 295.842 78.842 295.622 78.526C295.401 78.2118 295.21 77.8558 295.087 77.4624C294.962 77.07 294.913 76.642 294.945 76.2286L294.958 76.0738L294.962 76.0356L294.967 76.0019L294.978 75.9345L295 75.8006C295.008 75.756 295.017 75.7114 295.026 75.6668C295.036 75.6222 295.045 75.5776 295.055 75.5339L295.087 75.4009C295.107 75.3126 295.136 75.2243 295.16 75.1368C295.374 74.4375 295.735 73.7628 296.262 73.2146C296.527 72.9415 296.829 72.6983 297.183 72.5108C297.362 72.417 297.552 72.3377 297.766 72.2831C297.82 72.2704 297.874 72.2567 297.932 72.2476C297.987 72.2367 298.048 72.2303 298.108 72.2248C298.138 72.2212 298.171 72.2212 298.202 72.2203C298.234 72.2194 298.265 72.2185 298.3 72.2203C298.333 72.2221 298.367 72.2239 298.4 72.2267C298.436 72.2312 298.472 72.2367 298.508 72.2431C298.657 72.2685 298.817 72.3296 298.947 72.4142C299.079 72.4989 299.185 72.6027 299.266 72.7065C299.429 72.9169 299.512 73.1217 299.573 73.3139C299.689 73.6981 299.72 74.0496 299.731 74.3929C299.741 74.7362 299.726 75.0686 299.699 75.3982C299.685 75.563 299.667 75.726 299.647 75.889C299.636 75.97 299.626 76.052 299.613 76.133L299.593 76.255L299.571 76.3816L299.057 75.9145C299.157 75.8981 299.247 75.8853 299.342 75.8726C299.436 75.8598 299.528 75.848 299.621 75.8371C299.808 75.8152 299.994 75.797 300.181 75.7806C300.367 75.7642 300.555 75.7533 300.742 75.7469C300.929 75.7396 301.118 75.736 301.305 75.7378C301.681 75.7396 302.059 75.7633 302.436 75.8252C302.624 75.8571 302.812 75.8972 302.995 75.9564C303.179 76.0155 303.361 76.0911 303.526 76.2022C303.576 76.2359 303.588 76.3033 303.556 76.3534C303.526 76.3971 303.47 76.4126 303.423 76.3925V76.3962Z" fill="#371A45"/>
</svg>
