<svg width="32" height="32" viewBox="0 0 32 32" fill="none" xmlns="http://www.w3.org/2000/svg">
<circle cx="16" cy="16" r="16" fill="#9055FA"/>
<path fill-rule="evenodd" clip-rule="evenodd" d="M12.3136 9.33446L12.3314 9.33561C12.6806 9.36456 12.984 9.53812 13.2609 9.80868C13.7871 10.3226 14.9171 11.8224 15.0024 12.2306C15.0968 12.6859 14.9959 12.9817 14.6949 13.5048L14.622 13.6337C14.4839 13.886 14.4628 13.9901 14.5055 14.1094C15.1626 15.7175 16.2839 16.8387 17.8737 17.488C18.0242 17.5425 18.1379 17.5112 18.4561 17.3287L18.6221 17.2348C19.0694 16.9895 19.3529 16.9119 19.771 16.999C20.1777 17.0842 21.6784 18.2149 22.1915 18.7405C22.4617 19.0171 22.6357 19.321 22.666 19.6933C22.6979 20.5981 21.5938 21.8721 20.9203 22.2552C20.1544 22.803 19.1824 22.794 18.0926 22.2867C15.2427 21.1008 10.8833 16.7693 9.72157 13.9229L9.65202 13.7636C9.21089 12.7093 9.22045 11.7984 9.72597 11.1117C10.1872 10.3478 11.4309 9.29364 12.3136 9.33446ZM12.2597 10.3093L12.201 10.3123C11.7479 10.3725 10.8393 11.1547 10.5368 11.6522L10.4845 11.73C10.2238 12.1547 10.254 12.7379 10.6169 13.5364L10.6863 13.6988C11.8566 16.3255 15.9089 20.3214 18.4856 21.3941L18.6275 21.4572C19.373 21.7732 19.9373 21.7592 20.3942 21.4352L20.428 21.4135C20.5694 21.3152 20.8954 21.019 21.1465 20.7292C21.4993 20.3222 21.699 19.9493 21.6926 19.7508C21.6855 19.6658 21.62 19.5514 21.4938 19.4221C21.1123 19.0314 19.7249 17.986 19.5716 17.9539C19.4266 17.9237 19.3076 17.9643 18.9821 18.1515L18.8184 18.2435C18.3389 18.502 18.0009 18.5715 17.5234 18.3982C15.6727 17.6428 14.3589 16.3292 13.5955 14.4599C13.4147 13.96 13.512 13.6064 13.8265 13.0584L13.9014 12.9266C14.0442 12.6687 14.0744 12.5593 14.0475 12.4294C14.0153 12.2753 12.9706 10.8887 12.5794 10.5066C12.4498 10.38 12.336 10.3149 12.2508 10.3078L12.2597 10.3093Z" fill="white"/>
</svg>
