<svg width="393" height="133" viewBox="0 0 393 133" fill="none" xmlns="http://www.w3.org/2000/svg">
<rect y="51" width="393" height="68" fill="#4A327E"/>
<path d="M290.857 58.3721C290.857 58.3721 286.269 72.0164 291.671 78.0512C297.506 84.5692 311.682 81.0938 320.345 67.4287C323.686 62.1578 323.354 53.9683 323.354 53.9683L304.551 56.227L290.857 58.3721Z" fill="white"/>
<path d="M320.345 67.4282C311.681 81.0936 297.506 84.5691 291.67 78.0515C291.032 77.3392 290.534 76.5197 290.15 75.6283C289.368 73.8135 289.067 71.7019 289.04 69.5922C289.017 67.7866 289.198 65.9827 289.452 64.3649C289.989 60.9521 290.856 58.3733 290.856 58.3733L304.551 56.2269L312.308 55.2946L323.354 53.9686C323.354 53.9686 323.687 62.1577 320.345 67.4282Z" fill="white"/>
<path d="M320.345 67.4282C311.681 81.0936 297.506 84.5691 291.67 78.0515C291.032 77.3392 290.534 76.5197 290.15 75.6283C289.368 73.8135 289.067 71.7019 289.04 69.5922C289.017 67.7866 289.198 65.9827 289.452 64.3649C289.989 60.9521 290.856 58.3733 290.856 58.3733L304.551 56.2269L312.308 55.2946L323.354 53.9686C323.354 53.9686 323.687 62.1577 320.345 67.4282Z" fill="white"/>
<path d="M320.345 67.4283C311.681 81.0937 297.506 84.5692 291.67 78.0516C291.032 77.3393 290.534 76.5198 290.15 75.6284C292.001 77.3966 295.575 79.5478 300.896 77.4252C304.293 76.0706 306.576 72.6238 306.046 68.2786C303.67 70.3258 299.617 69.7981 297.171 68.2341C296.128 67.5684 291.82 70.3174 289.04 69.5923C289.017 67.7867 289.198 65.9828 289.452 64.365C294.287 61.3224 306.201 61.9259 306.201 61.9259C306.201 61.9259 309.262 58.5651 312.308 55.2955L323.353 53.9695C323.354 53.9687 323.687 62.1578 320.345 67.4283Z" fill="#E5E5E5"/>
<path d="M299.531 81.9519C296.083 81.9519 293.141 80.7617 291.147 78.5351C285.528 72.2578 289.994 58.7127 290.187 58.1392L291.527 58.6038C291.482 58.7365 287.138 71.9175 292.195 77.5671C294.136 79.7346 297.169 80.763 300.735 80.4615C307.582 79.8832 314.868 74.7401 319.75 67.0389C322.343 62.9503 322.636 56.9084 322.654 54.7762L304.634 56.9406L304.468 55.5123L323.271 53.2536C323.468 53.2306 323.664 53.2906 323.814 53.4206C323.964 53.5507 324.054 53.738 324.061 53.9382C324.075 54.282 324.363 62.4174 320.94 67.8174C315.824 75.8862 308.127 81.2806 300.852 81.8946C300.405 81.933 299.963 81.9519 299.531 81.9519Z" fill="#371A45"/>
<path d="M361.725 24.0347C361.725 24.0347 362.445 19.0067 364.907 18.517C367.754 17.9501 369.78 21.4996 369.78 21.4996" fill="#AF7343"/>
<path d="M362.425 24.1388L361.024 23.9312C361.105 23.3651 361.899 18.3825 364.771 17.8108C368.076 17.1544 370.299 20.9754 370.392 21.1386L369.168 21.8602C369.151 21.8302 367.355 18.7616 365.043 19.2223C363.44 19.5415 362.595 22.9649 362.425 24.1388Z" fill="#371A45"/>
<path d="M280.808 64.4964C280.808 64.4964 279.482 62.2553 282.338 61.1766C306.81 51.9347 330.061 39.1857 343.935 32.0286C356.919 25.3298 364.722 19.7825 373.691 20.6302C382.659 21.4779 387.804 29.9545 383.354 40.8327C378.905 51.7108 328.918 57.0086 310.842 61.3882C292.766 65.7677 288.804 69.017 284.702 69.0876C280.6 69.1581 278.953 69.6104 278.718 67.1942C278.54 65.3666 280.808 64.4964 280.808 64.4964Z" fill="#AF7343"/>
<path d="M383.354 40.8326C379.499 50.2605 341.438 55.4966 319.591 59.5773C316.231 60.2037 313.254 60.8049 310.843 61.3881C292.766 65.7673 288.803 69.0174 284.702 69.0871C280.6 69.1585 278.953 69.6095 278.717 67.1938C278.687 66.8808 278.728 66.5942 278.819 66.3364C279.251 65.0924 280.808 64.4968 280.808 64.4968C280.808 64.4968 279.481 62.2544 282.338 61.177C306.809 51.9338 330.06 39.1844 343.935 32.0277C356.918 25.3289 364.723 19.783 373.69 20.6298C382.659 21.4779 387.804 29.9536 383.354 40.8326Z" fill="#AF7343"/>
<path d="M383.354 40.8326C379.499 50.2605 341.438 55.4966 319.591 59.5773C316.231 60.2037 313.254 60.8049 310.843 61.3881C292.766 65.7673 288.803 69.0174 284.702 69.0871C280.6 69.1585 278.953 69.6095 278.717 67.1938C278.687 66.8808 278.728 66.5942 278.819 66.3364C279.251 65.0924 280.808 64.4968 280.808 64.4968L280.804 64.4915C280.767 64.4254 280.44 63.8259 280.51 63.1153C280.575 62.4479 280.994 61.6835 282.338 61.177C306.809 51.9338 330.06 39.1844 343.935 32.0277C356.918 25.3289 364.723 19.783 373.69 20.6298C382.659 21.4779 387.804 29.9536 383.354 40.8326Z" fill="#AF7343"/>
<path d="M383.354 40.8326C379.499 50.2605 341.438 55.4966 319.591 59.5772C316.231 60.2036 313.254 60.8049 310.843 61.3881C292.766 65.7673 288.803 69.0174 284.702 69.0871C280.6 69.1585 278.953 69.6095 278.717 67.1938C278.687 66.8808 278.728 66.5942 278.819 66.3364C279.251 65.0924 280.808 64.4968 280.808 64.4968L280.804 64.4915C280.767 64.4254 280.441 63.8276 280.51 63.1188C280.51 63.117 280.51 63.117 280.51 63.1153C280.575 62.4479 280.994 61.6835 282.338 61.177C285.855 59.8475 289.349 58.4461 292.792 57.0002C313.299 48.383 332.054 38.1555 343.935 32.0281C356.917 25.3294 364.722 19.7834 373.689 20.6302C382.659 21.4779 387.804 29.9536 383.354 40.8326Z" fill="#AF7343"/>
<path d="M383.354 40.8326C379.703 49.7627 345.358 54.9331 323.177 58.9221C321.941 59.1439 320.743 59.3625 319.591 59.5772C316.23 60.2036 313.253 60.8049 310.842 61.3881C292.765 65.7672 288.802 69.0174 284.702 69.087C280.6 69.1584 278.953 69.6094 278.717 67.1937C278.687 66.8807 278.727 66.5942 278.819 66.3363C279.25 65.0923 280.807 64.4968 280.807 64.4968L280.804 64.4915C280.767 64.4253 280.441 63.8276 280.509 63.1187C280.509 63.117 280.509 63.117 280.509 63.1152C280.574 62.4478 280.994 61.6834 282.338 61.1769C285.855 59.8474 289.348 58.446 292.791 57.0001C303.581 52.4654 313.887 47.4863 322.962 42.8908C331.133 38.755 338.306 34.9304 343.934 32.0276C347.554 30.1612 350.77 28.382 353.722 26.8074C361.359 22.7342 367.221 20.0192 373.689 20.6297C376.681 20.9123 379.248 22.0452 381.175 23.8332C385.024 27.4016 386.319 33.5828 383.354 40.8326Z" fill="#AF7343"/>
<path d="M355.235 41.3774C355.235 41.3774 350.846 35.0207 353.973 30.7254C357.099 26.4304 368.709 21.499 374.785 23.3557C380.676 25.156 382.42 31.093 375.649 36.2378C367.784 42.2141 355.235 41.3774 355.235 41.3774Z" fill="#C9926D"/>
<path d="M383.355 40.8326C379.703 49.7628 345.359 54.9332 323.177 58.9221L322.963 42.8908C331.133 38.755 338.307 34.9304 343.935 32.0276C347.555 30.1612 350.771 28.382 353.723 26.8074C354.51 33.4629 355.657 48.461 366.193 45.9624C372.628 44.4363 375.593 42.826 376.004 40.2608C384.253 35.6203 384.16 28.1797 381.176 23.8332C385.024 27.4016 386.319 33.5828 383.355 40.8326Z" fill="#8C5028"/>
<g opacity="0.5">
<path d="M292.792 57.0002L292.72 57.7395L280.51 63.1188C280.51 63.1171 280.51 63.1171 280.51 63.1153C280.575 62.4479 280.994 61.6835 282.339 61.177C285.856 59.8475 289.348 58.4461 292.792 57.0002Z" fill="white"/>
</g>
<g opacity="0.5">
<path d="M280.171 66.3142C280.332 66.8362 291.561 62.0043 291.4 61.5119C291.238 61.02 286.967 62.9138 285.25 63.7041C283.876 64.3367 280.009 65.7923 280.171 66.3142Z" fill="white"/>
</g>
<path d="M292.331 59.9763L280.808 64.4969L280.805 64.4916C280.768 64.4255 280.44 63.826 280.51 63.1153L292.331 59.9763Z" fill="#8C5028"/>
<path d="M320.139 56.9715L319.591 59.5772C316.231 60.2037 313.254 60.8049 310.843 61.3881C292.766 65.7673 288.803 69.0174 284.702 69.0871C280.6 69.1585 278.953 69.6095 278.717 67.1938C278.687 66.8808 278.728 66.5942 278.819 66.3364C279.311 67.1365 280.152 67.7805 281.595 67.5998C284.353 67.2542 290.601 64.9672 292.861 63.8933C295.121 62.8195 296.994 61.5865 292.691 57.4776C296.506 54.7269 302.671 55.0707 302.671 55.0707L306.201 52.2089L311.124 49.8646L320.139 56.9715Z" fill="#8C5028"/>
<path d="M281.693 69.8828C279.586 69.8828 278.234 69.5297 278.014 67.2652C277.855 65.6262 279.101 64.6202 279.907 64.1472C279.783 63.7002 279.715 63.0919 279.936 62.4492C280.234 61.5852 280.959 60.9301 282.092 60.5025C303.043 52.5902 322.753 42.2829 337.145 34.7568C339.456 33.548 341.639 32.4063 343.615 31.3871C346.074 30.1184 348.315 28.9084 350.482 27.738C359.654 22.7858 366.279 19.2068 373.757 19.9143C378.173 20.3318 381.75 22.4931 383.83 26.0003C386.256 30.0933 386.319 35.459 384.008 41.1086C380.551 49.5604 352.453 54.4976 329.876 58.4646C322.229 59.8082 315.624 60.9689 311.007 62.0877C300.993 64.5135 295.322 66.5938 291.569 67.97C288.503 69.0946 286.653 69.7734 284.714 69.8069C284.14 69.8166 283.615 69.8343 283.134 69.8501C282.622 69.8669 282.14 69.8828 281.693 69.8828ZM281.06 65.1682C281.016 65.1858 279.302 65.8819 279.423 67.1236C279.548 68.4108 279.857 68.5193 283.089 68.4126C283.576 68.3963 284.108 68.3787 284.69 68.3685C286.394 68.3394 288.161 67.691 291.089 66.6171C294.872 65.2299 300.588 63.1333 310.679 60.6885C315.339 59.5592 321.964 58.3954 329.635 57.0474C340.628 55.1157 353.088 52.9261 363.317 50.1935C374.821 47.1201 381.342 43.8778 382.701 40.5567C384.835 35.34 384.805 30.4336 382.617 26.7422C380.776 23.6366 377.583 21.7204 373.626 21.3461C366.57 20.6787 360.101 24.1726 351.147 29.008C348.974 30.1815 346.727 31.3946 344.256 32.6695C342.284 33.6869 340.102 34.8277 337.793 36.0356C323.369 43.5781 303.615 53.9083 282.585 61.8501C281.87 62.1199 281.43 62.4783 281.275 62.9151C281.067 63.5019 281.415 64.1247 281.418 64.1309C281.522 64.3139 281.543 64.5365 281.474 64.7353C281.404 64.9337 281.254 65.0937 281.06 65.1682Z" fill="#371A45"/>
<path d="M357.066 46.7767C361.864 46.3107 370.708 45.2087 374.408 42.1348C375.013 41.6036 375.452 40.9411 375.473 40.238C375.484 40.0387 375.591 39.843 375.774 39.7747C378.371 38.7484 380.494 36.7519 381.969 34.3424C380.77 36.9966 378.802 39.3365 376.234 40.7462C376.234 40.7467 376.535 40.282 376.534 40.2834C376.292 43.899 370.486 45.4119 367.653 46.1736C364.19 47.0222 360.692 47.5366 357.145 47.8523C357.145 47.8527 357.066 46.7767 357.066 46.7767Z" fill="#371A45"/>
<path d="M351.569 31.4088C357.047 28.2058 365.4 24.2838 371.727 24.1039C372.76 24.0933 373.813 24.1899 374.785 24.5271C369.786 24.0497 362.155 27.5463 357.542 29.66C355.708 30.5205 353.883 31.4273 352.088 32.3499L351.569 31.4088Z" fill="#371A45"/>
<path d="M352.725 42.7586C357.208 40.7075 361.876 39.2457 366.636 38.0661C367.928 37.7482 369.229 37.4643 370.536 37.2188C370.992 37.1209 372.046 36.9376 372.484 36.83C373.537 36.5805 374.6 36.2256 375.579 35.7883C377.027 35.1284 378.672 34.2966 379.353 32.8234C379.753 31.9832 379.685 30.9389 379.351 30.0405C378.762 28.7493 377.208 28.394 375.874 28.4037C374.149 28.4332 372.467 29.0539 370.896 29.7914C372.338 28.6982 374.001 27.8505 375.826 27.6371C378.62 27.3158 380.839 28.7577 380.818 31.8227C380.796 33.3907 379.615 34.7476 378.408 35.489C376.077 36.9697 373.256 37.1831 370.64 37.7588C368.051 38.2825 365.48 38.9213 362.958 39.7134C360.442 40.5184 357.957 41.4256 355.559 42.54C354.763 42.9045 353.963 43.2951 353.219 43.7139L352.725 42.7586Z" fill="#371A45"/>
<path d="M375.769 21.8575C375.769 21.8575 379.412 19.5859 381.493 21.1755C383.284 22.5434 381.934 26.4456 381.934 26.4456" fill="#AF7343"/>
<path d="M375.769 21.8575C376.836 20.7012 378.324 19.9386 379.918 19.9293C381.97 19.9571 383.189 21.5308 382.961 23.5529C382.852 24.6011 382.511 25.5824 381.933 26.4455C381.961 25.4317 381.993 24.4588 381.879 23.563C381.639 20.2247 378.024 21.3928 375.769 21.8575Z" fill="#371A45"/>
<path d="M376.855 45.2118C376.855 45.2118 381.743 47.0002 383.791 45.3458C385.718 43.7883 383.906 39.3524 383.906 39.3524C383.906 39.3524 382.69 41.8783 380.334 43.2651L376.855 45.2118Z" fill="#AF7343"/>
<path d="M383.791 45.3462C382.891 46.0727 381.443 46.1353 380.103 45.9761C378.391 45.7738 376.855 45.2118 376.855 45.2118L380.334 43.2646C382.689 41.8796 383.906 39.3524 383.906 39.3524C383.906 39.3524 384.098 39.8196 384.288 40.5047C384.688 41.9298 385.093 44.294 383.791 45.3462Z" fill="#AF7343"/>
<path d="M384.288 40.5052C383.311 42.216 380.801 43.5385 380.226 44.8556C380.042 45.278 380.032 45.6575 380.103 45.9758C378.391 45.7734 376.855 45.2114 376.855 45.2114L380.334 43.2643C382.689 41.8792 383.906 39.352 383.906 39.352C383.906 39.352 384.098 39.8197 384.288 40.5052Z" fill="#8C5028"/>
<path d="M376.855 45.2117C378.017 45.2558 379.119 45.3457 380.189 45.3594C381.193 45.3594 382.337 45.3527 383.156 44.8066C384.441 43.8504 383.61 41.0027 383.253 39.6282L384.542 39.6688C384.259 40.1004 383.973 40.4416 383.643 40.8136C382.712 41.8412 381.599 42.7219 380.334 43.2655C381.369 42.4411 382.176 41.3664 382.777 40.1903C382.958 39.8275 383.151 39.4083 383.27 39.0367C383.429 38.475 384.228 38.4058 384.48 38.9234C385.063 40.0893 385.406 41.2994 385.506 42.6144C385.865 47.8787 379.897 47.4096 376.855 45.2117Z" fill="#371A45"/>
<path d="M365.64 49.1703C365.64 49.1703 365.637 50.0061 365.373 51.0028C365.05 52.2072 364.344 53.646 362.792 54.115C361.455 54.5193 360.219 54.0882 359.241 53.467C357.943 52.6401 357.107 51.4754 357.107 51.4754L365.64 49.1703Z" fill="#AF7343"/>
<path d="M365.64 49.1703C365.64 49.1703 365.637 50.0061 365.373 51.0028C364.799 50.0167 362.278 50.2332 359.77 51.8188C358.926 52.3522 359.012 53.0055 359.241 53.467C357.943 52.6401 357.107 51.4754 357.107 51.4754L365.64 49.1703Z" fill="#8C5028"/>
<path d="M365.641 49.1712C366.068 50.8666 365.689 52.8481 364.346 54.0582C362.909 55.3436 360.656 55.1721 359.196 54.0599C358.283 53.3934 357.554 52.5135 357.106 51.4754C357.963 52.1459 358.826 52.7344 359.719 53.1333C363.184 54.6171 364.651 52.2199 365.641 49.1712Z" fill="#371A45"/>
<path d="M280.554 63.825L290.591 60.6678L281.063 65.1673L280.554 63.825Z" fill="#371A45"/>
<path d="M311.837 57.4772C308.517 59.0491 305.087 60.3121 301.624 61.4983C298.153 62.6586 294.663 63.736 291.077 64.4964C294.396 62.9222 297.826 61.6592 301.289 60.4752C304.761 59.3167 308.252 58.2398 311.837 57.4772Z" fill="#371A45"/>
<path d="M371.041 34.9829C369.935 35.057 368.248 34.5809 368.844 33.0905C369.148 32.494 369.707 32.1696 370.23 31.865C370.899 31.4965 371.592 31.2143 372.298 30.9609C373.386 30.602 374.548 30.1837 375.736 30.4733C376.938 30.8247 377.175 31.9558 376.238 32.7934C375.957 33.0887 375.659 33.3391 375.336 33.5511C374.054 34.3971 372.575 34.9261 371.041 34.9829ZM371.015 34.1149C372.672 34.0233 374.638 33.7138 375.824 32.4262C376.173 31.9668 376.03 31.4788 375.483 31.3104C373.659 30.8313 371.094 31.6851 369.756 33.0415C368.916 34.0118 370.305 34.148 371.015 34.1149Z" fill="#371A45"/>
<path d="M296.243 79.0729C293.321 79.0729 290.809 77.8567 289.655 75.8143C289.51 75.556 289.598 75.2263 289.852 75.0782C290.106 74.9305 290.43 75.0195 290.577 75.2779C291.672 77.2192 294.315 78.2627 297.31 77.936C300.305 77.6089 303.953 75.8276 305.206 71.8082C305.294 71.5243 305.592 71.3669 305.872 71.4568C306.151 71.5468 306.306 71.85 306.218 72.1339C304.81 76.6479 300.752 78.6449 297.423 79.0085C297.024 79.0513 296.629 79.0729 296.243 79.0729Z" fill="#371A45"/>
<path d="M306.374 63.0941C306.335 63.4348 306.404 64.0114 306.459 64.4179C306.606 65.5058 306.776 66.6563 306.815 67.7712C306.984 70.6295 306.211 73.9387 303.67 75.5455C304.882 73.75 305.373 71.6257 305.313 69.4697C305.298 67.8232 305.009 66.2314 304.876 64.5801C304.847 63.8849 304.773 63.3325 305.05 62.5845C305.05 62.5849 306.374 63.0941 306.374 63.0941Z" fill="#371A45"/>
<path d="M329.058 100.571C328.104 105.463 331.056 127.647 328.375 130.813C327.296 132.086 326.264 132.032 318.776 132.032C313.644 132.032 309.835 132.644 309.159 129.718C308.451 126.655 309.579 124.236 312.782 123.438C310.541 110.806 308.872 89.8018 308.872 89.8018L329.058 100.571Z" fill="white"/>
<path d="M328.375 130.813C327.296 132.085 326.264 132.032 318.776 132.032C313.644 132.032 309.835 132.645 309.159 129.718C309.072 129.342 309.012 128.977 308.982 128.621C308.803 126.58 309.555 124.919 311.321 123.984C311.748 123.758 312.236 123.574 312.783 123.438C310.541 110.806 308.872 89.8021 308.872 89.8021L329.058 100.571C328.104 105.463 331.055 127.647 328.375 130.813Z" fill="white"/>
<path d="M328.375 130.813C327.295 132.085 326.264 132.032 318.776 132.032C313.644 132.032 309.835 132.645 309.159 129.718C309.072 129.342 309.012 128.977 308.982 128.621C309.87 129.34 311.576 130.133 314.794 130.163C321.177 130.223 323.212 129.164 323.105 127.031C323.036 125.683 321.177 124.354 321.177 124.354C321.177 124.354 316.1 122.423 311.321 123.984C311.747 123.757 312.236 123.574 312.782 123.437C310.541 110.806 308.872 89.8018 308.872 89.8018L329.058 100.571C328.104 105.463 331.055 127.647 328.375 130.813Z" fill="#E5E5E5"/>
<path d="M314.675 132.804C311.469 132.804 309.064 132.451 308.47 129.883C307.688 126.498 308.993 123.942 311.974 122.927C309.808 110.344 308.183 90.0662 308.167 89.8595C308.135 89.4636 308.426 89.1167 308.816 89.085C309.209 89.0515 309.547 89.3481 309.578 89.744C309.595 89.9538 311.269 110.858 313.479 123.311C313.545 123.685 313.314 124.047 312.951 124.137C310.295 124.798 309.194 126.722 309.849 129.554C310.269 131.377 312.412 131.421 316.481 131.342C317.216 131.328 317.975 131.313 318.777 131.313H319.651C326.285 131.312 327.042 131.284 327.839 130.344C329.28 128.643 328.806 119.148 328.46 112.215C328.198 106.973 327.972 102.445 328.365 100.431C328.441 100.042 328.816 99.7877 329.197 99.8657C329.581 99.9429 329.83 100.321 329.754 100.711C329.395 102.55 329.628 107.209 329.874 112.142C330.371 122.098 330.593 129.298 328.912 131.282C327.665 132.754 326.604 132.753 319.651 132.752H318.777C317.989 132.752 317.236 132.766 316.508 132.78C315.874 132.792 315.261 132.804 314.675 132.804Z" fill="#371A45"/>
<path d="M329.312 115.696C329.273 115.696 329.234 115.692 329.194 115.683C320.658 113.722 311.61 115.052 311.519 115.065C311.23 115.11 310.959 114.906 310.916 114.611C310.873 114.317 311.073 114.042 311.363 113.998C311.455 113.984 320.693 112.624 329.428 114.631C329.714 114.696 329.893 114.985 329.829 115.275C329.773 115.526 329.554 115.696 329.312 115.696Z" fill="#371A45"/>
<path d="M322.18 58.4046C330.304 49.7301 335.346 51.4206 335.346 51.4206C335.346 51.4206 350.609 59.4326 347.512 92.4289C345.386 105.444 329.294 108.654 317.397 103.139L312.825 99.755C303.836 91.5447 310.796 70.1331 315.042 63.079L322.18 58.4046Z" fill="white"/>
<path d="M347.512 92.4291C345.385 105.443 329.294 108.654 317.397 103.139L312.825 99.7551C304.316 91.9812 310.098 72.3775 314.343 64.325C314.582 63.8718 314.816 63.4548 315.042 63.0792L322.178 58.4047C330.304 49.7302 335.345 51.4199 335.345 51.4199C335.345 51.4199 341.039 54.4096 344.765 64.2566C347.142 70.5295 348.717 79.5871 347.512 92.4291Z" fill="white"/>
<path d="M347.912 85.4355C347.871 87.6308 347.744 89.9587 347.512 92.4291C345.385 105.443 329.294 108.654 317.397 103.139L312.825 99.7551C304.316 91.9812 310.098 72.3775 314.343 64.325C314.582 63.8718 314.816 63.4548 315.042 63.0792L322.178 58.4047C330.304 49.7302 335.345 51.4199 335.345 51.4199C335.345 51.4199 340.929 54.3523 344.654 63.9705C344.693 64.0658 344.728 64.161 344.765 64.2562C346.686 69.323 348.082 76.2069 347.912 85.4355Z" fill="white"/>
<path d="M347.912 85.4353C345.61 84.797 341.471 82.8358 340.669 76.9261C340.055 72.3883 342.407 67.4784 344.654 63.9708C344.693 64.066 344.728 64.1613 344.765 64.2565C346.686 69.3228 348.082 76.2067 347.912 85.4353Z" fill="#E5E5E5"/>
<path d="M344.766 64.2566C340.954 66.8941 335.528 68.5427 329.506 68.5427C323.536 68.5427 318.151 66.9227 314.343 64.325C314.582 63.8718 314.816 63.4548 315.042 63.0792L322.179 58.4047C330.304 49.7302 335.345 51.4199 335.345 51.4199C335.345 51.4199 341.039 54.41 344.766 64.2566Z" fill="#E5E5E5"/>
<path d="M312.352 100.29C304.112 92.9972 308.19 75.9013 312.418 67.2246C313.154 65.7624 314.002 64.3416 315.042 63.0791C312.449 69.806 310.099 76.723 309.458 83.9432C309.134 87.8043 309.251 91.8991 310.776 95.4839C311.381 96.8848 312.219 98.1703 313.302 99.223C313.942 99.8661 313.059 100.877 312.352 100.29Z" fill="#371A45"/>
<path d="M321.666 57.9091C324.944 54.4372 330.299 49.8553 335.389 50.6889C335.444 50.7026 335.479 50.7096 335.567 50.7378L335.62 50.7546C335.865 50.8846 336.057 51.0094 336.276 51.1544C338.985 53.0231 341.109 55.6653 342.8 58.4782C348.31 67.9215 349.132 79.3106 348.451 90.0305C348.355 91.3402 348.301 92.7107 347.959 93.9824C345.731 103.376 335.793 107.242 327.098 106.381C323.676 106.103 320.249 105.115 317.398 103.139C320.696 104.019 323.916 104.69 327.202 104.912C335.146 105.46 344.357 102.172 346.496 93.6016C346.84 92.3906 346.867 91.1731 346.968 89.9251C347.653 79.5107 346.893 68.3914 341.574 59.2303C340.092 56.7493 338.272 54.446 335.983 52.703C335.685 52.4729 335.339 52.2441 335.021 52.0594L335.124 52.1035C330.665 51.3973 325.61 55.7976 322.693 58.9005C322.034 59.5746 321.034 58.6184 321.666 57.9091Z" fill="#371A45"/>
<path d="M329.552 105.335C329.833 117.92 329.216 128.453 330.636 130.532C331.891 132.37 335.345 132.033 335.345 132.033H343.81C343.81 132.033 346.796 132.308 347.645 130.348C348.691 127.928 347.945 124.842 345.875 123.438C346.048 115.503 347.807 100.091 347.807 91.681" fill="white"/>
<path d="M348.11 128.281C348.08 128.988 347.927 129.693 347.644 130.347C346.796 132.307 343.81 132.032 343.81 132.032H335.345C335.345 132.032 331.891 132.37 330.636 130.531C329.217 128.452 329.832 117.921 329.551 105.336L347.807 91.6818C347.807 100.092 346.048 115.503 345.874 123.439C346.177 123.644 346.451 123.887 346.695 124.156C347.672 125.23 348.175 126.762 348.11 128.281Z" fill="white"/>
<path d="M348.11 128.281C348.08 128.988 347.927 129.693 347.644 130.347C346.796 132.307 343.81 132.032 343.81 132.032H335.345C335.345 132.032 331.891 132.37 330.636 130.531C329.217 128.452 329.832 117.921 329.551 105.336L347.807 91.6818C347.807 100.092 346.048 115.503 345.874 123.439C346.177 123.644 346.451 123.887 346.695 124.156C343.275 122.867 336.372 122.835 334.81 124.74C333.482 126.364 334.721 129.641 341.091 129.663C345.332 129.674 347.25 128.91 348.11 128.281Z" fill="#E5E5E5"/>
<path d="M329.906 105.327C330.722 111.652 330.184 118.045 330.431 124.396C330.525 126.198 330.52 128.138 331.066 129.817C331.688 131.264 333.908 131.391 335.345 131.313H343.81C344.027 131.327 344.291 131.332 344.52 131.316C346.317 131.189 347.133 130.559 347.362 128.714C347.597 126.985 346.929 125.015 345.482 124.036C345.274 123.896 345.163 123.658 345.167 123.422C345.428 115.446 346.308 107.537 346.787 99.5831C346.95 96.9426 347.088 94.2994 347.099 91.6748C347.118 90.7556 348.481 90.7014 348.514 91.6805C348.504 94.3625 348.364 97.0202 348.2 99.6744C347.746 107.291 346.827 115.832 346.582 123.453L346.268 122.839C348.677 124.495 349.427 127.909 348.324 130.559C347.603 132.356 345.466 132.866 343.745 132.747C344.078 132.775 335.268 132.733 335.345 132.751C333.889 132.856 331.412 132.649 330.216 131.157C329.572 130.36 329.43 129.236 329.291 128.323C329.121 127.013 329.062 125.728 329.016 124.445C328.921 122.22 328.952 119.04 328.918 116.786C328.886 114.241 328.882 111.7 328.976 109.158C329.02 107.887 329.087 106.616 329.198 105.342C329.241 104.928 329.844 104.896 329.906 105.327Z" fill="#371A45"/>
<path d="M329.641 115.696C329.395 115.696 329.174 115.521 329.122 115.266C329.062 114.974 329.247 114.689 329.533 114.628C329.901 114.551 338.628 112.753 346.455 114.602C346.741 114.67 346.918 114.96 346.852 115.25C346.785 115.54 346.501 115.72 346.215 115.653C338.621 113.858 329.837 115.666 329.749 115.685C329.713 115.693 329.677 115.696 329.641 115.696Z" fill="#371A45"/>
<path d="M312.686 122.725C315.586 122.578 318.614 122.896 321.176 124.355C319.829 123.858 318.418 123.656 317.019 123.662C315.619 123.663 314.229 123.842 312.878 124.15C311.878 124.334 311.671 122.824 312.686 122.725Z" fill="#371A45"/>
<path d="M293.296 56.7882C295.632 57.3366 296.992 62.3707 303.312 59.2837C307.863 60.2125 309.066 56.7251 309.066 53.858C308.553 50.1935 305.282 48.7842 301.645 50.7599C294.464 50.9244 292.309 53.9687 291.25 57.6434C291.25 57.6434 292.42 57.1585 293.296 56.7882Z" fill="white"/>
<path d="M305.605 66.8266C304.962 65.7029 305.901 63.8241 305.901 63.8241C309.101 62.9354 315.824 58.786 322.223 58.1869L324.322 59.0818L305.605 66.8266Z" fill="#E5E5E5"/>
<path d="M304.993 67.1875C304.18 65.7667 305.156 63.7262 305.27 63.4978C305.361 63.3171 305.523 63.1831 305.715 63.1297C306.718 62.8511 308.142 62.2102 309.79 61.4678C313.338 59.8703 317.753 57.8826 322.159 57.47C322.276 57.459 322.391 57.4775 322.497 57.5229L324.596 58.4178L324.048 59.7442L322.114 58.9194C317.995 59.347 313.769 61.2496 310.364 62.7828C308.825 63.4758 307.476 64.0832 306.414 64.42C306.197 64.9631 305.915 65.9369 306.217 66.465L304.993 67.1875Z" fill="#371A45"/>
<path d="M305.227 63.4442C302.098 63.7105 300.427 62.4153 301.286 60.5136C302.343 58.1724 307.476 58.5048 308.265 59.7753C308.844 60.7072 309.373 65.2811 304.458 67.4284C303.165 67.9931 300.507 68.4211 297.171 68.2338C297.171 68.2338 296.053 66.4409 299.466 65.5681C302.878 64.6966 305.227 63.4442 305.227 63.4442Z" fill="white"/>
<path d="M339.435 56.5346C353.617 61.0173 360.075 71.2827 361.845 74.8097C361.845 74.8097 364.47 86.0313 356.389 86.0313C348.308 86.0313 348.67 80.3936 348.67 80.3936C348.67 80.3936 346.678 76.1688 344.122 73.8673L339.435 56.5346Z" fill="white"/>
<path d="M356.389 86.0323C355.436 86.0323 354.601 85.9534 353.868 85.815C348.388 84.7812 348.669 80.3946 348.669 80.3946C348.669 80.3946 346.679 76.1698 344.122 73.8683L339.436 56.5352C345.254 58.3743 349.773 61.1863 353.201 64.1094C358.127 68.3073 360.801 72.7301 361.845 74.8103C361.844 74.8099 364.469 86.0323 356.389 86.0323Z" fill="white"/>
<path d="M353.868 85.8144C348.388 84.7807 348.669 80.3941 348.669 80.3941C348.669 80.3941 346.679 76.1692 344.122 73.8677L339.436 56.5346C345.254 58.3737 349.773 61.1857 353.201 64.1088C350.049 62.5699 347.128 63.9704 345.743 67.8611C344.417 71.5807 347.21 75.1695 348.795 77.102C350.197 78.8098 353.116 76.3235 354.666 76.6489C355.883 76.9063 354.516 83.1373 353.868 85.8144Z" fill="#E5E5E5"/>
<path d="M339.645 55.8483C346.808 58.0991 353.376 62.3548 358.239 68.175C359.871 70.1653 361.414 72.2781 362.533 74.6436C362.772 75.7549 362.895 76.8186 362.945 77.9422C363.128 81.3577 362.171 85.4993 358.44 86.4854C357.06 86.8698 355.649 86.7697 354.253 86.6092C351.296 86.2434 348.436 84.555 347.947 81.3141C347.898 80.9892 347.868 80.6753 347.886 80.3416L347.961 80.7379C347.17 79.0469 346.116 77.2109 345.178 75.5794C344.841 75.013 344.492 74.4518 344.122 73.8668C344.73 74.182 345.283 74.6004 345.795 75.0588C347.314 76.4633 348.428 78.2054 349.378 80.0485C349.444 80.1737 349.455 80.3099 349.453 80.4452C349.455 80.6498 349.47 80.8578 349.505 81.0611C349.934 83.8634 352.615 85.0985 355.191 85.2621C356.144 85.3317 357.148 85.3626 358.064 85.099C362.276 83.9656 361.669 77.799 361.214 75.1364C357.833 68.6674 352.278 63.4106 345.909 60.0211C343.775 58.8798 341.527 57.9616 339.225 57.2214L339.645 55.8483Z" fill="#371A45"/>
<path d="M309.177 95.4301C309.177 95.4301 306.791 93.6426 308.447 90.3867C308.447 90.3867 305.397 88.3686 308.447 84.5493C309.543 82.6838 314.411 78.8795 321.589 75.0752C332.693 69.1915 334.949 60.6065 342.675 57.955C345.716 56.9116 347.335 59.3035 347.335 59.3035C347.335 59.3035 352.319 59.9149 351.853 62.8904C349.281 61.3114 344.653 63.0663 342.793 70.8997C340.921 78.7873 347.836 80.9527 347.836 80.9527C347.836 80.9527 349.96 93.3737 349.96 98.0133C349.96 99.651 350.035 103.874 350.063 106.336C350.114 110.849 350.01 115.493 348.999 115.616C347.667 115.778 347.589 112.71 347.335 111.609C346.61 112.492 345.972 112.283 345.77 112.188C345.062 111.856 343.446 109.145 343.014 109.014C342.026 108.714 340.906 114.017 339.623 113.898C338.36 113.78 337.946 108.88 335.099 109.349C333.223 109.658 333.298 112.152 332.215 112.442C331.254 112.7 330.126 110.88 329.131 111.666C328.045 112.524 327.804 117.262 326.206 117.123C324.727 116.994 324.022 113.164 323.324 112.962C322.927 112.848 321.715 113.403 321.256 113.186C320.632 112.89 320.173 110.003 319.439 110.054C318.616 110.112 318.036 113.756 316.882 113.844C315.868 113.921 314.43 110.57 313.508 111.058C312.587 111.547 311.926 116.705 309.91 116.857C308.715 116.947 308.981 115.418 308.871 112.699C308.871 112.699 305.818 113.756 305.287 113.171C304.328 112.114 309.026 106.182 309.177 95.4301Z" fill="#F6872C"/>
<path d="M342.794 70.8997C340.922 78.7868 347.835 80.953 347.835 80.953C347.835 80.953 349.518 90.7873 349.888 96.2222C349.934 96.8962 349.96 97.5024 349.96 98.0128C349.96 99.6505 350.034 103.874 350.063 106.337C350.114 110.85 350.01 115.493 349 115.617C347.667 115.779 347.589 112.71 347.334 111.61C346.611 112.493 345.972 112.282 345.77 112.189C345.063 111.856 343.445 109.145 343.015 109.014C342.026 108.714 340.906 114.017 339.623 113.899C338.36 113.78 337.946 108.879 335.099 109.349C333.223 109.658 333.298 112.151 332.216 112.443C331.255 112.7 330.127 110.88 329.132 111.666C328.046 112.523 327.805 117.263 326.207 117.122C324.728 116.993 324.022 113.163 323.324 112.962C322.928 112.849 321.716 113.405 321.256 113.187C320.633 112.891 320.173 110.003 319.44 110.055C318.618 110.113 318.036 113.755 316.884 113.845C315.87 113.922 314.431 110.571 313.509 111.059C312.587 111.547 311.927 116.705 309.91 116.858C309.016 116.925 308.941 116.087 308.912 114.519C308.904 113.994 308.9 113.385 308.872 112.7C308.872 112.7 305.819 113.757 305.288 113.173C304.327 112.116 309.026 106.183 309.177 95.4301C309.177 95.4301 306.79 93.643 308.447 90.3871C308.447 90.3871 305.396 88.3699 308.447 84.5497C309.542 82.6855 314.41 78.8812 321.589 75.0769C332.692 69.1924 334.948 60.6078 342.675 57.9563C345.715 56.9137 347.334 59.3047 347.334 59.3047C347.334 59.3047 352.319 59.9162 351.853 62.8913C349.281 61.3118 344.652 63.0663 342.794 70.8997Z" fill="#F6872C"/>
<path d="M342.794 70.8997C340.922 78.7869 347.835 80.9531 347.835 80.9531C347.835 80.9531 349.518 90.7873 349.888 96.2222C349.934 96.8963 349.96 97.5024 349.96 98.0129C349.96 99.6505 350.034 103.874 350.063 106.337C350.114 110.85 350.01 115.493 348.999 115.618C347.667 115.779 347.589 112.71 347.334 111.61C346.611 112.493 345.972 112.282 345.77 112.189C345.063 111.856 343.445 109.145 343.015 109.014C342.026 108.714 340.906 114.017 339.623 113.899C338.36 113.78 337.946 108.879 335.099 109.349C333.223 109.658 333.297 112.151 332.216 112.443C331.255 112.7 330.126 110.88 329.132 111.666C328.046 112.523 327.805 117.263 326.207 117.122C324.727 116.993 324.021 113.163 323.324 112.962C322.928 112.849 321.716 113.405 321.256 113.187C320.633 112.891 320.173 110.003 319.44 110.055C318.618 110.113 318.035 113.755 316.884 113.845C315.87 113.922 314.431 110.571 313.509 111.059C312.587 111.547 311.927 116.705 309.91 116.858C309.016 116.925 308.94 116.087 308.912 114.519C308.904 113.994 308.9 113.385 308.871 112.7C308.871 112.7 308.811 112.722 308.705 112.756C308.061 112.966 305.745 113.674 305.289 113.173C305.069 112.932 305.145 112.436 305.395 111.686C306.237 109.155 309.061 103.727 309.178 95.4296C309.178 95.4296 306.791 93.6426 308.448 90.3866C308.448 90.3866 305.397 88.3694 308.448 84.5493C309.543 82.685 314.411 78.8808 321.589 75.0765C332.693 69.1919 334.949 60.6074 342.676 57.9558C345.716 56.9133 347.335 59.3043 347.335 59.3043C347.335 59.3043 352.319 59.9157 351.854 62.8908C349.281 61.3118 344.652 63.0663 342.794 70.8997Z" fill="#F6872C"/>
<path d="M342.794 70.8997C340.922 78.7868 347.835 80.953 347.835 80.953C347.835 80.953 349.518 90.7873 349.888 96.2222C349.934 96.8962 349.96 97.5024 349.96 98.0128C349.96 99.6505 350.034 103.874 350.063 106.337C350.114 110.85 350.01 115.493 348.999 115.617C347.667 115.779 347.589 112.71 347.334 111.61C346.611 112.493 345.972 112.282 345.77 112.189C345.063 111.856 343.445 109.145 343.015 109.014C342.026 108.714 340.906 114.017 339.623 113.899C338.36 113.78 337.946 108.879 335.099 109.349C333.223 109.658 333.297 112.151 332.216 112.443C331.255 112.7 330.126 110.88 329.132 111.666C328.046 112.523 327.805 117.263 326.207 117.122C324.727 116.993 324.021 113.163 323.324 112.962C322.928 112.849 321.716 113.405 321.256 113.187C320.633 112.891 320.173 110.003 319.44 110.055C318.618 110.113 318.035 113.755 316.884 113.845C315.87 113.922 314.431 110.571 313.509 111.059C312.587 111.547 311.927 116.705 309.91 116.858C309.016 116.925 308.94 116.087 308.912 114.519C308.904 113.994 308.9 113.385 308.871 112.7C308.871 112.7 308.811 112.722 308.705 112.756C308.061 112.966 305.745 113.674 305.289 113.173C305.069 112.932 305.145 112.436 305.395 111.686C306.22 109.207 308.944 103.953 309.167 95.9458C309.173 95.7752 309.176 95.6024 309.178 95.4301C309.178 95.4301 306.791 93.643 308.447 90.3871C308.447 90.3871 305.397 88.3699 308.447 84.5497C308.681 84.1525 309.086 83.665 309.648 83.1113C311.724 81.0619 315.941 78.0701 321.589 75.0769C332.692 69.1924 334.948 60.6078 342.675 57.9563C345.715 56.9137 347.334 59.3047 347.334 59.3047C347.334 59.3047 352.319 59.9162 351.853 62.8913C349.281 61.3118 344.652 63.0663 342.794 70.8997Z" fill="#F6872C"/>
<path d="M342.794 70.8997C340.922 78.7869 347.835 80.9531 347.835 80.9531C347.835 80.9531 349.518 90.7873 349.888 96.2222C349.934 96.8963 349.96 97.5024 349.96 98.0129C349.96 99.6505 350.034 103.874 350.063 106.337C350.114 110.85 350.01 115.493 348.999 115.618C347.667 115.779 347.589 112.71 347.334 111.61C346.611 112.493 345.972 112.282 345.77 112.189C345.063 111.856 343.445 109.145 343.015 109.014C342.026 108.714 340.906 114.017 339.623 113.899C338.36 113.78 337.946 108.879 335.099 109.349C333.223 109.658 333.297 112.151 332.216 112.443C331.255 112.7 330.126 110.88 329.132 111.666C328.046 112.523 327.805 117.263 326.207 117.122C324.727 116.993 324.021 113.163 323.324 112.962C322.928 112.849 321.716 113.405 321.256 113.187C320.633 112.891 320.173 110.003 319.44 110.055C318.618 110.113 318.035 113.755 316.884 113.845C315.87 113.922 314.431 110.571 313.509 111.059C312.587 111.547 311.927 116.705 309.91 116.858C309.016 116.925 308.94 116.087 308.912 114.519C308.904 113.994 308.9 113.385 308.871 112.7C308.871 112.7 308.811 112.722 308.705 112.756C308.061 112.966 305.745 113.674 305.289 113.173C305.069 112.932 305.145 112.436 305.395 111.686C306.22 109.207 308.944 103.953 309.167 95.9458C309.173 95.7752 309.176 95.6024 309.178 95.4301C309.178 95.4301 306.791 93.643 308.447 90.3871C308.447 90.3871 305.397 88.3699 308.447 84.5497C308.681 84.1525 309.086 83.665 309.648 83.1113C311.724 81.0619 315.941 78.0701 321.589 75.0769C327.244 72.0798 330.604 68.3835 333.561 65.1258C336.41 61.9867 338.883 59.2558 342.675 57.9558C345.715 56.9133 347.334 59.3043 347.334 59.3043C347.334 59.3043 349.049 59.5146 350.373 60.2878C351.307 60.8344 352.046 61.6596 351.854 62.8908C349.281 61.3118 344.652 63.0663 342.794 70.8997Z" fill="#F6872C"/>
<path d="M342.794 70.8997C341.536 76.2032 344.248 78.92 346.161 80.1296C347.093 80.7212 347.835 80.9531 347.835 80.9531C347.835 80.9531 348.564 85.2158 349.167 89.6778C349.481 91.9952 349.76 94.3646 349.888 96.2218C349.934 96.8958 349.96 97.502 349.96 98.0124C349.96 99.6501 350.034 103.874 350.063 106.336C350.114 110.849 350.01 115.493 348.999 115.617C347.667 115.779 347.589 112.71 347.334 111.61C346.611 112.492 345.972 112.282 345.77 112.188C345.063 111.856 343.445 109.144 343.015 109.014C342.026 108.713 340.906 114.017 339.623 113.898C338.36 113.78 337.946 108.879 335.099 109.348C333.223 109.657 333.297 112.151 332.216 112.442C331.255 112.699 330.126 110.88 329.132 111.666C328.046 112.523 327.805 117.262 326.207 117.122C324.727 116.992 324.021 113.163 323.324 112.962C322.928 112.849 321.716 113.404 321.256 113.187C320.633 112.89 320.173 110.003 319.44 110.055C318.618 110.112 318.035 113.755 316.884 113.845C315.87 113.922 314.431 110.571 313.509 111.058C312.587 111.547 311.927 116.705 309.91 116.858C309.016 116.925 308.94 116.087 308.912 114.519C308.904 113.994 308.9 113.385 308.871 112.7C308.871 112.7 308.811 112.721 308.705 112.755C308.061 112.966 305.745 113.674 305.289 113.172C305.069 112.932 305.145 112.435 305.395 111.685C306.22 109.206 308.944 103.953 309.167 95.9454C309.173 95.7748 309.176 95.602 309.178 95.4297C309.178 95.4297 306.791 93.6426 308.447 90.3867C308.447 90.3867 305.397 88.3695 308.447 84.5493C308.681 84.1521 309.086 83.6646 309.648 83.1109C311.724 81.0615 315.941 78.0697 321.589 75.0765C327.244 72.0793 330.604 68.383 333.561 65.1254C336.41 61.9863 338.883 59.2554 342.675 57.9554C345.715 56.9129 347.334 59.3039 347.334 59.3039C347.334 59.3039 349.049 59.5142 350.373 60.2874C351.307 60.834 352.046 61.6592 351.854 62.8904C349.281 61.3118 344.652 63.0663 342.794 70.8997Z" fill="#F6872C"/>
<path d="M349.168 89.6784C343.067 90.0253 333.865 90.4802 333.865 90.4802L325.229 81.5576L332.745 74.2404H337.63C338.807 74.2404 339.892 74.8822 340.471 75.923C341.293 77.3971 342.967 79.416 346.161 80.1297C347.093 80.7213 347.835 80.9532 347.835 80.9532C347.835 80.9532 348.564 85.2159 349.168 89.6784Z" fill="#D85616"/>
<path d="M338.461 79.5274C337.716 80.5378 334.566 81.2858 333.315 80.3112C332.632 79.7809 332.542 76.2137 333.161 75.0363C333.318 74.7379 333.532 74.4716 333.787 74.2397H337.631C338.197 74.2397 338.743 74.3887 339.221 74.6603C339.614 76.2265 339.1 78.6607 338.461 79.5274Z" fill="#6D3007"/>
<path d="M350.373 60.2869H350.367C342.398 60.0621 336.053 72.4439 336.24 70.3549C336.511 67.3559 340.278 63.3127 338.484 64.0626C337.514 64.4672 335.348 64.8556 333.561 65.1249C336.41 61.9859 338.884 59.255 342.676 57.955C345.716 56.9124 347.334 59.3035 347.334 59.3035C347.334 59.3035 349.049 59.5137 350.373 60.2869Z" fill="#D85616"/>
<path d="M336.104 64.6899C335.279 64.8517 334.38 65.0011 333.561 65.125C333.74 64.9292 333.917 64.7331 334.092 64.5409C334.267 64.3487 334.44 64.1578 334.616 63.9691C334.899 63.6619 335.178 63.3617 335.459 63.0668C335.757 63.5499 335.974 64.1075 336.104 64.6899Z" fill="#6D3007"/>
<path d="M344.211 62.4355C342.316 63.7623 340.662 65.497 339.359 67.0253C339.345 66.0634 339.75 65.098 340.434 64.0013C341.274 62.6528 343.243 61.6856 344.173 62.4046C344.187 62.4156 344.199 62.4262 344.211 62.4355Z" fill="#6D3007"/>
<path d="M339.743 93.04C339.743 93.04 340.31 95.6307 335.408 95.6307C331.516 95.6307 327.357 95.3485 324.282 95.3485C321.208 95.3485 319.743 97.4125 317.133 97.5147C316.105 97.5544 320.035 93.9533 316.746 93.7933C313.267 93.6262 312.805 96.1001 309.167 95.9454C309.172 95.7748 309.176 95.602 309.177 95.4296C309.177 95.4296 306.79 93.6426 308.447 90.3866C308.447 90.3866 305.396 88.3694 308.447 84.5493C308.68 84.1521 309.085 83.6646 309.648 83.1109L323.613 82.3108L339.743 93.04Z" fill="#D85616"/>
<path d="M337.068 95.5086C336.601 95.5858 336.051 95.6307 335.408 95.6307C333.646 95.6307 331.831 95.5734 330.086 95.5086C330.705 95.0608 331.462 94.739 332.289 94.6653C334.465 94.4714 335.997 93.1948 336.87 94.1386C337.148 94.437 337.153 94.9294 337.068 95.5086Z" fill="#6D3007"/>
<path d="M320.032 95.7873C320.332 95.8287 320.635 95.987 320.897 96.2189C319.681 96.7959 318.584 97.4576 317.133 97.5153C316.13 97.5532 319.842 94.1298 316.977 93.8115C317.207 92.2189 317.225 90.9405 318.758 90.5645C321.288 89.9425 324.512 92.8422 320.032 95.7873Z" fill="#6D3007"/>
<path d="M309.383 105.415L308.705 112.755C308.061 112.966 305.745 113.674 305.289 113.172C305.069 112.932 305.145 112.435 305.395 111.685C306.037 111.939 306.865 112.088 307.318 111.466C308.321 110.087 309.383 105.415 309.383 105.415Z" fill="#D85616"/>
<path d="M348.999 115.617C347.667 115.779 347.589 112.71 347.334 111.61C346.611 112.492 345.972 112.282 345.77 112.188C345.063 111.856 343.445 109.144 343.015 109.014C342.026 108.713 340.906 114.017 339.623 113.898C338.36 113.78 337.946 108.879 335.099 109.348C333.223 109.657 333.297 112.151 332.216 112.442C331.255 112.699 330.126 110.88 329.132 111.666C328.046 112.523 327.805 117.262 326.207 117.122C324.727 116.992 324.022 113.163 323.324 112.962C322.928 112.849 321.716 113.404 321.256 113.187C320.633 112.89 320.173 110.003 319.44 110.055C318.618 110.112 318.035 113.755 316.884 113.845C315.87 113.922 314.431 110.571 313.509 111.058C312.587 111.547 311.927 116.705 309.91 116.858C309.016 116.925 308.94 116.087 308.912 114.519C309.447 115.163 310.365 115.713 311.214 113.572C311.82 112.043 312.552 109.517 314.352 105.834C315.712 103.045 313.851 101.054 314.617 100.559C315.571 99.9441 318.665 104.275 328.86 103.595C332.887 103.327 338.534 101.766 340.871 99.997C341.999 99.1431 341.989 97.7091 340.835 97.3825C337.443 96.4237 336.091 93.6558 336.759 90.8804C337.068 89.5945 349.15 96.6371 349.888 96.2222C349.934 96.8963 349.96 97.5024 349.96 98.0129C349.96 99.6505 350.035 103.874 350.063 106.337C350.114 110.85 350.01 115.493 348.999 115.617Z" fill="#D85616"/>
<path d="M347.721 104.514C347.721 106.154 347.335 110.282 346.04 110.012C344.28 109.646 341.514 103.379 343.443 102.015C346.394 99.9296 347.722 100.933 347.721 104.514Z" fill="#F6872C"/>
<path d="M342.226 66.7199C341.425 67.2356 339.697 68.8808 339.435 67.6897C339.173 66.4986 339.594 65.3494 340.434 64.0009C341.274 62.6524 343.243 61.6861 344.172 62.4051C345.565 63.4838 344.039 65.5513 342.226 66.7199Z" fill="#893D09"/>
<path d="M344.211 62.4355C342.316 63.7623 340.662 65.497 339.359 67.0253C339.345 66.0634 339.75 65.098 340.434 64.0013C341.274 62.6528 343.243 61.6856 344.173 62.4046C344.187 62.4156 344.199 62.4262 344.211 62.4355Z" fill="#6D3007"/>
<path d="M334.982 69.0064C334.163 69.6768 330.399 70.5704 328.752 70.0489C331.422 67.6451 333.439 65.1858 335.46 63.0663C336.571 64.8732 336.566 67.7139 334.982 69.0064Z" fill="#893D09"/>
<path d="M336.104 64.6899C335.279 64.8517 334.38 65.0011 333.561 65.125C333.74 64.9292 333.917 64.7331 334.092 64.5409C334.269 64.3487 334.443 64.1578 334.616 63.9691C334.899 63.6619 335.178 63.3617 335.459 63.0668C335.757 63.5499 335.974 64.1075 336.104 64.6899Z" fill="#6D3007"/>
<path d="M338.461 79.5275C337.715 80.5383 334.565 81.2855 333.315 80.3117C332.633 79.781 332.542 76.2134 333.161 75.0364C334.131 73.1894 337.287 72.6013 338.538 73.5015C339.931 74.5039 339.304 78.3849 338.461 79.5275Z" fill="#893D09"/>
<path d="M338.461 79.5274C337.716 80.5378 334.566 81.2858 333.315 80.3112C332.632 79.7809 332.542 76.2137 333.161 75.0363C333.318 74.7379 333.532 74.4716 333.787 74.2397H337.631C338.197 74.2397 338.743 74.3887 339.221 74.6603C339.614 76.2265 339.1 78.6607 338.461 79.5274Z" fill="#6D3007"/>
<path d="M336.712 98.2403C336.912 100.881 333.652 102.101 330.824 102.099C329.007 102.098 328.031 100.077 328.485 97.7603C328.748 96.4202 330.323 94.8411 332.289 94.6657C334.465 94.4713 335.997 93.1942 336.87 94.1376C337.548 94.8689 336.599 96.7459 336.712 98.2403Z" fill="#893D09"/>
<path d="M337.068 95.5086C336.601 95.5858 336.051 95.6307 335.408 95.6307C333.646 95.6307 331.831 95.5734 330.086 95.5086C330.705 95.0608 331.462 94.739 332.289 94.6653C334.465 94.4714 335.997 93.1948 336.87 94.1386C337.148 94.437 337.153 94.9294 337.068 95.5086Z" fill="#6D3007"/>
<path d="M318.758 90.5644C321.289 89.9428 324.512 92.8416 320.033 95.7868C321.115 95.938 322.205 97.5695 321.457 98.8337C321.027 99.5593 320.029 100.944 317.277 100.766C314.211 100.568 315.102 98.0147 315.484 97.5527C317.976 94.541 316.115 91.2132 318.758 90.5644Z" fill="#893D09"/>
<path d="M320.032 95.7873C320.332 95.8287 320.635 95.987 320.897 96.2189C319.681 96.7959 318.584 97.4576 317.133 97.5153C316.13 97.5532 319.842 94.1298 316.977 93.8115C317.207 92.2189 317.225 90.9405 318.758 90.5645C321.288 89.9425 324.512 92.8422 320.032 95.7873Z" fill="#6D3007"/>
<path d="M326.726 108.34C326.726 109.508 325.228 110.49 322.821 110.489C321.275 110.488 318.665 107.696 319.731 105.834C320.307 104.829 323.16 105.355 324.553 105.884C326.294 106.545 326.726 107.373 326.726 108.34Z" fill="#6D3007"/>
<path d="M339.859 104.676C339.616 105.833 339.523 106.986 337.116 106.986C335.192 106.986 334.145 105.505 334.184 104.705C334.263 103.126 336.917 103.059 339.373 101.44C340.932 100.413 340.141 103.339 339.859 104.676Z" fill="#6D3007"/>
<path d="M312.3 104.654C311.337 105.294 310.001 103.98 307.822 104.816C308.304 103.089 308.729 101.098 308.97 98.8474C309.025 98.8474 309.08 98.8492 309.138 98.8562C312.993 99.3112 313.892 103.595 312.3 104.654Z" fill="#893D09"/>
<path d="M307.522 110.173C307.097 110.68 306.563 110.77 305.737 110.752C306.098 109.812 306.59 108.616 307.089 107.164C307.85 108.192 308.106 109.476 307.522 110.173Z" fill="#893D09"/>
<path d="M350.012 102.547C350.01 102.547 350.012 102.549 350.012 102.549C349.977 102.634 349.952 102.713 349.936 102.788C349.734 103.73 349.895 105.837 346.829 105.834C344.858 105.834 343.801 103.642 344.293 101.13C344.576 99.6761 346.732 98.8042 348.864 98.6133C349.278 98.5754 349.64 98.4983 349.963 98.3938C349.966 99.3883 349.989 100.954 350.012 102.547Z" fill="#893D09"/>
<path d="M326.289 117.845C326.243 117.845 326.195 117.843 326.147 117.839C324.832 117.724 324.124 116.069 323.555 114.739C323.401 114.377 323.198 113.904 323.06 113.681C322.93 113.703 322.748 113.747 322.614 113.78C322.035 113.919 321.436 114.064 320.958 113.837C320.415 113.58 320.148 112.865 319.809 111.961C319.712 111.702 319.574 111.335 319.447 111.059C319.308 111.333 319.153 111.705 319.035 111.986C318.521 113.212 317.991 114.48 316.937 114.56C316.084 114.621 315.408 113.766 314.695 112.855C314.438 112.526 314.035 112.011 313.781 111.804C313.595 112.121 313.34 112.826 313.145 113.365C312.486 115.183 311.666 117.446 309.964 117.574C309.508 117.61 309.131 117.488 308.841 117.218C308.238 116.658 308.223 115.662 308.2 114.155C308.198 114.001 308.196 113.839 308.192 113.671C306.402 114.193 305.251 114.19 304.769 113.658C304.114 112.937 304.53 111.877 305.359 109.766C306.469 106.943 308.313 102.249 308.464 95.7563C307.573 94.8971 306.575 93.04 307.579 90.5793C307.159 90.1587 306.593 89.4173 306.43 88.3606C306.223 87.0232 306.706 85.6015 307.867 84.1345C309.235 81.8775 314.725 77.9017 321.263 74.4373C326.816 71.4944 330.13 67.8439 333.053 64.6228C335.972 61.4079 338.492 58.6312 342.449 57.273C345.017 56.3922 346.908 57.6592 347.72 58.6329C348.583 58.7771 350.913 59.2911 352.011 60.7692C352.499 61.4269 352.682 62.1785 352.553 63.0024C352.516 63.2386 352.365 63.441 352.152 63.5415C351.938 63.6424 351.689 63.6288 351.488 63.5049C350.633 62.9799 349.522 62.9411 348.441 63.4C346.223 64.3403 344.415 67.1351 343.482 71.0672C341.785 78.216 347.788 80.1843 348.045 80.2645C348.299 80.3443 348.488 80.5621 348.533 80.8287C348.621 81.3383 350.668 93.3644 350.668 98.0124C350.668 99.0536 350.698 101.149 350.728 103.175C350.744 104.319 350.761 105.438 350.771 106.327C350.866 114.597 350.277 116.184 349.083 116.329C347.439 116.531 347.049 114.427 346.822 112.879C346.191 113.118 345.67 112.932 345.473 112.839C344.966 112.602 344.424 111.903 343.592 110.78C343.384 110.499 343.125 110.15 342.929 109.909C342.691 110.289 342.376 111.003 342.15 111.514C341.42 113.164 340.73 114.723 339.559 114.613C338.674 114.53 338.231 113.601 337.717 112.525C336.971 110.962 336.353 109.869 335.213 110.058C334.544 110.168 334.249 110.688 333.843 111.531C333.527 112.186 333.169 112.929 332.396 113.137C331.68 113.329 331.029 112.917 330.506 112.586C329.902 112.204 329.699 112.127 329.566 112.232C329.293 112.449 328.957 113.579 328.735 114.327C328.243 115.98 327.689 117.845 326.289 117.845ZM323.191 112.228C323.305 112.228 323.414 112.24 323.518 112.27C324.117 112.443 324.41 113.128 324.853 114.165C325.159 114.879 325.793 116.364 326.267 116.406C326.635 116.437 327.174 114.603 327.379 113.912C327.749 112.669 328.068 111.596 328.697 111.098C329.645 110.348 330.614 110.961 331.254 111.366C331.484 111.511 331.907 111.78 332.035 111.747C332.182 111.707 332.416 111.221 332.571 110.899C332.983 110.046 333.546 108.876 334.986 108.639C337.26 108.267 338.3 110.452 338.991 111.899C339.191 112.318 339.481 112.927 339.675 113.137C340.018 112.827 340.558 111.606 340.858 110.926C341.58 109.292 342.151 108.001 343.217 108.325C343.606 108.443 343.904 108.81 344.723 109.916C345.106 110.432 345.817 111.393 346.074 111.539C346.255 111.624 346.518 111.482 346.792 111.149C346.964 110.94 347.237 110.846 347.498 110.91C347.759 110.973 347.963 111.18 348.024 111.445C348.085 111.707 348.132 112.036 348.186 112.416C348.389 113.833 348.602 114.653 348.82 114.858C349.081 114.351 349.426 112.526 349.356 106.345C349.346 105.457 349.329 104.34 349.313 103.197C349.283 101.166 349.253 99.0655 349.253 98.0137C349.253 93.9533 347.568 83.6421 347.206 81.4776C345.647 80.8138 340.382 77.9925 342.106 70.7313C343.53 64.7304 346.345 62.7313 347.896 62.0736C348.927 61.6363 349.995 61.534 350.966 61.7606C350.94 61.7187 350.912 61.6777 350.882 61.6363C350.095 60.577 347.994 60.1088 347.251 60.0176C347.049 59.9929 346.868 59.8814 346.752 59.7112C346.7 59.6358 345.379 57.7866 342.903 58.6365C339.288 59.8769 336.881 62.5285 334.094 65.5988C331.092 68.9059 327.689 72.6546 321.917 75.713C314.812 79.4785 310.068 83.1938 309.055 84.9183C309.038 84.9478 309.018 84.976 308.997 85.0025C308.084 86.1459 307.69 87.1947 307.825 88.1195C307.983 89.1903 308.829 89.781 308.838 89.7867C309.136 89.9908 309.241 90.3924 309.076 90.7164C307.753 93.3177 309.409 94.7041 309.602 94.8539C309.781 94.9919 309.889 95.2119 309.885 95.4398C309.788 102.373 307.838 107.335 306.674 110.299C306.322 111.193 305.93 112.191 305.872 112.632C306.37 112.651 307.556 112.395 308.645 112.018C308.856 111.945 309.089 111.978 309.273 112.106C309.457 112.234 309.571 112.443 309.58 112.669C309.602 113.206 309.609 113.699 309.616 114.133C309.627 114.923 309.642 115.901 309.786 116.139C309.801 116.141 309.825 116.141 309.86 116.139C310.653 116.079 311.381 114.069 311.817 112.868C312.282 111.583 312.59 110.735 313.183 110.42C314.184 109.889 315.044 110.99 315.804 111.96C316.103 112.342 316.59 112.964 316.842 113.107C317.114 112.902 317.529 111.912 317.733 111.424C318.208 110.289 318.583 109.394 319.393 109.337C320.327 109.272 320.714 110.329 321.134 111.45C321.257 111.779 321.453 112.303 321.587 112.517C321.765 112.507 322.096 112.426 322.288 112.38C322.618 112.3 322.919 112.228 323.191 112.228Z" fill="#371A45"/>
<path d="M337.116 68.1578C339.08 64.0784 342.494 59.1196 347.302 58.5849L347.368 60.0215C346.848 60.0229 346.324 60.0899 345.804 60.219C342.076 61.2523 339.093 64.9279 337.116 68.1578Z" fill="#371A45"/>
<path d="M317.976 97.0105C320.236 95.3208 322.311 93.5615 324.207 91.4764C326.104 89.4416 328.132 87.1886 330.796 86.1813C328.552 87.9534 326.907 90.128 324.975 92.2214C323.047 94.3118 320.655 96.0707 317.976 97.0105Z" fill="#371A45"/>
<path d="M313.509 93.7322C312.501 94.8043 311.278 95.8336 309.719 95.8671C309.133 95.871 308.526 95.6387 308.06 95.2684L309.036 94.2263C309.136 94.3577 309.247 94.4763 309.379 94.575C310.624 95.357 312.378 94.4401 313.509 93.7322Z" fill="#371A45"/>
<path d="M317.542 86.9528C316.207 87.9737 314.82 88.9162 313.354 89.7423C312.218 90.3612 311.03 90.9669 309.714 91.1763C309.247 91.238 308.723 91.2631 308.146 91.0383L308.748 89.7365C309.263 90.0332 310.117 89.9155 310.743 89.7961C313.125 89.2583 315.393 88.1275 317.542 86.9528Z" fill="#371A45"/>
<path d="M313.414 80.4839C313.414 80.4839 310.266 80.7894 309.177 79.6794C309.177 79.6794 305.023 82.0334 307.96 85.8188C310.216 88.7251 316.279 88.003 316.279 88.003" fill="white"/>
<path d="M316.278 88.0032C316.278 88.0032 310.216 88.7261 307.96 85.8198C306.466 83.8917 306.808 82.3355 307.505 81.274C307.671 81.7338 307.939 82.2201 308.337 82.7341C309.872 84.716 313.181 85.0087 315.131 84.9959L316.278 88.0032Z" fill="#E8E8E8"/>
<path d="M314.635 88.804C312.542 88.804 309.095 88.4438 307.404 86.2644C306.405 84.9768 306.025 83.6794 306.275 82.4085C306.692 80.2855 308.744 79.101 308.832 79.0517L309.3 78.7867L309.678 79.172C310.323 79.8288 312.428 79.8575 313.347 79.7685C313.737 79.7323 314.081 80.021 314.119 80.416C314.156 80.8114 313.87 81.1623 313.481 81.2002C313.163 81.2311 310.615 81.4453 309.154 80.5606C308.67 80.9283 307.858 81.6799 307.662 82.6982C307.5 83.5344 307.788 84.4345 308.516 85.3735C310.498 87.9276 316.14 87.2955 316.197 87.2884C316.587 87.2421 316.937 87.5251 316.982 87.9197C317.027 88.3142 316.75 88.6708 316.361 88.7171C316.278 88.7273 315.6 88.804 314.635 88.804Z" fill="#371A45"/>
<path d="M313.881 92.2002L332.357 93.0342C334.544 93.1334 336.414 91.3962 336.512 89.1718L336.948 79.1823C337.033 77.2348 335.731 75.5372 333.937 75.0787C333.683 75.0121 333.419 74.9738 333.146 74.961L314.673 74.127C312.484 74.0278 310.613 75.7651 310.518 77.9894L310.171 85.9013L310.079 87.9789C309.982 90.2033 311.695 92.101 313.881 92.2002Z" fill="white"/>
<path d="M313.881 92.2002L332.357 93.0342C334.544 93.1334 336.414 91.3962 336.512 89.1718L336.948 79.1823C337.033 77.2348 335.731 75.5372 333.937 75.0787C333.683 75.0121 333.419 74.9738 333.146 74.961L314.673 74.127C312.484 74.0278 310.613 75.7651 310.518 77.9894L310.171 85.9013L310.079 87.9789C309.982 90.2033 311.695 92.101 313.881 92.2002Z" fill="white"/>
<path d="M336.948 79.1823L336.759 83.5182L336.512 89.1722C336.414 91.3966 334.544 93.1352 332.357 93.0355L313.881 92.2019C311.695 92.1028 309.982 90.205 310.079 87.9806L310.171 85.9026L310.252 84.0503L310.518 77.9903C310.615 75.7659 312.483 74.0282 314.673 74.1269L333.146 74.9614C333.419 74.9742 333.685 75.0125 333.938 75.0778C335.732 75.5362 337.033 77.2356 336.948 79.1823Z" fill="white"/>
<path d="M336.759 83.5182L336.512 89.1722C336.414 91.3966 334.544 93.1352 332.357 93.0356L313.881 92.202C311.695 92.1028 309.982 90.2051 310.079 87.9807L310.171 85.9026L310.252 84.0503C310.826 85.8308 311.982 88.0653 314.23 88.6944C319.672 90.2161 322.516 87.7713 323.912 82.9712C323.912 82.9712 329.12 81.5416 329.987 82.8892C330.857 84.2385 330.358 86.6723 331.509 86.4603C332.658 86.2487 332.632 82.3426 332.632 82.3426L336.759 83.5182Z" fill="#E8E8E8"/>
<path d="M333.499 93.8031C333.444 93.8031 333.388 93.8018 333.333 93.7996L312.842 92.8743C310.815 92.7826 309.239 91.0321 309.328 88.9721L309.855 76.9319C309.898 75.9375 310.323 75.0175 311.05 74.3417C311.777 73.6659 312.712 73.3194 313.696 73.3622L334.187 74.2875C335.165 74.332 336.071 74.7631 336.736 75.5015C337.401 76.2403 337.743 77.1947 337.7 78.1892L337.173 90.2293C337.129 91.2238 336.705 92.1438 335.978 92.8196C335.292 93.4575 334.417 93.8031 333.499 93.8031ZM313.531 74.7966C312.967 74.7966 312.429 75.0095 312.006 75.4027C311.558 75.8193 311.296 76.3849 311.269 76.9959L310.743 89.036C310.687 90.3038 311.657 91.3808 312.905 91.4372L333.396 92.3625C334.001 92.3889 334.574 92.1751 335.023 91.7585C335.471 91.342 335.732 90.776 335.759 90.1654L336.286 78.1253C336.312 77.5143 336.101 76.9271 335.691 76.4722C335.281 76.0168 334.725 75.7514 334.123 75.7241L313.633 74.7988C313.599 74.7975 313.565 74.7966 313.531 74.7966Z" fill="#371A45"/>
<path d="M336.948 79.1824L336.892 80.4894L336.77 83.2692L336.704 84.7345L336.509 89.1727C336.485 89.7643 336.331 90.3255 336.081 90.8227C335.392 92.195 333.96 93.1049 332.357 93.0352L327.632 92.7513C329.819 92.8483 331.689 91.1097 331.787 88.888L331.943 85.3142L331.989 84.292L332.223 78.8954C332.309 76.928 330.979 75.2163 329.154 74.7799L333.145 74.9602C335.332 75.0603 337.045 76.958 336.948 79.1824Z" fill="white"/>
<path d="M336.892 80.4893L336.77 83.2691L336.704 84.7344L336.509 89.1726C336.485 89.7642 336.331 90.3253 336.081 90.8226C335.392 92.1949 333.96 93.1047 332.357 93.0351L327.632 92.7512C329.819 92.8482 331.689 91.1096 331.787 88.8878L331.943 85.3141C332.257 85.542 332.643 85.6681 332.918 85.2458C333.464 84.4104 333.826 80.6969 335.12 80.2605C335.55 80.115 336.207 80.2468 336.892 80.4893Z" fill="#D8D8D8"/>
<path d="M332.539 93.758C332.467 93.758 332.397 93.7567 332.325 93.7532L315.661 92.9266L315.662 92.9094C315.27 92.8482 314.964 92.6864 314.984 92.1786L315.014 91.4622L315.77 91.4918C316.388 91.5208 323.738 91.8532 327.664 92.0304C328.531 92.0719 329.367 91.7607 330.015 91.1585C330.663 90.5563 331.04 89.7382 331.078 88.8548L331.515 78.864C331.585 77.2691 330.524 75.8457 328.993 75.4794L329.186 74.0608L333.177 74.2402C335.762 74.3588 337.77 76.5893 337.654 79.2135L337.217 89.2039C337.162 90.4708 336.622 91.6434 335.695 92.5048C334.822 93.3176 333.707 93.758 332.539 93.758ZM330.944 92.2451L332.391 92.317C333.254 92.354 334.092 92.0472 334.74 91.4446C335.387 90.8424 335.765 90.0243 335.803 89.1413V89.1409L336.24 79.1501C336.321 77.318 334.919 75.7606 333.114 75.6782L331.804 75.6191C332.558 76.5126 332.984 77.6843 332.93 78.9288L332.493 88.9191C332.438 90.186 331.897 91.3586 330.97 92.2204C330.962 92.2284 330.953 92.2367 330.944 92.2451Z" fill="#371A45"/>
<path d="M324.717 83.6438C324.703 84.0132 325.1 87.0161 325.1 87.0161C325.1 87.0161 326.03 87.0527 327.172 87.0977C328.599 87.1536 329.813 85.6985 329.883 83.847C329.953 81.9956 328.854 80.4492 327.427 80.3932C326.465 80.3553 325.355 80.3116 325.355 80.3116C325.355 80.3116 324.74 83.0421 324.717 83.6438Z" fill="#22A7F0"/>
<path d="M324.717 83.6438C324.703 84.0132 325.1 87.0161 325.1 87.0161C325.1 87.0161 326.03 87.0527 327.172 87.0977C328.599 87.1536 329.813 85.6985 329.883 83.847C329.953 81.9956 328.854 80.4492 327.427 80.3932C326.465 80.3553 325.355 80.3116 325.355 80.3116C325.355 80.3116 324.74 83.0421 324.717 83.6438Z" fill="#1675DB"/>
<path d="M327.254 87.6385C327.22 87.6385 327.186 87.6381 327.151 87.6368L325.331 87.5654C324.925 87.5491 324.593 87.2418 324.54 86.8349C324.296 84.9544 324.176 83.8739 324.186 83.6235V83.6231C324.205 83.1144 324.568 81.4102 324.782 80.4395C324.87 80.0427 325.216 79.7681 325.624 79.7827L327.447 79.8545C328.304 79.888 329.085 80.3416 329.646 81.1311C330.179 81.8805 330.451 82.8525 330.413 83.8682C330.374 84.8834 330.029 85.8312 329.44 86.5369C328.846 87.2502 328.073 87.6385 327.254 87.6385ZM325.567 86.495L327.193 86.559C327.716 86.5832 328.227 86.324 328.631 85.8391C329.066 85.3167 329.323 84.6017 329.352 83.8263C329.382 83.0509 329.181 82.3178 328.786 81.7628C328.42 81.2479 327.93 80.953 327.407 80.9323L325.776 80.868C325.459 82.3121 325.258 83.3745 325.247 83.6637C325.244 83.8201 325.342 84.7542 325.567 86.495Z" fill="#371A45"/>
<path d="M327.817 83.7669C327.888 81.9155 326.788 80.3691 325.361 80.3129C323.935 80.2568 322.721 81.7122 322.65 83.5636C322.58 85.415 323.679 86.9614 325.106 87.0176C326.533 87.0737 327.747 85.6183 327.817 83.7669Z" fill="#22A7F0"/>
<path d="M327.811 83.7664C327.741 85.617 326.527 87.073 325.101 87.0174C323.673 86.9615 322.573 85.4146 322.645 83.5618C322.654 83.3119 322.685 83.0681 322.736 82.834C323.054 84.1199 323.965 85.0633 325.073 85.1052C326.305 85.1537 327.38 84.075 327.692 82.5841C327.784 82.9544 327.826 83.3525 327.811 83.7664Z" fill="#1675DB"/>
<path d="M327.811 83.7664C327.807 83.8925 327.796 84.0163 327.779 84.1384C327.551 82.6767 326.578 81.5645 325.373 81.5178C324.044 81.4666 322.897 82.7269 322.695 84.399C322.651 84.1287 322.635 83.8497 322.645 83.5623C322.715 81.7117 323.929 80.2557 325.355 80.3112C326.781 80.3685 327.881 81.9136 327.811 83.7664Z" fill="white"/>
<path d="M325.179 87.5575C325.146 87.5575 325.113 87.557 325.079 87.5557C323.362 87.4883 322.032 85.6875 322.114 83.542C322.196 81.3966 323.659 79.7087 325.376 79.773C327.093 79.8405 328.423 81.6412 328.341 83.7867C328.261 85.8907 326.852 87.5575 325.179 87.5575ZM323.175 83.5835C323.116 85.1347 323.989 86.433 325.12 86.4775C326.262 86.5286 327.221 85.2956 327.281 83.7448C327.34 82.1936 326.467 80.8954 325.335 80.8508C324.202 80.8041 323.234 82.0322 323.175 83.5835Z" fill="#371A45"/>
<path d="M319.628 92.9271C319.624 92.9271 319.621 92.9271 319.617 92.9271C319.324 92.9209 319.091 92.6745 319.097 92.3765L319.213 86.7177C319.226 86.0997 318.934 85.5204 318.434 85.1682L317.45 84.4761C316.637 83.9039 316.176 82.9628 316.216 81.959L316.528 74.2186C316.54 73.9211 316.796 73.6967 317.081 73.702C317.373 73.7143 317.601 73.9656 317.589 74.2632L317.277 82.0035C317.252 82.6361 317.542 83.229 318.055 83.5896L319.039 84.2817C319.833 84.8407 320.295 85.7598 320.274 86.7402L320.158 92.399C320.153 92.6926 319.916 92.9271 319.628 92.9271Z" fill="#371A45"/>
<path d="M350.645 81.0372C350.645 81.0372 346.089 81.672 336.923 81.4137C336.923 81.4137 334.127 81.5023 333.882 84.3253C333.622 87.3225 336.604 88.332 336.604 88.332C336.604 88.332 344.437 89.825 350.241 87.3542C353.767 85.8528 350.645 81.0372 350.645 81.0372Z" fill="white"/>
<path d="M350.24 87.3532C344.438 89.8249 336.605 88.3328 336.605 88.3328C336.605 88.3328 333.753 87.366 333.87 84.5223C333.872 84.4571 333.876 84.3918 333.883 84.3248C334.127 81.5022 336.923 81.4141 336.923 81.4141C339.451 81.4855 341.629 81.4899 343.458 81.4559C348.257 81.37 350.646 81.0376 350.646 81.0376C350.646 81.0376 353.767 85.8527 350.24 87.3532Z" fill="white"/>
<path d="M350.24 87.3532C344.438 89.8249 336.605 88.3328 336.605 88.3328C336.605 88.3328 333.753 87.366 333.87 84.5223C335.283 85.4031 337.724 86.4998 340.494 85.9197C342.843 85.4277 343.452 83.4061 343.458 81.4559C348.257 81.37 350.646 81.0376 350.646 81.0376C350.646 81.0376 353.767 85.8527 350.24 87.3532Z" fill="#E8E8E8"/>
<path d="M342.02 89.5041C338.98 89.5045 336.65 89.0721 336.473 89.0386C336.442 89.0324 336.41 89.0245 336.38 89.0139C335.165 88.6026 332.932 87.08 333.176 84.2618C333.414 81.5257 335.716 80.7317 336.901 80.6947C336.915 80.6943 336.929 80.6943 336.942 80.6947C345.927 80.9495 350.504 80.331 350.549 80.3249C350.819 80.287 351.086 80.4108 351.236 80.6418C351.315 80.7635 353.158 83.6451 352.473 85.9282C352.187 86.8834 351.528 87.5861 350.514 88.0176C347.772 89.1845 344.634 89.5041 342.02 89.5041ZM336.787 87.6346C337.476 87.7562 344.676 88.9438 349.967 86.6908C350.581 86.4294 350.958 86.0432 351.118 85.5107C351.468 84.3505 350.759 82.6859 350.274 81.806C348.896 81.9581 344.496 82.3456 336.929 82.1331C336.644 82.1485 334.765 82.3306 334.587 84.3884C334.393 86.6189 336.469 87.5111 336.787 87.6346Z" fill="#371A45"/>
<path d="M357.222 76.4279C352.666 75.709 348.264 81.6415 345.641 81.8827C345.132 82.0585 343.177 80.0462 339.926 80.945C338.067 81.459 336.387 83.552 337.869 85.735C336.434 86.6881 335.685 89.7597 336.394 92.1741C337.028 94.3315 338.709 95.3052 341.261 95.1386C343.31 95.6495 344.726 97.0103 348.116 96.689C350.277 96.5409 362.204 93.445 363.769 84.8018C364.249 82.1507 364.116 78.5038 360.89 73.0861" fill="white"/>
<path d="M363.768 84.8022C362.204 93.4445 350.276 96.5404 348.116 96.6894C344.726 97.0095 343.31 95.6504 341.261 95.1377C338.709 95.3048 337.028 94.3306 336.395 92.1732C335.685 89.7588 336.434 86.6881 337.868 85.735C337.801 85.6363 337.741 85.5371 337.686 85.4383C336.538 83.3656 338.152 81.4344 339.924 80.9455C343.177 80.0467 345.132 82.0586 345.641 81.8822C348.264 81.6415 352.664 75.7085 357.223 76.4275L360.889 73.0852C362.182 75.2571 362.979 77.143 363.437 78.7952C364.124 81.2677 364.055 83.2131 363.768 84.8022Z" fill="white"/>
<path d="M363.768 84.8024C362.204 93.4447 350.276 96.5406 348.116 96.6896C344.726 97.0096 343.31 95.6505 341.261 95.1379C338.709 95.3049 337.028 94.3307 336.395 92.1733C335.685 89.759 336.434 86.6882 337.868 85.7351C337.801 85.6364 337.741 85.5372 337.686 85.4385L339.415 85.7316C339.205 85.71 337.467 85.6148 337.247 88.7574C337.042 91.6805 338.109 93.4641 339.505 93.6276C340.901 93.7894 341.991 92.8509 341.991 92.8509C341.991 92.8509 342.745 94.4202 344.784 94.7799C346.822 95.1396 348.604 94.0014 348.965 89.5967C348.965 89.5967 349.444 90.645 349.252 93.3578C349.094 95.5981 359.789 91.4394 361.992 86.1808C363.078 83.5901 363.393 80.8645 363.437 78.7953C364.124 81.2679 364.055 83.2132 363.768 84.8024Z" fill="#E5E5E5"/>
<path d="M357.222 76.4282C353.358 76.4749 350.617 80.0901 347.529 81.9689C347.018 82.2664 346.472 82.5785 345.712 82.6768L345.893 82.6376C345.728 82.6936 345.6 82.6949 345.502 82.6905C344.911 82.6323 344.444 82.2783 343.929 82.0769C342.387 81.3927 340.448 81.2874 339.042 82.3268C338.068 83.0656 337.769 84.288 338.464 85.3456C338.672 85.6788 338.578 86.1192 338.256 86.3365C336.37 87.812 336.262 92.6703 338.461 93.9037C339.22 94.3648 340.216 94.4864 341.216 94.4208C341.289 94.4155 341.363 94.4234 341.43 94.4402C343.101 94.8788 344.443 95.7758 346.102 95.9526C346.77 96.0412 347.459 96.0245 348.132 95.9658C352.069 95.3416 356.25 93.5263 359.302 90.9158C363.284 87.5422 364.158 82.7337 362.408 77.8869C361.858 76.355 361.127 74.8765 360.285 73.4579L361.496 72.7134C363.718 76.4207 365.381 80.8867 364.393 85.2883C362.978 91.5686 356.765 95.0511 351.139 96.7686C348.494 97.592 345.952 97.7895 343.35 96.6756C342.546 96.3524 341.82 96.0187 341.093 95.8362L341.307 95.8556C338.589 96.0782 336.247 94.873 335.623 92.02C335.114 89.7745 335.509 86.5759 337.482 85.1322L337.287 86.1426C336.937 85.6621 336.646 85.0775 336.557 84.4172C336.274 82.4383 337.835 80.6751 339.618 80.1527C341.861 79.4884 343.659 80.0381 345.644 81.0991C345.64 81.1079 345.603 81.0661 345.389 81.1278L345.571 81.0885C345.9 81.0727 346.357 80.884 346.789 80.646C349.87 78.8584 353.378 75.3627 357.222 76.4282Z" fill="#371A45"/>
<path d="M317.398 102.285C322.214 104.485 327.571 104.556 332.678 103.583C334.386 103.242 336.072 102.768 337.81 102.285C332.135 106.272 322.809 107.167 317.398 102.285Z" fill="#371A45"/>
<path d="M347.335 111.61C347.756 110.857 348.286 106.182 348.286 106.182Z" fill="#FF822E"/>
<path d="M346.72 111.255C346.937 110.943 347.037 110.545 347.171 110.177C347.599 108.868 347.948 107.524 348.286 106.182C348.296 107.111 348.294 108.04 348.272 108.974C348.215 109.967 348.283 111.006 347.951 111.964L346.72 111.255Z" fill="#371A45"/>
<path d="M308.872 112.699C308.872 111.298 309.403 105.193 309.403 105.193Z" fill="#F89941"/>
<path d="M308.164 112.699C308.473 110.197 308.971 107.664 309.402 105.193C309.415 107.012 309.446 109.029 309.492 110.856C309.512 111.477 309.529 112.121 309.58 112.699H308.164Z" fill="#371A45"/>
<path d="M327.076 104.192C328.998 104.724 328.974 108.605 328.911 110.227C328.613 108.843 328.271 107.366 327.497 106.186C327.316 105.956 327.116 105.667 326.835 105.588C326.823 105.583 326.823 105.591 326.82 105.592C326.813 105.592 326.836 105.604 326.84 105.606C326.838 105.606 326.879 105.617 326.897 105.618L327.076 104.192Z" fill="#371A45"/>
<path d="M333.356 124.715C334.423 124.1 335.627 123.768 336.81 123.46C338.005 123.168 339.222 122.951 340.457 122.839C342.948 122.656 345.943 122.624 347.871 124.565L346.799 125.505C346.505 125.119 346.085 124.793 345.601 124.538C342.627 122.989 336.427 123.429 333.356 124.715Z" fill="#371A45"/>
<path d="M344.337 80.5942C346.936 82.4726 349.077 84.3337 348.795 87.8894C348.677 86.4563 348.137 85.0633 347.116 84.0741C346.103 83.062 344.843 82.4832 343.576 81.8065L344.337 80.5942Z" fill="#371A45"/>
<path d="M309.067 53.8576C309.067 56.7247 307.862 60.2125 303.311 59.2836C296.991 62.3707 295.632 57.3365 293.296 56.7873C292.42 57.1593 291.251 57.6429 291.251 57.6429C291.883 55.4454 292.908 53.4732 295.167 52.2098C295.168 52.208 295.168 52.208 295.168 52.208C296.685 51.3581 298.76 50.8265 301.645 50.7604C305.282 48.7842 308.553 50.1926 309.067 53.8576Z" fill="white"/>
<path d="M309.067 53.8576C309.067 56.7247 307.862 60.2125 303.311 59.2836C296.991 62.3707 295.632 57.3365 293.296 56.7873C292.42 57.1593 291.251 57.6429 291.251 57.6429C291.883 55.4454 292.908 53.4732 295.167 52.2098C295.1 52.2671 293.55 53.6253 295.084 55.7853C296.375 57.6054 299.425 57.1562 300.852 56.9129C303.343 56.4871 303.887 55.195 303.887 55.195C303.887 55.195 307.105 56.6065 309.067 53.8576Z" fill="#E5E5E5"/>
<path d="M299.627 61.0033C297.335 61.0038 295.929 59.7082 294.804 58.6718C294.264 58.1737 293.788 57.7351 293.332 57.5512C292.494 57.9043 291.517 58.309 291.517 58.309C291.266 58.4135 290.977 58.3619 290.775 58.1768C290.574 57.9916 290.494 57.706 290.571 57.441C291.589 53.9083 293.682 50.2733 301.462 50.0449C303.479 48.9962 305.532 48.8613 307.119 49.6786C308.563 50.4227 309.504 51.8708 309.767 53.7562C309.772 53.7897 309.774 53.8237 309.774 53.8572C309.774 55.2078 309.516 57.6888 307.786 59.1285C306.68 60.0489 305.208 60.3531 303.406 60.0331C301.921 60.73 300.68 61.0033 299.627 61.0033ZM293.296 56.0688C293.349 56.0688 293.403 56.0749 293.455 56.0873C294.331 56.2927 295.023 56.931 295.756 57.6063C297.349 59.0747 298.997 60.5934 303.005 58.6357C303.144 58.5678 303.3 58.5479 303.451 58.5788C304.924 58.879 306.08 58.6899 306.889 58.0163C307.815 57.2462 308.349 55.7509 308.359 53.9092C308.153 52.5268 307.487 51.4811 306.479 50.9618C305.27 50.339 303.63 50.4972 301.979 51.3938C301.881 51.4472 301.772 51.4763 301.661 51.4785C295.765 51.6134 293.549 53.7677 292.445 56.3681C292.642 56.2852 292.839 56.2023 293.024 56.1243C293.11 56.0873 293.203 56.0688 293.296 56.0688Z" fill="#371A45"/>
<path d="M303.568 54.16C304.704 56.3204 304.909 59.2162 302.405 60.4531L301.889 59.1139C304.046 58.6281 304.051 55.9233 303.568 54.16Z" fill="#371A45"/>
<path d="M308.627 61.7426C308.577 63.5306 307.707 66.0072 304.458 67.4284C303.165 67.9939 300.507 68.4215 297.171 68.2337C297.171 68.2337 296.053 66.4405 299.464 65.569C302.693 64.7438 304.969 63.5791 305.205 63.4552C305.219 63.4482 305.226 63.4447 305.226 63.4447C302.098 63.7114 300.426 62.4158 301.286 60.5132C302.343 58.1724 307.475 58.5052 308.264 59.7757C308.461 60.0926 308.651 60.8262 308.627 61.7426Z" fill="white"/>
<path d="M308.627 61.7424C308.577 63.5304 307.707 66.0069 304.458 67.4281C303.165 67.9937 300.507 68.4213 297.171 68.2335C297.171 68.2335 296.053 66.4403 299.464 65.5688C302.693 64.7435 304.969 63.5789 305.205 63.455C306.436 63.3351 307.744 62.893 308.627 61.7424Z" fill="#E5E5E5"/>
<path d="M305.227 63.4442C303.626 63.9022 301.166 63.9309 300.503 61.9423C300.318 61.1775 300.487 60.4145 300.878 59.7713C302.051 58.0459 304.338 57.7872 306.211 58.0018C307.212 58.1641 308.294 58.3796 308.96 59.3093C310.063 61.4685 309.291 64.5207 307.656 66.2024C306.678 67.2362 305.385 67.9644 304.03 68.3422C301.776 68.8782 299.402 68.7508 297.17 68.2346C298.457 68.0601 299.72 67.9133 300.953 67.6695C302.14 67.4209 303.333 67.2031 304.397 66.6137C306.56 65.5289 308.121 63.3036 307.73 60.8324C307.694 60.6256 307.645 60.414 307.558 60.228C307.192 59.9009 306.52 59.77 305.998 59.6959C304.67 59.5549 302.407 59.6316 301.808 61.0519C301.643 61.4909 301.635 61.8639 301.94 62.2448C302.763 63.1405 304.063 63.2727 305.227 63.4442Z" fill="#371A45"/>
<path d="M337.868 85.7351C337.868 85.7351 340.301 84.3386 343.472 85.1025Z" fill="white"/>
<path d="M337.52 85.1087C339.415 84.3725 341.579 84.4065 343.472 85.1025C341.738 84.9174 339.95 85.2775 338.461 86.1922C338.372 86.2465 338.271 86.3152 338.217 86.3611L337.52 85.1087Z" fill="#371A45"/>
<path d="M363.747 85.4499C363.743 85.4499 363.738 85.4499 363.734 85.4499C363.441 85.4419 363.209 85.1946 363.217 84.8966C363.288 82.1199 362.239 80.1516 360.099 79.0469C356.842 77.3652 352.247 78.2636 350.931 79.2942C350.699 79.4759 350.365 79.4322 350.186 79.1959C350.007 78.9601 350.05 78.6215 350.283 78.4395C352.04 77.0632 357.139 76.3081 360.58 78.0851C362.324 78.9852 364.381 80.9024 364.278 84.9244C364.271 85.2176 364.035 85.4499 363.747 85.4499Z" fill="#371A45"/>
<path d="M359.19 20.8206C359.19 20.8206 365.845 23.3839 366.529 24.6354C367.797 26.9559 367.561 40.5945 364.054 44.1506C362.681 45.5427 352.591 46.844 352.591 46.844L359.19 20.8206Z" fill="white"/>
<path d="M352.591 46.8445C352.591 46.8445 362.68 45.5427 364.053 44.1502C365.422 42.7629 366.294 39.8367 366.769 36.6483C366.658 36.7505 363.094 39.8755 355.985 33.5233C355.981 33.5198 355.976 33.5158 355.972 33.5123L352.591 46.8445Z" fill="#E5E5E5"/>
<path d="M308.294 46.8445C308.294 46.8445 298.204 45.5427 296.831 44.1502C295.463 42.7629 294.591 39.8367 294.115 36.6483C294.114 36.6465 294.114 36.6465 294.114 36.6465C293.37 31.6701 293.584 26.0509 294.357 24.6359C295.04 23.3844 301.695 20.8201 301.695 20.8201L304.913 33.5118L308.294 46.8445Z" fill="white"/>
<path d="M308.294 46.8445C308.294 46.8445 298.204 45.5427 296.831 44.1502C295.462 42.7629 294.591 39.8367 294.115 36.6483C294.227 36.7505 297.791 39.8755 304.9 33.5233C304.903 33.5198 304.909 33.5158 304.912 33.5123L308.294 46.8445Z" fill="#E5E5E5"/>
<path d="M351.645 47.691L358.702 19.8636L359.441 20.1484C361.059 20.7717 366.396 22.9119 367.148 24.2864C368.551 26.8551 368.373 40.7877 364.554 44.6594C363.084 46.1498 354.405 47.3348 352.68 47.5569L351.645 47.691ZM359.677 21.7834L353.538 45.9911C358.093 45.352 362.855 44.3504 363.554 43.6416C366.798 40.3526 367.047 27.0667 365.91 24.9847C365.575 24.412 362.553 22.9375 359.677 21.7834Z" fill="#371A45"/>
<path d="M309.24 47.691L308.206 47.5574C306.481 47.3348 297.802 46.1498 296.332 44.6599C292.513 40.7881 292.334 26.8551 293.738 24.2869C294.489 22.9119 299.826 20.7717 301.444 20.1484L302.183 19.8636L309.24 47.691ZM301.208 21.7834C298.333 22.9375 295.31 24.412 294.975 24.9856C293.838 27.0667 294.087 40.3526 297.331 43.6416C298.03 44.35 302.792 45.3515 307.347 45.9911L301.208 21.7834Z" fill="#371A45"/>
<path d="M330.344 38.1736V38.2904L330.271 38.2334L330.344 38.1736Z" fill="#D8D8D8"/>
<path d="M330.271 38.2334L330.198 38.2904V38.1736L330.271 38.2334Z" fill="#D8D8D8"/>
<path d="M330.44 63.8334C347.48 63.8334 361.293 49.7987 361.293 32.4861C361.293 15.1735 347.48 1.13885 330.44 1.13885C313.401 1.13885 299.588 15.1735 299.588 32.4861C299.588 49.7987 313.401 63.8334 330.44 63.8334Z" fill="white"/>
<path d="M361.293 32.4857C361.293 49.7985 347.48 63.833 330.441 63.833C313.401 63.833 299.586 49.7985 299.586 32.4857C299.586 30.6576 299.74 28.8657 300.038 27.1245C302.541 41.8823 315.2 53.1082 330.441 53.1082C345.681 53.1082 358.338 41.8818 360.842 27.1245C361.139 28.8653 361.293 30.6576 361.293 32.4857Z" fill="#E5E5E5"/>
<path d="M330.44 64.5525C313.038 64.5525 298.88 50.1676 298.88 32.4863C298.88 14.8049 313.038 0.420044 330.44 0.420044C347.842 0.420044 362 14.8049 362 32.4863C362 50.1676 347.842 64.5525 330.44 64.5525ZM330.44 1.85844C313.818 1.85844 300.295 15.598 300.295 32.4863C300.295 49.3746 313.818 63.1146 330.44 63.1146C347.062 63.1146 360.584 49.375 360.584 32.4863C360.584 15.5975 347.062 1.85844 330.44 1.85844Z" fill="#371A45"/>
<path d="M330.44 64.5525C313.038 64.5525 298.88 50.1676 298.88 32.4863C298.88 14.8049 313.038 0.420044 330.44 0.420044C347.842 0.420044 362 14.8049 362 32.4863C362 50.1676 347.842 64.5525 330.44 64.5525ZM330.44 1.85844C313.818 1.85844 300.295 15.598 300.295 32.4863C300.295 49.3746 313.818 63.1146 330.44 63.1146C347.062 63.1146 360.584 49.375 360.584 32.4863C360.584 15.5975 347.062 1.85844 330.44 1.85844Z" fill="#371A45"/>
<path d="M330.44 64.5525C313.038 64.5525 298.88 50.1676 298.88 32.4863C298.88 14.8049 313.038 0.420044 330.44 0.420044C347.842 0.420044 362 14.8049 362 32.4863C362 50.1676 347.842 64.5525 330.44 64.5525ZM330.44 1.85844C313.818 1.85844 300.295 15.598 300.295 32.4863C300.295 49.3746 313.818 63.1146 330.44 63.1146C347.062 63.1146 360.584 49.375 360.584 32.4863C360.584 15.5975 347.062 1.85844 330.44 1.85844Z" fill="#371A45"/>
<path d="M330.439 64.5521C316.059 64.5521 303.508 54.6967 299.897 40.5794C299.891 40.5617 299.885 40.5437 299.881 40.5256C299.216 37.9212 298.88 35.2163 298.88 32.4863C298.88 31.2767 298.947 30.0684 299.079 28.895C300.856 12.6626 314.338 0.420532 330.439 0.420532C346.545 0.420532 360.029 12.6666 361.803 28.906C361.933 30.0834 361.999 31.2882 361.999 32.4863C361.999 35.2119 361.664 37.9168 361.002 40.5247C360.997 40.5432 360.992 40.5617 360.986 40.5794C357.371 54.6971 344.818 64.5521 330.439 64.5521ZM301.256 40.1751C304.69 53.681 316.69 63.1137 330.439 63.1137C344.188 63.1137 356.189 53.6802 359.626 40.1743C359.631 40.1544 359.636 40.1346 359.643 40.1152C360.267 37.64 360.583 35.0731 360.583 32.4863C360.583 31.3415 360.52 30.1905 360.396 29.0656C358.701 13.5548 345.822 1.85893 330.439 1.85893C315.06 1.85893 302.183 13.5513 300.485 29.0563C300.359 30.1778 300.295 31.3314 300.295 32.4863C300.295 35.077 300.612 37.6431 301.238 40.1147C301.245 40.1346 301.251 40.1549 301.256 40.1751Z" fill="#371A45"/>
<path d="M360.217 24.9843C359.942 24.9843 359.682 24.8199 359.568 24.5496C354.689 13.0411 343.256 5.60489 330.44 5.60489C317.633 5.60489 306.202 13.0345 301.318 24.5329C301.17 24.8794 300.785 25.0509 300.435 24.927C300.084 24.8027 299.888 24.424 299.985 24.0599C303.702 10.1405 316.225 0.419067 330.44 0.419067C344.663 0.419067 357.19 10.1476 360.9 24.0771C360.998 24.4412 360.801 24.8199 360.45 24.9442C360.374 24.9715 360.295 24.9843 360.217 24.9843ZM330.44 4.16649C340.222 4.16649 349.237 8.323 355.372 15.262C349.871 7.06401 340.609 1.85703 330.44 1.85703C320.276 1.85703 311.017 7.06093 305.515 15.254C311.65 8.32035 320.663 4.16649 330.44 4.16649Z" fill="#371A45"/>
<g opacity="0.35">
<path d="M361.292 32.488C361.292 35.2012 360.953 37.8369 360.316 40.347C360.316 40.347 360.313 40.347 360.313 40.35C354.961 50.8561 343.594 59.8956 330.44 59.8956C317.285 59.8956 305.921 50.8557 300.569 40.3496C300.569 40.3465 300.567 40.3465 300.567 40.3465C300.186 38.8508 299.912 37.3123 299.752 35.7368C306.669 43.6328 316.727 49.3776 327.925 49.3776C342.19 49.3776 354.615 40.0547 361.044 28.8349C361.063 28.8865 361.083 28.9354 361.1 28.9865C361.227 30.1358 361.292 31.3044 361.292 32.488Z" fill="#111A28"/>
</g>
<path d="M361.29 32.4871C361.29 35.2003 360.952 37.836 360.315 40.3461C360.315 40.3461 360.312 40.346 360.312 40.3491C354.959 50.8552 343.593 59.8952 330.438 59.8952C317.284 59.8952 305.92 50.8552 300.568 40.3491C300.568 40.346 300.565 40.3461 300.565 40.3461C299.925 37.8365 299.586 35.2003 299.586 32.4871C299.586 31.3008 299.651 30.1291 299.781 28.9773C303.943 17.2761 316.094 8.81012 330.438 8.81012C344.785 8.81012 356.939 17.2823 361.098 28.9861C361.226 30.1349 361.29 31.3039 361.29 32.4871Z" fill="#371A45"/>
<g opacity="0.5">
<path d="M352.712 36.2885C354.875 35.4271 355.679 32.2709 354.508 29.2391C353.338 26.2073 350.637 24.4479 348.475 25.3094C346.313 26.1709 345.509 29.327 346.679 32.3588C347.849 35.3906 350.55 37.15 352.712 36.2885Z" fill="white"/>
</g>
<g opacity="0.5">
<path d="M353.921 42.4121C354.352 40.9832 353.723 39.5199 352.516 39.1437C351.309 38.7675 349.981 39.6208 349.55 41.0496C349.118 42.4784 349.747 43.9417 350.954 44.318C352.161 44.6942 353.489 43.8409 353.921 42.4121Z" fill="white"/>
</g>
<g opacity="0.5">
<path d="M307.603 41.2113C305.191 41.2113 302.584 30.606 309.819 21.9267C316.456 13.9632 328.768 12.3851 329.053 15.3959C329.365 18.6822 321.01 16.9524 314.356 27.2161C311.122 32.204 310.016 41.2113 307.603 41.2113Z" fill="white"/>
</g>
<path fill-rule="evenodd" clip-rule="evenodd" d="M206.424 87.5405C207.262 88.187 207.775 89.1473 207.863 90.1924L207.875 90.4428V100.543C207.875 103.147 205.812 105.264 203.225 105.401H200.738C199.549 105.377 198.588 104.456 198.5 103.297L198.488 103.122V99.5606C198.488 99.1732 198.199 98.8506 197.813 98.787L197.7 98.7746H194.362C193.963 98.787 193.638 99.0735 193.588 99.4472L193.575 99.5606V103.111C193.575 103.184 193.562 103.271 193.55 103.333L193.538 103.36L193.524 103.446C193.375 104.506 192.5 105.314 191.413 105.39L191.25 105.401H189.013C186.4 105.401 184.263 103.36 184.125 100.792V90.4428C184.137 89.3828 184.6 88.3987 185.375 87.7137L193.163 81.4732C194.75 80.2164 196.975 80.1666 198.612 81.3237L198.813 81.4732L206.424 87.5405ZM206.124 100.743L206.138 100.543V90.454C206.124 89.9196 205.9 89.4201 205.513 89.0477L205.35 88.9094L197.725 82.8309C196.775 82.0711 195.425 82.035 194.425 82.6939L194.237 82.8309L186.637 88.9356C186.2 89.2582 185.938 89.744 185.875 90.2547L185.862 90.454V100.543C185.862 102.2 187.162 103.558 188.813 103.657H191.25C191.525 103.657 191.763 103.472 191.799 103.21L191.825 102.986L191.838 102.922V99.5606C191.838 98.2278 192.863 97.1441 194.175 97.0432H197.7C199.037 97.0432 200.124 98.0658 200.225 99.3737V103.122C200.225 103.383 200.413 103.609 200.663 103.657H202.987C204.662 103.657 206.024 102.376 206.124 100.743Z" fill="white"/>
<path fill-rule="evenodd" clip-rule="evenodd" d="M52.9485 80.0001H42.0515C37.8198 80.0001 35 83.0143 35 87.3406V97.5716C35 101.902 37.8124 104.912 42.0515 104.912H52.9485C57.1876 104.912 60 101.902 60 97.5716V87.3406C60 83.0103 57.1876 80.0001 52.9485 80.0001ZM42.0514 81.7381H52.9485C56.1953 81.7381 58.2558 83.9434 58.2558 87.3406V97.5715C58.2558 100.969 56.1953 103.174 52.9485 103.174H42.0514C38.8046 103.174 36.7441 100.969 36.7441 97.5715V87.3406C36.7441 83.948 38.8115 81.7381 42.0514 81.7381ZM48.4083 86.451C48.3506 86.0268 47.9857 85.6999 47.5442 85.6999C47.0626 85.6999 46.6721 86.089 46.6721 86.5689V98.3213L46.6801 98.4392C46.7378 98.8634 47.1027 99.1903 47.5442 99.1903C48.0259 99.1903 48.4163 98.8012 48.4163 98.3213V86.5689L48.4083 86.451ZM42.9818 90.2544C42.9241 89.8302 42.5592 89.5033 42.1177 89.5033C41.6361 89.5033 41.2456 89.8924 41.2456 90.3723V98.3211L41.2536 98.4391C41.3113 98.8632 41.6762 99.1902 42.1177 99.1902C42.5993 99.1902 42.9898 98.8011 42.9898 98.3211V90.3723L42.9818 90.2544ZM52.8819 93.7039C53.3234 93.7039 53.6882 94.0308 53.746 94.455L53.754 94.5729V98.3213C53.754 98.8012 53.3635 99.1903 52.8819 99.1903C52.4404 99.1903 52.0755 98.8634 52.0177 98.4392L52.0098 98.3213V94.5729C52.0098 94.0929 52.4002 93.7039 52.8819 93.7039Z" fill="white"/>
</svg>
