<svg width="28" height="16" viewBox="0 0 28 16" fill="none" xmlns="http://www.w3.org/2000/svg">
<path fill-rule="evenodd" clip-rule="evenodd" d="M18.8077 2.09378L8.82334 2.09375C5.33394 2.09375 2.81653 3.77474 2.81653 5.9387V10.0613C2.81653 12.2253 5.33394 13.9062 8.82334 13.9062H18.7984C20.4744 13.8951 22.0608 13.4745 23.1973 12.7424C24.3339 12.0104 24.9214 11.0308 24.8231 10.0317L24.8245 5.9387C24.9214 4.96925 24.3339 3.98962 23.1973 3.25757C22.0608 2.52552 20.4744 2.10494 18.8077 2.09378ZM8.82334 3.09678L18.7891 3.09675C19.9989 3.10485 21.1504 3.41013 21.9753 3.9415C22.8003 4.47287 23.2268 5.18395 23.1554 5.90911L23.154 10.0613C23.2268 10.8161 22.8003 11.5271 21.9753 12.0585C21.1504 12.5899 19.9989 12.8952 18.7891 12.9033L8.82334 12.9032C6.2985 12.9032 4.4871 11.6937 4.4871 10.0613V5.9387C4.4871 4.30633 6.2985 3.09678 8.82334 3.09678ZM20.4577 5.79393C20.1694 5.57769 19.6437 5.54271 19.2836 5.71579L14.7706 7.88466L14.6413 7.93885C14.1092 8.13751 13.4104 8.11917 12.9007 7.88064L8.35477 5.71449L8.25245 5.67268C7.89986 5.5504 7.44194 5.59833 7.18124 5.79556C6.89446 6.01252 6.95492 6.32798 7.31627 6.50016L11.868 8.66903L12.0456 8.74651C13.1906 9.21136 14.7079 9.18567 15.8061 8.67175L20.3275 6.49886L20.4182 6.4483C20.6954 6.26921 20.7197 5.99051 20.4577 5.79393Z" fill="#C9C9CA"/>
</svg>
