<svg width="28" height="24" viewBox="0 0 28 24" fill="none" xmlns="http://www.w3.org/2000/svg">
<path fill-rule="evenodd" clip-rule="evenodd" d="M18.9071 3.00005L8.89505 3C5.39596 3 2.87155 5.56151 2.87155 8.85897V15.141C2.87155 18.4385 5.39596 21 8.89505 21H18.8978C20.5785 20.9829 22.1693 20.3421 23.309 19.2266C24.4487 18.111 25.0378 16.6183 24.9392 15.0959L24.9407 8.85897C25.0378 7.38171 24.4487 5.88895 23.309 4.77344C22.1693 3.65794 20.5785 3.01705 18.9071 3.00005ZM8.89505 4.52843L18.8884 4.52838C20.1016 4.54072 21.2563 5.00592 22.0836 5.81562C22.9109 6.62533 23.3385 7.70887 23.2669 8.81389L23.2655 15.141C23.3385 16.2911 22.9109 17.3747 22.0836 18.1844C21.2563 18.9941 20.1016 19.4593 18.8884 19.4716L8.89505 19.4716C6.36319 19.4716 4.54677 17.6284 4.54677 15.141V8.85897C4.54677 6.37155 6.36319 4.52843 8.89505 4.52843ZM20.5617 8.63837C20.2726 8.30886 19.7455 8.25555 19.3843 8.5193L14.8588 11.8242L14.7291 11.9068C14.1955 12.2095 13.4949 12.1816 12.9838 11.8181L8.42518 8.51731L8.32258 8.4536C7.969 8.26727 7.50981 8.34031 7.24838 8.64086C6.96081 8.97146 7.02144 9.45216 7.38379 9.71453L11.9481 13.0195L12.1262 13.1375C13.2744 13.8459 14.796 13.8067 15.8972 13.0236L20.4312 9.71255L20.5221 9.63551C20.8001 9.36261 20.8245 8.93792 20.5617 8.63837Z" fill="#C9C9CA"/>
</svg>
