<svg width="28" height="24" viewBox="0 0 28 24" fill="none" xmlns="http://www.w3.org/2000/svg">
<path fill-rule="evenodd" clip-rule="evenodd" d="M23.3817 3.71619C23.0583 3.42794 22.5341 3.42794 22.2107 3.71619L19.9058 5.77087C18.1253 4.6629 16.1371 4.07543 14.0887 4.07543C11.818 4.07543 9.61477 4.79542 7.70611 6.14201C5.8205 7.46402 4.24891 9.37061 3.11676 11.7081C3.02656 11.8943 3.02631 12.1054 3.11606 12.2918C4.09376 14.3222 5.40699 16.0255 6.97294 17.2999L4.7966 19.24L4.71643 19.3228C4.47592 19.6117 4.50265 20.0218 4.7966 20.2838C5.11995 20.5721 5.64419 20.5721 5.96754 20.2838L23.3817 4.76002L23.4618 4.67724C23.7023 4.38828 23.6756 3.97823 23.3817 3.71619ZM8.14528 16.2548L10.5054 14.1508C10.0289 13.5256 9.76772 12.785 9.76772 12.0012C9.76772 9.86842 11.6972 8.1473 14.0887 8.1473C14.9632 8.1473 15.8028 8.38178 16.5027 8.80457L18.7134 6.83382C17.2698 5.99055 15.6966 5.55163 14.0887 5.55163C12.2012 5.55163 10.3572 6.15424 8.7318 7.30096C7.17538 8.39217 5.84138 9.96072 4.83412 11.9004L4.78261 12.0014L4.83268 12.1003C5.70809 13.7948 6.83611 15.2038 8.14528 16.2548ZM15.2959 9.8804C14.9297 9.71412 14.5166 9.6235 14.0887 9.6235C12.612 9.6235 11.4237 10.6835 11.4237 12.0012C11.4237 12.385 11.5238 12.7495 11.7116 13.0756L15.2959 9.8804ZM17.5514 11.8158L17.6633 11.8269C18.1134 11.8991 18.4126 12.2828 18.3317 12.684C18.0144 14.2567 16.6269 15.496 14.8639 15.7813C14.4139 15.8541 13.983 15.588 13.9013 15.1869C13.8196 14.7858 14.1181 14.4016 14.5681 14.3288C15.6511 14.1536 16.5069 13.3892 16.7018 12.4227C16.776 12.055 17.1439 11.8002 17.5514 11.8158ZM21.8132 8.31439C22.1785 8.06924 22.6976 8.13452 22.9726 8.46021C23.7739 9.40914 24.4741 10.4985 25.0604 11.7072C25.151 11.894 25.1511 12.1059 25.0606 12.2927C22.7674 17.0289 18.6531 19.9245 14.0887 19.9245C13.0496 19.9245 12.0215 19.7747 11.0313 19.4801C10.5975 19.351 10.3633 18.9329 10.508 18.5463C10.6528 18.1596 11.1218 17.9507 11.5555 18.0798C12.3772 18.3242 13.2283 18.4483 14.0887 18.4483C17.7369 18.4483 21.1332 16.1864 23.2216 12.3298L23.3934 12.0014L23.335 11.8846C22.9148 11.0784 22.4397 10.339 21.9156 9.67414L21.6496 9.34799C21.3746 9.02231 21.4478 8.55955 21.8132 8.31439Z" fill="#65656B"/>
</svg>
