<svg width="32" height="33" viewBox="0 0 32 33" fill="none" xmlns="http://www.w3.org/2000/svg">
<path d="M31 16.3169C31 24.5667 24.2876 31.2606 16 31.2606C7.7124 31.2606 1 24.5667 1 16.3169C1 8.06706 7.7124 1.37323 16 1.37323C24.2876 1.37323 31 8.06706 31 16.3169Z" fill="#6439B3" stroke="#55408E" stroke-width="2"/>
<path fill-rule="evenodd" clip-rule="evenodd" d="M10.6458 17.5895L17.1061 11.2791C17.9373 10.4672 19.2855 10.4672 20.1167 11.2791L20.9796 12.122C21.8108 12.9339 21.8108 14.2507 20.9796 15.0626L14.4937 21.398C14.1229 21.7603 13.62 21.9635 13.0952 21.9635H10.439C10.1923 21.9635 9.99399 21.765 10.0001 21.524L10.067 18.906C10.0802 18.4112 10.2875 17.9395 10.6458 17.5895ZM20.3587 12.7284L19.4958 11.8856C19.0075 11.4086 18.2153 11.4086 17.727 11.8856L17.2255 12.3755L19.8575 14.9458L20.3587 14.4562C20.847 13.9792 20.847 13.2054 20.3587 12.7284ZM11.2667 18.196L16.6046 12.9819L19.2366 15.5523L13.8729 20.7915L13.8015 20.8553C13.6045 21.0166 13.3548 21.1059 13.0952 21.1059L10.889 21.1056L10.9447 18.928C10.9521 18.6532 11.0675 18.3905 11.2667 18.196ZM22 21.5348C22 21.2979 21.8034 21.1059 21.561 21.1059H16.9807L16.9211 21.1098C16.7068 21.1382 16.5416 21.3177 16.5416 21.5348C16.5416 21.7716 16.7382 21.9636 16.9807 21.9636H21.561L21.6205 21.9597C21.8348 21.9313 22 21.7519 22 21.5348Z" fill="white"/>
</svg>
