<svg width="32" height="32" viewBox="0 0 32 32" fill="none" xmlns="http://www.w3.org/2000/svg">
<circle cx="16" cy="16" r="16" fill="#9055FA"/>
<path fill-rule="evenodd" clip-rule="evenodd" d="M16.0029 9.33331C14.0469 9.33331 12.4612 10.9257 12.4612 12.8901C12.4612 14.8545 14.0469 16.4469 16.0029 16.4469C17.9589 16.4469 19.5446 14.8545 19.5446 12.8901C19.5446 10.9257 17.9589 9.33331 16.0029 9.33331ZM16.0029 10.2984C17.4281 10.2984 18.5835 11.4588 18.5835 12.8901C18.5835 14.3214 17.4281 15.4818 16.0029 15.4818C14.5776 15.4818 13.4222 14.3214 13.4222 12.8901C13.4222 11.4588 14.5776 10.2984 16.0029 10.2984ZM14.5534 17.8806C14.0349 17.9166 13.5108 17.9906 12.9939 18.1014C11.9961 18.3069 11.1979 18.7175 10.8582 19.3999C10.73 19.6668 10.6656 19.9525 10.6667 20.2418C10.6663 20.529 10.7302 20.8151 10.8538 21.0768C11.18 21.7514 11.8852 22.1331 12.8375 22.3447L13.0081 22.3803C13.511 22.4938 14.0352 22.5701 14.563 22.606C14.6079 22.6192 14.7151 22.6314 14.832 22.6374L14.9282 22.641C14.9776 22.6422 15.0337 22.6424 15.1174 22.6424C15.8759 22.6842 16.6623 22.672 17.445 22.6054C17.8622 22.5768 18.2821 22.5223 18.6985 22.4424L19.0101 22.3777C20.0384 22.1748 20.8084 21.789 21.1457 21.0776C21.3959 20.5494 21.3959 19.9364 21.1459 19.4085C20.8094 18.6988 20.0491 18.3162 19.0023 18.1006C18.5915 18.0129 18.1742 17.948 17.7538 17.9066L17.4465 17.8806C16.484 17.7957 15.5159 17.7957 14.5534 17.8806ZM17.3624 18.842L17.3708 18.8427C17.8533 18.8766 18.3328 18.9443 18.8058 19.0453C19.5834 19.2055 20.1111 19.4711 20.2781 19.8232C20.4038 20.0887 20.4038 20.3972 20.278 20.6629C20.122 20.9919 19.648 21.2461 18.963 21.4014L18.813 21.4332C18.3307 21.5408 17.8528 21.6101 17.3717 21.6431C16.6253 21.7066 15.8833 21.7181 15.1432 21.678L14.8808 21.6735C14.8079 21.6698 14.7466 21.6628 14.6897 21.6514C14.2392 21.6174 13.8338 21.5636 13.4402 21.4855L13.2052 21.4358C12.4252 21.2829 11.8928 21.0162 11.7202 20.6593C11.6598 20.5313 11.6275 20.3869 11.6277 20.2406C11.6272 20.0952 11.659 19.954 11.7208 19.8252C11.8886 19.4882 12.4528 19.198 13.1907 19.046C13.6672 18.9439 14.1464 18.8762 14.6286 18.8427C15.544 18.762 16.4558 18.762 17.3624 18.842Z" fill="white"/>
</svg>
