<svg width="269" height="349" viewBox="0 0 269 349" fill="none" xmlns="http://www.w3.org/2000/svg">
<path d="M82.7006 245.081C87.0795 243.723 91.4523 241.425 95.5559 238.043C108.596 227.303 111.406 176.087 111.406 176.087L111.347 176.013L87.4549 145.26C87.4549 145.26 85.6409 147.702 82.7602 151.736C79.8128 155.874 75.751 161.68 71.3781 168.241C61.2605 183.446 49.4969 202.713 46.1622 214.65C40.1195 236.278 61.5775 251.62 82.7006 245.081Z" fill="white"/>
<g opacity="0.25">
<path d="M45.1846 223.59C46.3181 240.255 64.632 250.673 82.7016 245.08C87.0804 243.722 91.4533 241.424 95.5569 238.043C108.597 227.303 111.407 176.086 111.407 176.086L111.348 176.012L106.343 169.57C105.168 183.301 101.255 217.2 90.9289 225.705C86.8242 229.086 69.0394 233.711 64.4604 234.147C53.1092 235.222 51.9496 232.507 45.1846 223.59Z" fill="#371A45"/>
</g>
<path d="M72.8019 248.666C80.6299 248.666 89.1862 246.078 96.9892 239.651C110.592 228.451 113.487 178.324 113.604 176.196C113.668 175.028 112.735 174.033 111.519 173.971C110.294 173.902 109.268 174.806 109.203 175.974C108.436 189.97 104.228 228.115 94.1216 236.438C80.7586 247.442 66.4004 245.526 58.1648 240.543C49.2188 235.13 45.4335 225.419 48.2868 215.201C54.2889 193.704 88.8977 146.957 89.247 146.488C89.9537 145.536 89.7237 144.215 88.7333 143.536C87.7429 142.858 86.3663 143.078 85.6607 144.03C84.2174 145.973 50.239 191.871 44.0307 214.104C40.6589 226.181 45.1748 237.684 55.8156 244.123C60.4412 246.921 66.3766 248.666 72.8019 248.666Z" fill="#371A45"/>
<path d="M88.5834 206.311C89.4153 206.311 90.2115 205.856 90.5845 205.083C91.0958 204.023 90.6155 202.766 89.5119 202.275C88.5715 201.856 66.303 192.077 51.741 197.526C50.6076 197.95 50.0462 199.176 50.4872 200.266C50.9294 201.356 52.2059 201.895 53.3393 201.471C66.1493 196.678 87.4464 206.021 87.6597 206.116C87.9601 206.248 88.2747 206.311 88.5834 206.311Z" fill="#371A45"/>
<path d="M67.8193 219.98C64.0604 216.369 64.0604 210.514 67.8193 206.903C71.5782 203.292 77.6726 203.292 81.4315 206.903C85.1904 210.514 85.1904 216.369 81.4315 219.98C77.6726 223.592 71.5782 223.592 67.8193 219.98Z" fill="white"/>
<g opacity="0.35">
<path d="M65.0019 213.666C65.1306 218.771 69.5417 222.813 74.8549 222.689C80.1693 222.566 84.3766 218.321 84.2479 213.216C84.2121 211.805 83.8498 210.469 83.2229 209.285C81.7569 212.443 78.4936 214.688 74.6547 214.777C70.8157 214.867 67.4428 212.777 65.8267 209.691C65.2617 210.903 64.9662 212.255 65.0019 213.666Z" fill="#371A45"/>
</g>
<path d="M74.6149 224.805C74.7138 224.805 74.8115 224.804 74.9105 224.802C78.0688 224.728 81.0079 223.477 83.1878 221.278C85.3665 219.081 86.525 216.199 86.4475 213.165C86.2878 206.901 80.8625 201.935 74.3348 202.082C71.1764 202.155 68.2373 203.406 66.0574 205.605C63.8787 207.802 62.7202 210.684 62.7977 213.718C62.8752 216.752 64.1767 219.577 66.4638 221.67C68.6807 223.698 71.5649 224.805 74.6149 224.805ZM74.6244 206.311C78.635 206.311 81.9447 209.397 82.0425 213.269C82.1414 217.2 78.8936 220.476 74.802 220.571C74.7412 220.572 74.6792 220.573 74.6184 220.573C70.6079 220.573 67.2981 217.487 67.2004 213.615C67.1015 209.684 70.3492 206.408 74.4397 206.313C74.5028 206.312 74.5636 206.311 74.6244 206.311Z" fill="#371A45"/>
<path d="M60.1345 229.556L64.4597 234.146L73.0863 243.309C77.8405 243.304 80.4829 237.985 81.8797 231.36C83.8665 221.95 83.335 209.904 82.7748 206.701C82.0645 202.7 75.6583 197.48 68.6669 201.44C58.5588 207.166 60.1345 229.556 60.1345 229.556Z" fill="white"/>
<g opacity="0.25">
<path d="M64.4584 234.147L73.085 243.31C77.8392 243.304 80.4816 237.986 81.8784 231.361C78.7224 233.47 73.0313 235.808 64.4584 234.147Z" fill="#371A45"/>
</g>
<path d="M60.4987 229.532C61.0922 225.878 61.631 222.285 62.352 218.79C63.1017 215.315 63.9467 211.875 65.3841 208.868C66.1028 207.378 66.9454 205.986 67.9883 204.894C68.2576 204.634 68.5139 204.353 68.8059 204.135C68.9501 204.022 69.0812 203.887 69.2325 203.789L69.6843 203.488C69.9798 203.279 70.3469 203.138 70.6723 202.952C70.8368 202.852 71.0108 202.794 71.1848 202.734L71.7032 202.543C73.0941 202.068 74.5589 202.113 75.9391 202.538C77.3359 202.933 78.5969 203.869 79.5039 204.966C79.9317 205.527 80.2714 206.128 80.4478 206.68C80.4752 206.816 80.5098 206.939 80.5479 207.079L80.629 207.67C80.679 208.085 80.7184 208.515 80.7541 208.95C80.8781 210.701 80.9174 212.498 80.9174 214.286C80.8972 217.869 80.7458 221.456 80.4252 224.999C80.2643 226.769 80.0474 228.527 79.7792 230.263C79.4955 231.996 79.1296 233.699 78.6827 235.347C78.2298 236.991 77.6684 238.578 76.8485 239.954C76.4599 240.673 75.9391 241.248 75.3455 241.791C74.7365 242.325 73.9761 242.668 73.0846 242.958L73.0322 242.975C72.8379 243.038 72.7342 243.239 72.7997 243.426C72.845 243.553 72.9583 243.64 73.0858 243.663C73.3385 243.707 73.5983 243.736 73.8653 243.768C73.9987 243.781 74.1346 243.805 74.2693 243.806L74.6721 243.775C74.9403 243.747 75.2275 243.741 75.4969 243.683L76.2978 243.447C77.3478 243.076 78.3073 242.441 79.082 241.709C80.6647 240.229 81.7088 238.428 82.5109 236.624C83.3095 234.808 83.8315 232.938 84.2534 231.073C84.6872 229.208 84.9816 227.332 85.2057 225.459C85.6383 221.71 85.7468 217.964 85.6312 214.222C85.574 212.348 85.4703 210.482 85.2831 208.582C85.2367 208.104 85.1842 207.623 85.1175 207.129C85.0865 206.884 85.0376 206.615 84.9983 206.359C84.928 206.055 84.8422 205.735 84.7564 205.426C84.3559 204.231 83.7314 203.225 83.0127 202.324C82.2594 201.459 81.4287 200.67 80.4717 200.037C80.0021 199.713 79.4979 199.426 78.9902 199.154C78.4586 198.918 77.9437 198.648 77.3729 198.489C77.0928 198.4 76.8139 198.305 76.5302 198.228L75.6566 198.055C75.0774 197.915 74.4731 197.926 73.8796 197.876C73.286 197.873 72.6877 197.921 72.0978 197.977C71.5233 198.092 70.9238 198.163 70.3696 198.336L69.5412 198.604C69.2635 198.692 68.987 198.784 68.7367 198.913C68.2254 199.165 67.6998 199.368 67.2076 199.675L66.4686 200.134C66.2231 200.289 66.0098 200.474 65.7798 200.646C65.3102 200.982 64.9216 201.381 64.5152 201.767C62.9384 203.347 61.861 205.186 61.0326 207.031C60.625 207.961 60.2865 208.899 59.9922 209.842C59.7228 210.789 59.482 211.736 59.289 212.684C58.9147 214.583 58.6859 216.481 58.6287 218.377C58.5417 220.269 58.6096 222.154 58.786 224.024C58.9624 225.895 59.2616 227.747 59.7681 229.58C59.8205 229.771 60.0255 229.885 60.2258 229.835C60.3735 229.797 60.4772 229.679 60.4999 229.543L60.4987 229.532Z" fill="#371A45"/>
<path d="M147.683 149.041L154.995 227.979L158.014 260.579C158.014 260.579 195.563 261.768 206.279 247.545C210.242 242.272 212.065 227.301 211.995 210.944C211.898 191.018 209.001 169.024 203.752 160.012C195.326 145.545 160.601 147.049 147.683 149.041Z" fill="white"/>
<g opacity="0.25">
<path d="M154.995 227.978L158.014 260.578C158.014 260.578 195.563 261.766 206.279 247.543C210.242 242.271 212.065 227.3 211.995 210.943L188.667 207.492C188.667 207.492 180.568 207.802 180.69 232.558C180.72 239.485 169.793 242.374 161.47 237.02C158.454 235.077 156.413 231.842 154.995 227.978Z" fill="#371A45"/>
</g>
<path d="M160.368 262.726C169.088 262.726 198.306 261.733 208.06 248.784C213.246 241.898 214.581 221.903 214.099 205.486C213.621 189.179 211.157 168.397 205.67 158.976C196.459 143.157 160.438 144.931 147.334 146.949C146.133 147.135 145.315 148.22 145.508 149.374C145.702 150.529 146.827 151.313 148.033 151.129C162.41 148.913 194.478 148.423 201.827 161.043C206.026 168.253 209.115 185.745 209.697 205.605C210.266 225.058 208.175 241.412 204.492 246.302C194.587 259.451 158.446 258.475 158.084 258.466C156.87 258.406 155.85 259.344 155.81 260.512C155.77 261.68 156.723 262.657 157.938 262.696C158.15 262.702 159.011 262.726 160.368 262.726Z" fill="#371A45"/>
<path d="M209.77 207.571L190.076 209.523C188.318 209.697 186.902 210.986 186.636 212.665C185.663 218.812 184.179 233.122 190.509 237.666C195.762 241.436 204.094 240.754 208.87 236.647C214.212 232.052 214.34 218.052 214.05 211.132C213.959 208.979 212 207.35 209.77 207.571Z" fill="white"/>
<g opacity="0.25">
<path d="M186.637 212.667C185.66 218.812 184.18 233.123 190.51 237.664C195.764 241.437 204.094 240.753 208.872 236.645C212.155 233.817 213.468 227.434 213.925 221.329C213.124 224.394 211.799 226.901 210.111 228.568C200.433 238.12 192.689 227.372 192.689 227.372C192.689 227.372 191.477 230.065 190.455 230.242C186.178 230.986 186.692 218.047 187.119 211.358C186.878 211.75 186.71 212.189 186.637 212.667Z" fill="#371A45"/>
</g>
<path d="M198.831 242.263C203.003 242.263 207.233 240.894 210.339 238.222C215.962 233.384 216.658 220.774 216.25 211.046C216.183 209.439 215.419 207.915 214.156 206.863C212.89 205.811 211.21 205.299 209.544 205.466L189.85 207.418C187.092 207.692 184.875 209.719 184.458 212.348C183.203 220.267 182.148 234.307 189.189 239.361C191.902 241.308 195.346 242.263 198.831 242.263ZM210.173 209.667C210.577 209.667 210.961 209.805 211.271 210.061C211.625 210.355 211.83 210.765 211.849 211.215C212.355 223.32 210.693 232.237 207.399 235.069C203.251 238.638 196.119 239.051 191.826 235.97C188.083 233.284 186.957 224.691 188.813 212.983C188.927 212.261 189.54 211.703 190.301 211.627L209.995 209.675C210.055 209.669 210.114 209.667 210.173 209.667Z" fill="#371A45"/>
<path d="M193.104 216.22C193.161 218.513 192.992 220.798 192.997 223.109C192.992 225.417 193.098 227.753 193.57 230.093C194.043 232.418 194.898 234.798 196.54 236.84C197.355 237.854 198.364 238.758 199.503 239.475C200.641 240.197 201.896 240.733 203.181 241.115L203.188 241.117C204.133 241.399 205.137 240.891 205.43 239.984C205.723 239.076 205.194 238.112 204.25 237.83C204.179 237.808 204.096 237.79 204.024 237.777C201.968 237.436 200.054 236.598 198.566 235.151C197.067 233.718 196.015 231.759 195.303 229.665C194.584 227.563 194.18 225.32 193.891 223.059C193.589 220.796 193.459 218.494 193.104 216.22Z" fill="#371A45"/>
<path d="M192.382 157.72C189.662 157.767 186.965 157.872 184.256 158.008C181.549 158.144 178.842 158.327 176.133 158.568C173.424 158.804 170.713 159.098 167.994 159.511C165.272 159.935 162.555 160.403 159.774 161.28C158.617 161.645 157.987 162.842 158.366 163.953C158.747 165.064 159.992 165.669 161.148 165.305C161.203 165.288 161.257 165.268 161.309 165.248L161.321 165.243C163.602 164.325 166.165 163.665 168.721 163.073C171.288 162.484 173.908 161.998 176.542 161.57C179.176 161.136 181.827 160.757 184.487 160.423C187.145 160.089 189.819 159.786 192.479 159.541L192.489 159.54C193.011 159.492 193.394 159.046 193.343 158.545C193.297 158.07 192.872 157.714 192.382 157.72Z" fill="#371A45"/>
<path d="M55.0081 147.076V146.964C54.9471 146.971 54.9471 147.006 55.0081 147.076Z" fill="white"/>
<path d="M55.0081 147.076V146.964C54.9471 146.971 54.9471 147.006 55.0081 147.076Z" fill="white"/>
<path d="M55.0081 146.965C54.9471 146.971 54.9471 147.007 55.0081 147.077V146.965Z" fill="white"/>
<path d="M51.0069 331.538C50.846 345.039 66.1529 345.905 84.9078 345.916C98.3245 345.922 108.387 343.75 113.399 339.606C121.613 332.821 119.513 294.493 128.414 224.65L81.6088 220.564C81.6088 220.564 78.8771 234.559 75.9714 254.48C73.3886 272.188 70.6676 294.584 69.5998 315.995C69.5998 315.995 52.7649 320.397 51.1309 330.122C51.0546 330.58 51.0129 331.05 51.0069 331.538Z" fill="white"/>
<g opacity="0.25">
<path d="M51.0069 331.538C50.846 345.039 66.1529 345.905 84.9078 345.916C98.3245 345.922 108.387 343.75 113.399 339.606C121.613 332.821 119.513 294.493 128.414 224.65L81.6088 220.564C81.6088 220.564 78.8771 234.559 75.9714 254.48C86.2379 261.62 95.3949 264.95 105.005 275.609C116.518 288.373 113.935 332.11 91.7014 334.942C74.0918 337.182 58.3308 336.713 51.1309 330.122C51.0546 330.58 51.0129 331.05 51.0069 331.538Z" fill="#371A45"/>
</g>
<path d="M84.9758 348.03C99.1123 348.03 109.436 345.673 114.838 341.209C120.455 336.568 121.588 322.168 123.846 293.48C125.272 275.352 127.047 252.79 130.602 224.907C130.75 223.747 129.891 222.691 128.683 222.549C127.475 222.406 126.377 223.233 126.229 224.393C122.662 252.373 120.883 274.989 119.452 293.161C117.493 318.055 116.2 334.501 111.965 338C107.44 341.738 97.8561 343.797 84.9758 343.797C84.9532 343.797 84.9317 343.797 84.9103 343.797C72.3434 343.79 60.6621 343.393 55.8113 338.678C54.0236 336.939 53.1714 334.612 53.2083 331.562C53.2965 324.102 65.4903 319.269 70.1814 318.036L71.7237 317.631L71.8023 316.095C74.0382 271.278 83.6803 221.453 83.778 220.955C84.0021 219.806 83.2143 218.7 82.0189 218.485C80.8234 218.265 79.6721 219.026 79.448 220.175C79.3515 220.671 69.8644 269.685 67.4795 314.407C62.7431 315.919 48.9272 321.206 48.8045 331.512C48.7544 335.692 50.0583 339.104 52.6792 341.651C58.7314 347.535 70.856 348.021 84.9091 348.028C84.9293 348.03 84.9544 348.03 84.9758 348.03Z" fill="#371A45"/>
<g opacity="0.35">
<path d="M129.524 229.021C129.633 228 129.755 226.956 129.882 225.901C129.755 226.956 129.639 228 129.524 229.021Z" fill="#371A45"/>
</g>
<g opacity="0.35">
<path d="M137.979 228.489C138.097 227.244 138.227 225.985 138.363 224.699C138.227 225.985 138.098 227.249 137.979 228.489Z" fill="#371A45"/>
</g>
<path d="M74.009 225.504C74.3487 228.347 74.9458 231.029 75.8528 233.522C77.6429 238.421 80.3925 242.696 83.8584 246.354C110.583 274.566 180.015 266.492 182.186 231.04C182.263 229.826 182.257 228.571 182.168 227.281C181.852 222.726 181.41 217.905 180.909 212.908C177.861 182.747 172.397 146.001 176.834 120.939C167.451 129.954 104.402 133.903 104.027 128.212C103.634 122.596 154.088 98.7095 132.129 102.056C115.963 105.34 92.3039 108.275 87.6866 120.939C87.4066 123.731 86.0407 127.33 85.0682 129.879L80.8979 169.4C78.184 188.425 72.0818 209.457 74.009 225.504Z" fill="white"/>
<path d="M79.8083 169.255C77.8417 175.361 76.5939 181.543 75.4283 187.807C74.2352 194.059 73.0458 200.349 72.2389 206.745C71.8372 209.943 71.5309 213.167 71.426 216.427C71.3212 219.683 71.3831 222.976 71.8229 226.279C72.0231 227.928 72.3485 229.58 72.7633 231.218L73.0994 232.444C73.2209 232.851 73.364 233.255 73.4963 233.66C73.7573 234.478 74.0707 235.253 74.3961 236.036C75.7012 239.159 77.4484 242.114 79.5389 244.807C83.7259 250.212 89.2799 254.485 95.3249 257.635C101.387 260.795 107.948 262.896 114.628 264.175C121.318 265.443 128.15 265.892 134.946 265.571C141.739 265.241 148.516 264.145 155.042 262.109C161.546 260.06 167.867 257.063 173.213 252.635C175.871 250.422 178.269 247.844 180.155 244.91C182.051 241.987 183.418 238.712 184.125 235.319C184.472 233.623 184.678 231.902 184.721 230.184C184.738 229.325 184.737 228.468 184.684 227.615C184.64 226.753 184.569 226.001 184.513 225.19C184.27 222.001 183.991 218.82 183.679 215.647C183.064 209.3 182.357 202.976 181.661 196.66C180.267 184.031 178.887 171.427 178.131 158.823C177.771 152.523 177.553 146.223 177.667 139.952C177.773 133.683 178.214 127.434 179.262 121.335L180.513 114.056L175.093 119.266C174.694 119.649 174.083 120.061 173.41 120.428C172.735 120.798 171.989 121.138 171.216 121.451C169.665 122.079 168.007 122.607 166.322 123.077C162.942 124.016 159.437 124.737 155.909 125.356C148.842 126.577 141.656 127.387 134.463 127.919C130.865 128.18 127.262 128.368 123.666 128.454C120.074 128.535 116.475 128.532 112.96 128.31C111.212 128.193 109.455 128.026 107.886 127.706C107.497 127.626 107.124 127.536 106.796 127.435C106.469 127.339 106.184 127.215 106.069 127.149C106.019 127.124 106.035 127.109 106.149 127.235C106.202 127.296 106.292 127.413 106.357 127.576C106.402 127.666 106.422 127.76 106.447 127.862C106.471 127.965 106.473 128.08 106.477 128.135C106.471 128.42 106.413 128.484 106.426 128.469C106.432 128.454 106.478 128.37 106.545 128.275C106.842 127.855 107.423 127.279 108.02 126.757C108.628 126.224 109.293 125.696 109.979 125.178C111.352 124.141 112.802 123.137 114.273 122.15C120.183 118.192 126.388 114.524 132.45 110.427C133.967 109.388 135.474 108.334 136.973 107.091C137.348 106.776 137.724 106.447 138.103 106.08C138.483 105.702 138.866 105.316 139.271 104.741C139.471 104.444 139.69 104.109 139.874 103.552C139.918 103.415 139.958 103.239 139.987 103.072C140.012 102.869 140.034 102.694 140.016 102.449C140.003 102.005 139.823 101.433 139.522 101.017C139.37 100.792 139.212 100.633 139.041 100.475C138.883 100.339 138.712 100.216 138.563 100.128C138.262 99.9507 137.992 99.8431 137.764 99.7698C137.302 99.6221 136.931 99.566 136.603 99.5317C135.308 99.4126 134.34 99.5213 133.339 99.6198C132.835 99.6794 132.4 99.7343 131.848 99.8202C131.346 99.9072 130.874 100.014 130.44 100.097L125.098 101.139C117.945 102.53 110.687 103.919 103.577 106.331C100.035 107.555 96.5073 109.033 93.2476 111.185C91.6255 112.265 90.0749 113.526 88.7352 115.035C87.3956 116.538 86.2836 118.307 85.5876 120.233L85.4982 120.479L85.472 120.737C85.3408 122.025 84.969 123.449 84.5268 124.859C84.0799 126.276 83.5507 127.7 82.9989 129.154C82.5829 130.252 83.1717 131.467 84.3147 131.866C85.4577 132.266 86.7198 131.707 87.1358 130.609C87.6959 129.15 88.2644 127.651 88.7614 126.1C89.2525 124.542 89.703 122.948 89.902 121.143L89.7864 121.647C90.7947 118.871 93.039 116.55 95.8005 114.747C98.5656 112.934 101.781 111.577 105.097 110.454C111.766 108.22 118.867 106.876 126.002 105.527L131.384 104.502C131.844 104.415 132.26 104.322 132.656 104.256C133.004 104.205 133.472 104.144 133.874 104.1C134.682 104.012 135.545 103.964 136.066 104.023C136.191 104.034 136.272 104.06 136.241 104.051C136.23 104.045 136.167 104.029 136.063 103.965C135.949 103.897 135.78 103.774 135.597 103.521C135.426 103.284 135.32 102.929 135.311 102.703C135.309 102.567 135.308 102.501 135.326 102.407C135.33 102.347 135.352 102.278 135.361 102.246C135.409 102.107 135.402 102.158 135.351 102.225C135.246 102.377 135.007 102.639 134.751 102.886C134.488 103.14 134.189 103.401 133.875 103.66C132.611 104.702 131.164 105.713 129.71 106.699C123.826 110.643 117.584 114.299 111.508 118.327C109.986 119.339 108.471 120.376 106.973 121.497C106.223 122.06 105.478 122.643 104.737 123.288C103.994 123.949 103.259 124.602 102.507 125.619C102.319 125.886 102.129 126.18 101.949 126.564C101.778 126.947 101.582 127.441 101.577 128.164C101.574 128.329 101.596 128.551 101.638 128.763C101.677 128.974 101.748 129.169 101.823 129.364C101.981 129.725 102.19 130.032 102.391 130.26C102.801 130.721 103.185 130.972 103.522 131.176C104.193 131.557 104.762 131.756 105.302 131.925C105.842 132.089 106.354 132.212 106.857 132.316C108.857 132.719 110.741 132.886 112.628 133.018C116.39 133.257 120.092 133.261 123.789 133.179C127.483 133.094 131.164 132.905 134.837 132.638C142.182 132.094 149.5 131.272 156.79 130.014C160.434 129.375 164.071 128.63 167.697 127.624C169.511 127.117 171.322 126.545 173.133 125.814C174.039 125.446 174.946 125.037 175.854 124.539C176.761 124.038 177.679 123.465 178.578 122.615L174.408 120.545C173.298 126.983 172.847 133.444 172.734 139.872C172.614 146.303 172.833 152.708 173.194 159.092C173.952 171.856 175.336 184.53 176.723 197.164C177.416 203.481 178.118 209.788 178.724 216.09C179.032 219.241 179.307 222.39 179.544 225.537C179.597 226.309 179.673 227.141 179.708 227.864C179.754 228.597 179.754 229.328 179.739 230.057C179.702 231.515 179.527 232.96 179.236 234.378C178.647 237.214 177.53 239.935 175.937 242.406C174.355 244.885 172.309 247.111 169.981 249.062C165.305 252.966 159.555 255.754 153.526 257.668C147.478 259.577 141.105 260.635 134.7 260.964C128.291 261.285 121.833 260.88 115.543 259.707C109.262 258.525 103.133 256.572 97.5537 253.683C91.9854 250.802 86.9749 246.946 83.2372 242.15C81.3696 239.759 79.8143 237.149 78.6462 234.379C78.3578 233.69 78.0682 232.984 77.8441 232.283C77.7285 231.93 77.6022 231.583 77.4949 231.227L77.197 230.151C76.8275 228.706 76.5271 227.231 76.34 225.728C75.9288 222.729 75.8549 219.649 75.9443 216.561C76.0325 213.471 76.315 210.362 76.694 207.253C77.4556 201.034 78.6057 194.812 79.7761 188.567C80.9739 182.334 82.1491 176.023 81.9894 169.542C81.9751 168.95 81.4638 168.482 80.8476 168.496C80.3565 168.507 79.9465 168.821 79.8083 169.249V169.255Z" fill="#371A45"/>
<path d="M114.935 291.562C119.118 291.562 121.82 291.343 122.17 291.312C123.381 291.208 124.275 290.18 124.168 289.017C124.06 287.852 122.989 286.997 121.778 287.097C121.502 287.118 93.7867 289.341 73.6707 278.577C72.6087 278.008 71.2667 278.374 70.6744 279.395C70.082 280.417 70.4634 281.705 71.5265 282.274C86.5486 290.315 104.955 291.562 114.935 291.562Z" fill="#371A45"/>
<path d="M70.0352 318.068C70.798 317.889 71.7253 317.722 72.5941 317.596C73.4785 317.463 74.3724 317.365 75.2686 317.279C77.0624 317.12 78.8692 317.068 80.6725 317.119C82.4781 317.155 84.273 317.348 86.0477 317.644C87.8319 317.921 89.5541 318.426 91.2596 318.992L91.3192 319.011C91.8937 319.203 92.5206 318.91 92.7197 318.358C92.9056 317.841 92.6458 317.278 92.1416 317.052C90.3753 316.267 88.5577 315.548 86.671 315.067C84.7927 314.567 82.875 314.178 80.9418 313.954C79.0087 313.716 77.06 313.589 75.1077 313.577C74.1316 313.578 73.1543 313.595 72.1734 313.647C71.6836 313.674 71.1925 313.704 70.6979 313.749C70.1937 313.793 69.7289 313.838 69.164 313.917C67.9578 314.086 67.1236 315.162 67.3 316.321C67.4763 317.478 68.5955 318.281 69.8016 318.112C69.8696 318.102 69.9363 318.09 70.0019 318.075L70.0352 318.068Z" fill="#371A45"/>
<path d="M125.641 249.381C125.641 249.381 136.095 301.219 140.997 325.465C145.179 346.151 159.833 347.499 192.008 346.344C203.327 345.938 211.957 342.192 211.084 333.295C209.911 321.343 192.355 316.818 192.355 316.818C192.355 316.818 186.042 256.524 181.736 223.607L125.641 249.381Z" fill="white"/>
<g opacity="0.25">
<path d="M145.767 312.923C142.196 291.266 128.92 259.029 126.176 252.055C128.377 262.967 136.764 304.515 140.994 325.468C145.177 346.151 159.833 347.503 192.01 346.345C203.327 345.939 211.958 342.19 211.082 333.296C210.993 332.379 210.808 331.502 210.534 330.672C207.964 333.995 202.243 335.587 196.778 335.884C161.995 337.772 149.151 333.456 145.767 312.923Z" fill="#371A45"/>
</g>
<path d="M124.56 249.582C125.199 257.467 126.606 265.209 128.141 272.928L132.733 296.084L137.325 319.241L138.473 325.03C138.656 325.974 138.87 327.018 139.118 328.019C139.366 329.028 139.66 330.034 139.996 331.035C140.669 333.035 141.549 335.018 142.724 336.887C143.895 338.754 145.376 340.497 147.121 341.955C148.862 343.418 150.843 344.58 152.894 345.458C154.947 346.344 157.062 346.967 159.173 347.432C163.403 348.36 167.621 348.703 171.789 348.878C175.96 349.044 180.096 349.018 184.214 348.932C186.273 348.889 188.327 348.828 190.378 348.757L191.915 348.703C192.435 348.68 192.98 348.661 193.511 348.625C194.581 348.565 195.655 348.458 196.73 348.323C198.879 348.047 201.041 347.614 203.181 346.908C205.307 346.182 207.443 345.174 209.307 343.604C210.233 342.822 211.078 341.894 211.75 340.843C212.421 339.79 212.906 338.621 213.186 337.435C213.469 336.248 213.552 335.05 213.5 333.895C213.451 332.745 213.254 331.598 212.937 330.485C212.297 328.255 211.112 326.218 209.663 324.498C208.21 322.77 206.507 321.331 204.71 320.099C202.91 318.866 201 317.85 199.043 316.972C198.063 316.535 197.07 316.134 196.062 315.767C195.558 315.584 195.05 315.41 194.535 315.245C194.008 315.078 193.527 314.93 192.927 314.774H192.925L194.546 316.606C192.905 301.05 191.218 285.504 189.471 269.96C187.718 254.415 185.93 238.878 183.92 223.343C183.77 222.183 182.67 221.36 181.463 221.504C180.255 221.648 179.399 222.705 179.549 223.865L179.55 223.871C181.553 239.353 183.341 254.884 185.092 270.414C186.837 285.946 188.523 301.488 190.163 317.029L190.315 318.462L191.784 318.861H191.785C192.17 318.969 192.661 319.123 193.102 319.273C193.555 319.427 194.008 319.589 194.458 319.761C195.356 320.104 196.243 320.479 197.111 320.883C198.846 321.693 200.504 322.628 202.027 323.687C205.066 325.795 207.532 328.534 208.39 331.681C208.819 333.237 208.899 334.955 208.539 336.394C208.186 337.851 207.363 339.095 206.128 340.11C204.902 341.129 203.305 341.902 201.581 342.47C199.851 343.04 197.99 343.42 196.088 343.661C195.136 343.778 194.174 343.874 193.202 343.927C192.715 343.959 192.238 343.975 191.735 343.997L190.209 344.049C188.173 344.116 186.14 344.174 184.11 344.215C180.052 344.296 176.003 344.314 172.002 344.151C168.006 343.981 164.037 343.638 160.287 342.808C156.54 341.99 153.049 340.605 150.347 338.378C147.636 336.16 145.772 333.052 144.587 329.583C144.288 328.717 144.021 327.833 143.792 326.931C143.561 326.021 143.371 325.139 143.172 324.153L141.985 318.371L137.237 295.244L132.489 272.117C130.909 264.407 129.203 256.721 126.727 249.178C126.544 248.617 125.92 248.306 125.336 248.482C124.831 248.636 124.521 249.099 124.56 249.582Z" fill="#371A45"/>
<path d="M152.278 290.491C178.666 290.491 189.253 284.789 189.778 284.496C190.831 283.909 191.188 282.613 190.577 281.603C189.968 280.596 188.626 280.25 187.575 280.832C187.401 280.927 172.38 288.81 133.53 285.386C132.323 285.277 131.247 286.136 131.135 287.3C131.024 288.464 131.915 289.494 133.127 289.6C140.271 290.23 146.636 290.491 152.278 290.491Z" fill="#371A45"/>
<path d="M193.458 314.704C191.867 314.462 190.418 314.332 188.903 314.223C187.403 314.122 185.903 314.068 184.403 314.06C181.403 314.042 178.401 314.22 175.422 314.618C172.446 315.026 169.49 315.668 166.636 316.635C165.208 317.116 163.816 317.7 162.46 318.351C161.108 319.016 159.813 319.784 158.573 320.628C158.077 320.966 157.959 321.626 158.311 322.103C158.648 322.56 159.294 322.682 159.784 322.394L159.814 322.376C161.003 321.672 162.236 321.039 163.518 320.503C164.808 319.981 166.123 319.521 167.475 319.156C170.176 318.42 172.969 317.988 175.783 317.774C178.6 317.57 181.437 317.572 184.262 317.762C185.674 317.855 187.083 317.992 188.484 318.171C189.866 318.352 191.311 318.579 192.584 318.852L192.629 318.862C193.817 319.119 194.996 318.401 195.263 317.259C195.53 316.118 194.782 314.986 193.594 314.729C193.553 314.72 193.502 314.711 193.458 314.704Z" fill="#371A45"/>
<g opacity="0.25">
<path d="M74.009 225.504C74.1818 226.965 74.4261 228.382 74.7491 229.751C74.8206 230.077 74.8981 230.399 74.9815 230.72C75.2318 231.677 75.5238 232.611 75.8528 233.523C76.1507 234.343 76.4797 235.144 76.8313 235.929C76.9147 236.118 76.9981 236.307 77.0875 236.492C77.1829 236.692 77.2782 236.887 77.3736 237.082C77.4987 237.334 77.6239 237.592 77.755 237.845C78.5189 239.3 79.3711 240.699 80.3019 242.029C80.4748 242.269 80.6476 242.51 80.8264 242.746C80.9873 242.969 81.1541 243.186 81.321 243.405C81.5474 243.697 81.7798 243.983 82.0134 244.271C82.2041 244.5 82.3948 244.729 82.5927 244.959C82.6821 245.062 82.7714 245.159 82.8608 245.262C83.0635 245.497 83.2661 245.726 83.4758 245.95C83.601 246.088 83.7321 246.225 83.8572 246.357C94.3204 257.4 111.322 262.885 128.276 263.337L125.078 248.495C121.231 248.311 117.401 247.939 113.643 247.371L135.065 248.094C141.084 248.3 146.185 243.733 146.399 237.945L146.542 234.053C167.636 236.397 179.018 232.413 182.186 231.044C182.263 229.829 182.257 228.574 182.168 227.285C181.852 222.729 181.41 217.908 180.909 212.912C169.289 218.024 154.167 217.508 147.169 216.907L147.348 211.944C147.533 206.878 143.912 202.493 138.961 201.342C138.263 201.176 137.53 201.084 136.784 201.055L85.9346 199.341C79.9098 199.135 74.8028 203.703 74.6002 209.491L74.009 225.504Z" fill="#371A45"/>
</g>
<path d="M82.9332 237.313L133.787 239.028C139.806 239.233 144.908 234.667 145.121 228.876L146.07 202.878C146.256 197.809 142.633 193.425 137.684 192.277C136.983 192.11 136.254 192.016 135.504 191.989L84.6578 190.274C78.6318 190.069 73.5283 194.636 73.3233 200.426L72.5665 221.017L72.3663 226.424C72.1541 232.214 76.9143 237.109 82.9332 237.313Z" fill="white"/>
<g opacity="0.25">
<path d="M82.9332 237.313L133.787 239.028C139.806 239.233 144.908 234.667 145.121 228.876L146.07 202.878C146.256 197.809 142.633 193.425 137.684 192.277C134.73 194.022 132.852 195.138 132.852 195.138C129.614 215.923 130.003 231.426 96.3772 228.142C84.7841 227.01 77.1205 223.468 72.5665 221.016L72.3663 226.423C72.1541 232.214 76.9143 237.109 82.9332 237.313Z" fill="#371A45"/>
</g>
<path d="M133.213 241.12C136.795 241.12 140.201 239.829 142.849 237.457C145.622 234.973 147.222 231.613 147.355 227.995L148.236 203.911C148.51 196.416 142.385 190.102 134.583 189.839L85.7296 188.191C81.9622 188.063 78.3616 189.362 75.5882 191.845C72.8148 194.329 71.2153 197.689 71.0818 201.307L70.201 225.391C69.9269 232.886 76.0518 239.2 83.8536 239.463L132.707 241.111C132.877 241.117 133.046 241.12 133.213 241.12ZM85.2278 192.416C85.3434 192.416 85.4591 192.419 85.5747 192.422L134.428 194.07C139.804 194.252 144.022 198.599 143.833 203.762L142.953 227.846C142.862 230.334 141.758 232.648 139.845 234.36C137.933 236.073 135.449 236.965 132.862 236.88L84.0086 235.232C81.4187 235.145 79.01 234.085 77.227 232.247C75.444 230.411 74.5131 228.028 74.6037 225.54L75.4845 201.456C75.5751 198.968 76.6787 196.654 78.5916 194.942C80.4187 193.306 82.7643 192.416 85.2278 192.416Z" fill="#371A45"/>
<path d="M80.8998 237.051C81.5542 237.205 82.2299 237.292 82.9343 237.313L133.788 239.028C138.199 239.174 142.117 236.767 143.977 233.181C144.655 231.88 145.063 230.422 145.115 228.877L145.542 217.328L145.683 213.517L146.071 202.879C146.285 197.09 141.524 192.195 135.504 191.99L124.515 191.623C129.546 192.711 133.247 197.13 133.063 202.251L132.554 216.294L132.115 228.256C131.901 234.038 126.799 238.611 120.78 238.407L80.8998 237.051Z" fill="white"/>
<g opacity="0.25">
<path d="M80.899 237.052C81.5533 237.205 82.2291 237.292 82.9335 237.313L133.787 239.028C139.806 239.233 144.908 234.667 145.113 228.878L145.681 213.518C144.303 216.189 141.882 219.443 138.193 219.669C136.17 219.797 134.234 218.335 132.554 216.294L132.114 228.256C131.901 234.038 126.798 238.611 120.779 238.408L80.899 237.052Z" fill="#371A45"/>
</g>
<path d="M134.185 241.153C137.51 241.153 140.672 239.954 143.133 237.75C145.712 235.44 147.199 232.316 147.319 228.952L148.27 202.953C148.529 195.989 142.836 190.121 135.582 189.872L124.596 189.503L124.034 193.683C128.137 194.573 131.009 198.146 130.861 202.177L129.91 228.179C129.83 230.413 128.839 232.49 127.123 234.028C125.407 235.565 123.184 236.376 120.86 236.289L80.9736 234.939L80.3873 239.114C81.1965 239.298 82.0308 239.404 82.8675 239.428L133.71 241.146C133.869 241.151 134.028 241.153 134.185 241.153ZM132.392 194L135.427 194.102C140.253 194.268 144.039 198.171 143.867 202.803L142.916 228.806C142.836 231.039 141.846 233.115 140.13 234.653C138.412 236.19 136.19 237.002 133.867 236.914L130.476 236.8C132.84 234.526 134.199 231.535 134.314 228.326L135.265 202.326C135.378 199.22 134.299 196.294 132.392 194Z" fill="#371A45"/>
<path d="M112.528 214.787C112.499 215.749 113.669 223.551 113.669 223.551C113.669 223.551 116.229 223.623 119.372 223.712C123.299 223.823 126.602 220.007 126.748 215.189C126.896 210.371 123.832 206.375 119.905 206.264C117.255 206.189 114.202 206.102 114.202 206.102C114.202 206.102 112.576 213.221 112.528 214.787Z" fill="#22A7F0"/>
<g opacity="0.35">
<path d="M112.528 214.787C112.499 215.749 113.669 223.551 113.669 223.551C113.669 223.551 116.229 223.623 119.372 223.712C123.299 223.823 126.602 220.007 126.748 215.189C126.896 210.371 123.832 206.375 119.905 206.264C117.255 206.189 114.202 206.102 114.202 206.102C114.202 206.102 112.576 213.221 112.528 214.787Z" fill="#371A45"/>
</g>
<path d="M119.537 225.302C124.275 225.302 128.23 220.838 128.401 215.235C128.575 209.55 124.786 204.814 119.956 204.677L112.885 204.478L112.591 205.763C112.315 206.976 110.929 213.109 110.88 214.741C110.849 215.76 111.757 221.915 112.036 223.778L112.234 225.099L119.325 225.3C119.396 225.301 119.466 225.302 119.537 225.302ZM115.529 207.729L119.859 207.85C122.869 207.935 125.22 211.206 125.1 215.143C124.979 219.078 122.415 222.212 119.423 222.126L115.111 222.004C114.627 218.694 114.182 215.376 114.182 214.829C114.211 213.938 114.935 210.415 115.529 207.729Z" fill="#371A45"/>
<path d="M113.658 223.552C109.731 223.44 106.667 219.444 106.813 214.625C106.96 209.806 110.262 205.991 114.189 206.102C118.116 206.214 121.18 210.211 121.034 215.029C120.887 219.848 117.585 223.663 113.658 223.552Z" fill="#22A7F0"/>
<g opacity="0.35">
<path d="M121.046 215.029C120.9 219.845 117.596 223.663 113.672 223.552C109.74 223.442 106.677 219.444 106.828 214.624C106.846 213.973 106.926 213.338 107.059 212.729C107.969 216.066 110.498 218.498 113.547 218.58C116.937 218.675 119.868 215.843 120.691 211.957C120.953 212.918 121.075 213.953 121.046 215.029Z" fill="#371A45"/>
</g>
<path d="M121.046 215.029C121.038 215.357 121.012 215.679 120.969 215.998C120.304 212.201 117.599 209.33 114.281 209.239C110.622 209.138 107.5 212.445 106.985 216.799C106.859 216.097 106.806 215.373 106.828 214.624C106.973 209.808 110.276 205.989 114.202 206.099C118.129 206.216 121.192 210.209 121.046 215.029Z" fill="white"/>
<path d="M113.834 225.14C118.572 225.14 122.526 220.676 122.698 215.074C122.78 212.391 121.994 209.828 120.484 207.858C118.883 205.771 116.671 204.584 114.253 204.516C111.831 204.463 109.553 205.507 107.827 207.501C106.199 209.382 105.258 211.895 105.175 214.579C105.093 217.262 105.88 219.825 107.39 221.795C108.991 223.882 111.203 225.068 113.621 225.137C113.692 225.139 113.764 225.14 113.834 225.14ZM114.038 207.688C114.077 207.688 114.116 207.688 114.155 207.69C115.535 207.728 116.838 208.457 117.822 209.741C118.897 211.143 119.455 213.003 119.395 214.981C119.275 218.916 116.724 222.043 113.719 221.964C112.338 221.925 111.036 221.197 110.051 219.912C108.976 218.511 108.418 216.65 108.478 214.672C108.539 212.694 109.21 210.868 110.368 209.53C111.399 208.339 112.698 207.688 114.038 207.688Z" fill="#371A45"/>
<path d="M98.7489 239.247C99.6523 239.247 100.39 238.548 100.401 237.678L100.558 224.515C100.601 220.924 98.7799 217.573 95.6858 215.556C93.4583 214.103 92.1794 211.693 92.264 209.109L92.8743 190.563C92.9029 189.687 92.1878 188.954 91.2748 188.926C90.3583 188.917 89.6003 189.586 89.5717 190.462L88.9614 209.008C88.8399 212.685 90.6598 216.116 93.8289 218.183C96.0029 219.601 97.2841 221.954 97.2531 224.479L97.0958 237.642C97.0851 238.519 97.8169 239.238 98.7286 239.247C98.737 239.247 98.7429 239.247 98.7489 239.247Z" fill="#371A45"/>
<path d="M180.215 203.588C180.215 203.588 186.874 204.431 187.086 211.916C187.314 219.966 181.84 221.539 181.84 221.539C181.84 221.539 168.775 228.754 139.472 224.219C139.472 224.219 132.065 213.354 142.027 207.415C142.029 207.415 164.557 210.804 180.215 203.588Z" fill="white"/>
<g opacity="0.25">
<path d="M139.474 224.221C168.776 228.754 181.841 221.539 181.841 221.539C181.841 221.539 187.317 219.964 187.091 211.917C187.073 211.286 187.007 210.708 186.906 210.168C185.35 212.901 182.999 213.578 182.999 213.578C182.999 213.578 171.35 220.012 145.376 216.912C141.958 216.505 139.107 214.135 138.34 210.909C138.332 210.878 138.325 210.847 138.318 210.816C134.385 216.753 139.474 224.221 139.474 224.221Z" fill="#371A45"/>
</g>
<path d="M157.796 227.724C173.479 227.724 181.39 224.043 182.701 223.372C183.989 222.899 189.413 220.396 189.171 211.861C189 205.816 185.225 203.298 182.99 202.335C181.449 201.671 179.659 201.667 178.078 202.322C165.46 207.555 148.672 206.169 143.828 205.622C142.142 205.429 140.445 205.906 139.169 206.925C134.413 210.72 133.435 216.604 136.483 223.068C137.359 224.928 139.142 226.214 141.252 226.507C147.509 227.381 153.014 227.724 157.796 227.724ZM180.534 205.84C180.794 205.84 181.05 205.89 181.285 205.991C183.667 207.018 184.919 209.03 185.002 211.97C185.185 218.412 181.283 219.608 181.243 219.621C181.089 219.665 180.942 219.726 180.802 219.803C180.69 219.863 168.474 226.258 141.851 222.542C141.157 222.445 140.57 222.024 140.283 221.416C138.693 218.045 137.673 213.329 141.834 210.009C142.236 209.688 142.785 209.54 143.339 209.602C148.444 210.181 166.158 211.631 179.731 206.001V206.002C179.991 205.893 180.263 205.84 180.534 205.84Z" fill="#371A45"/>
<path d="M151.023 145.392L157.889 156.584L175.439 185.187L175.982 186.076C176.74 185.515 177.496 184.947 178.249 184.373C211.786 159.048 241.81 126.526 245.562 124.692C256.592 119.304 265.611 109.533 266.339 103.545C267.717 92.2551 251.771 74.7929 249.165 72.0255C248.932 71.7793 248.807 71.6476 248.807 71.6476C248.807 71.6476 262.635 53.0221 253.563 46.9296C244.263 40.6894 222.136 70.6847 220.615 72.4777C217.788 75.8303 210.892 60.1221 201.245 61.1023C189.744 62.2656 204.806 86.0779 203.947 88.6564C202.945 91.6597 194.903 102.147 180.909 116.749C179.602 118.107 178.243 119.505 176.834 120.938C169.552 128.331 160.907 136.612 151.023 145.392Z" fill="white"/>
<g opacity="0.25">
<path d="M175.439 185.187L175.982 186.076C176.74 185.515 177.496 184.947 178.249 184.373C211.786 159.048 241.81 126.526 245.562 124.692C256.592 119.304 265.611 109.533 266.339 103.545C267.717 92.2552 251.771 74.793 249.165 72.0255C240.903 78.4157 221.521 93.2124 221.521 93.2124C221.521 93.2124 221.701 145.066 175.439 185.187Z" fill="#371A45"/>
</g>
<path d="M175.983 188.192C176.453 188.192 176.927 188.049 177.327 187.751C200.586 170.495 222.344 149.497 235.345 136.951C240.566 131.912 245.498 127.154 246.571 126.573C257.816 121.083 267.673 110.859 268.531 103.789C269.913 92.4067 255.857 76.11 251.593 71.4614C254.026 67.8558 259.933 58.2047 258.667 51.1481C258.212 48.6074 256.917 46.6059 254.822 45.1987C247.909 40.5558 236.399 48.7402 219.635 70.2213C219.545 70.337 219.461 70.4446 219.385 70.5419C218.605 69.9362 217.39 68.6504 216.448 67.6554C212.724 63.7189 207.618 58.3283 201.013 58.997C198.039 59.2981 196.531 60.7855 195.791 61.9786C193.003 66.4704 195.915 74.1567 199.705 82.9994C200.547 84.9631 201.58 87.3744 201.755 88.2515C199.911 92.5727 182.038 114.956 149.526 143.835C148.632 144.628 148.578 145.968 149.403 146.826C150.229 147.684 151.622 147.736 152.516 146.944C184.979 118.108 204.331 94.4459 206.043 89.3003C206.512 87.8943 205.826 86.1688 203.778 81.3884C201.65 76.4237 197.689 67.1837 199.574 64.146C199.805 63.775 200.228 63.3319 201.474 63.206C205.861 62.7606 209.924 67.0532 213.187 70.5019C215.726 73.1857 217.572 75.1253 219.776 75.0658C220.761 75.0395 221.667 74.5952 222.326 73.8132C222.461 73.6552 222.746 73.2911 223.159 72.7598C225.339 69.9672 231.128 62.5476 237.451 56.4906C244.39 49.8428 249.801 46.9918 252.297 48.6669C253.407 49.4123 254.07 50.4588 254.323 51.8637C255.354 57.6001 249.393 67.2054 247.01 70.4217C246.403 71.2404 246.479 72.3579 247.192 73.093C252.292 78.3496 265.279 94.0234 264.152 103.298C263.545 108.296 255.35 117.537 244.56 122.805C243.048 123.544 239.88 126.572 232.22 133.964C219.296 146.438 197.662 167.313 174.631 184.401C173.668 185.115 173.49 186.445 174.234 187.37C174.672 187.909 175.324 188.192 175.983 188.192Z" fill="#371A45"/>
<path d="M250.728 121.769C250.728 121.769 254.361 119.643 258.125 116.187C262.521 112.147 267.097 106.29 266.243 99.8713C264.663 87.9738 248.807 71.6462 248.807 71.6462C244.184 71.2226 238.004 74.4434 232.646 78.902C226.419 84.0831 221.306 90.9313 221.02 95.6589C220.627 102.204 234.282 124.715 250.728 121.769Z" fill="white"/>
<g opacity="0.25">
<path d="M250.728 121.769C250.728 121.769 254.36 119.643 258.124 116.188C254.646 115.499 249.982 113.449 244.911 108.096C234.436 97.0468 229.45 88.7891 232.646 78.9032C226.419 84.0843 221.306 90.9325 221.02 95.6602C220.626 102.204 234.281 124.715 250.728 121.769Z" fill="#371A45"/>
</g>
<path d="M249.943 119.791C249.669 119.789 249.408 119.806 249.146 119.841C249.038 119.865 248.83 119.868 248.644 119.875L248.08 119.898C247.705 119.931 247.327 119.893 246.95 119.878L246.384 119.851L245.82 119.773C244.318 119.578 242.825 119.164 241.389 118.562C238.523 117.33 235.865 115.466 233.528 113.248C231.183 111.035 229.106 108.504 227.353 105.794C226.476 104.441 225.675 103.042 224.989 101.614C224.311 100.193 223.721 98.7148 223.403 97.3259L223.303 96.8187C223.271 96.6515 223.267 96.5038 223.244 96.3458C223.215 96.1787 223.231 96.0619 223.227 95.9302C223.214 95.8111 223.239 95.6497 223.258 95.494C223.31 94.8791 223.507 94.2001 223.741 93.5269C224.242 92.1678 224.991 90.7972 225.858 89.4816C227.608 86.8447 229.808 84.3898 232.205 82.1651C234.608 79.9439 237.245 77.931 240.06 76.3406C241.465 75.5494 242.919 74.8658 244.382 74.3804C245.841 73.9052 247.315 73.659 248.602 73.754L247.201 73.0911C248.909 74.8853 250.601 76.8329 252.205 78.7817C253.811 80.7431 255.337 82.7582 256.79 84.8101C258.22 86.8733 259.562 88.9813 260.744 91.143C261.049 91.68 261.294 92.2342 261.574 92.7792L261.982 93.599C262.113 93.8738 262.216 94.1532 262.333 94.4303C262.556 94.9856 262.808 95.5386 263.012 96.0951L263.544 97.7725C263.648 98.0519 263.699 98.3301 263.751 98.6083L263.917 99.4419C263.966 99.7167 264.05 100.004 264.071 100.267L264.139 101.054C264.171 102.109 264.04 103.176 263.761 104.231C263.213 106.351 262.064 108.406 260.622 110.3C259.185 112.203 257.448 113.958 255.571 115.576C254.632 116.385 253.653 117.162 252.647 117.901C252.142 118.268 251.634 118.632 251.117 118.979L250.34 119.491L249.951 119.737L249.76 119.855L249.667 119.911L249.621 119.938C249.676 119.904 249.833 119.824 249.943 119.791ZM251.519 123.743C251.664 123.689 251.857 123.589 251.947 123.532L252.006 123.497L252.123 123.426L252.349 123.286L252.789 123.007L253.649 122.44C254.216 122.059 254.769 121.663 255.319 121.263C256.415 120.457 257.479 119.613 258.51 118.725C260.568 116.948 262.506 115.002 264.182 112.789C265.853 110.586 267.29 108.093 268.032 105.266C268.402 103.86 268.591 102.38 268.541 100.891L268.446 99.7774C268.411 99.4075 268.32 99.0778 268.258 98.7263L268.05 97.6878C267.982 97.3397 267.913 96.9927 267.797 96.671C266.227 91.3457 263.425 86.7886 260.443 82.4445C257.387 78.1245 254.095 74.0895 250.419 70.2011L250.414 70.1954C250.038 69.7992 249.533 69.5771 249.017 69.5382C246.816 69.3722 244.797 69.7809 242.958 70.3717C241.121 70.9809 239.43 71.7858 237.827 72.6869C234.627 74.4994 231.767 76.6921 229.145 79.1126C226.532 81.5446 224.137 84.1963 222.132 87.2134C221.138 88.7282 220.239 90.3358 219.575 92.138C219.258 93.0494 218.975 93.9952 218.872 95.0531C218.798 95.5375 218.8 96.197 218.851 96.7076C218.882 96.9653 218.904 97.2366 218.949 97.4817L219.092 98.2087C219.53 100.095 220.217 101.758 220.986 103.382C221.762 104.996 222.646 106.54 223.613 108.03C225.544 111.011 227.814 113.783 230.444 116.269C233.069 118.75 236.115 120.93 239.626 122.437C241.387 123.175 243.276 123.709 245.228 123.963L245.96 124.059L246.7 124.099C247.195 124.12 247.688 124.161 248.183 124.126L248.925 124.096C249.174 124.084 249.403 124.083 249.726 124.034C250.326 123.958 250.929 123.859 251.519 123.743Z" fill="#371A45"/>
<path d="M215.366 155.052C216.176 155.052 216.955 154.622 217.34 153.878C217.881 152.831 217.438 151.561 216.349 151.04C216.093 150.919 190.76 138.603 182.103 117.316C181.661 116.227 180.383 115.69 179.25 116.115C178.116 116.541 177.558 117.767 178 118.856C187.285 141.689 213.287 154.305 214.389 154.83C214.703 154.981 215.038 155.052 215.366 155.052Z" fill="#371A45"/>
<path d="M188.471 77.1834L184.609 78.5917C183.915 78.8447 183.138 78.5093 182.875 77.8429L165.203 33.1242C164.94 32.4578 165.289 31.7112 165.983 31.4582L169.844 30.0499C177.125 27.3946 185.269 30.912 188.033 37.9068L196.649 59.7108C199.413 66.7056 195.752 74.5281 188.471 77.1834Z" fill="white"/>
<path d="M184.131 79.067C184.341 79.067 184.55 79.0304 184.753 78.9571L188.615 77.5488C196.093 74.8214 199.868 66.7573 197.029 59.5724L188.413 37.7695C187.038 34.2888 184.334 31.5316 180.8 30.0054C177.266 28.478 173.324 28.3646 169.701 29.6859L165.84 31.0943C165.402 31.2534 165.057 31.5671 164.865 31.977C164.673 32.387 164.659 32.8438 164.825 33.2629L182.496 77.9816C182.661 78.4007 182.988 78.7338 183.415 78.9182C183.642 79.0178 183.887 79.067 184.131 79.067ZM188.326 76.8194L184.465 78.2278C183.982 78.4052 183.437 78.1694 183.255 77.7045L165.583 32.9846C165.4 32.5198 165.644 31.9977 166.128 31.8213L169.99 30.413C177.051 27.8368 184.975 31.2614 187.655 38.0443L196.269 59.8495C198.949 66.6313 195.386 74.2443 188.326 76.8194Z" fill="#371A45"/>
<g opacity="0.25">
<path d="M192.526 49.2758L195.313 56.3244C198.813 65.1878 194.173 75.1034 184.945 78.4731C184.065 78.7948 183.081 78.3655 182.746 77.5205L178.112 65.8049C178.57 66.2492 179.273 66.4152 179.92 66.1839L181.007 65.7843C188.301 63.1279 192.731 56.3736 192.526 49.2758Z" fill="#371A45"/>
</g>
<path d="M184.136 80.846C184.56 80.846 184.99 80.7739 185.41 80.6204L189.271 79.2121C197.705 76.1355 201.961 67.042 198.76 58.9401L190.144 37.1372C186.943 29.0352 177.477 24.9465 169.042 28.0219L165.181 29.4302C163.323 30.1081 162.386 32.1107 163.091 33.8946L180.763 78.6133C181.309 79.9941 182.682 80.846 184.136 80.846ZM187.668 75.1554L184.661 76.2523L167.639 33.1744L170.646 32.0775C173.603 30.9989 176.821 31.0905 179.707 32.3374C182.592 33.5843 184.8 35.8353 185.922 38.676L194.538 60.4789C196.855 66.3459 193.773 72.9284 187.668 75.1554Z" fill="#371A45"/>
<path d="M11.3635 87.8484L15.225 86.4401C15.9187 86.187 16.6958 86.5225 16.9592 87.1889L34.6307 131.909C34.8941 132.575 34.5449 133.322 33.8512 133.575L29.9896 134.983C22.7087 137.638 14.5648 134.121 11.8009 127.126L3.18502 105.323C0.419934 98.3274 4.08247 90.5048 11.3635 87.8484Z" fill="white"/>
<path d="M24.9778 136.262C26.7167 136.262 28.458 135.957 30.1326 135.347L33.9941 133.938C34.4304 133.779 34.7772 133.466 34.9691 133.056C35.161 132.646 35.1753 132.189 35.0084 131.77L17.3369 87.0499C17.1712 86.6309 16.8446 86.2977 16.418 86.1133C15.9913 85.929 15.5157 85.9152 15.0795 86.0755L11.218 87.4839C3.73911 90.2112 -0.0354767 98.2754 2.8035 105.46L11.4194 127.263C12.7948 130.744 15.4991 133.501 19.0329 135.027C20.9351 135.849 22.9541 136.262 24.9778 136.262ZM15.7017 86.7454C15.8328 86.7454 15.9627 86.7717 16.0867 86.8255C16.3155 86.924 16.4907 87.1026 16.5789 87.3282L34.2504 132.048C34.3398 132.274 34.3314 132.517 34.2289 132.737C34.1264 132.957 33.9405 133.125 33.7057 133.21L29.8441 134.619C26.4247 135.867 22.7026 135.759 19.3666 134.317C16.0306 132.876 13.4777 130.273 12.1798 126.987L3.56392 105.184C2.26599 101.898 2.37682 98.3235 3.87736 95.1187C5.37789 91.9138 8.08696 89.4613 11.5076 88.2144L15.3692 86.806C15.4764 86.7648 15.5896 86.7454 15.7017 86.7454Z" fill="#371A45"/>
<g opacity="0.25">
<path d="M29.6736 119.357L34.5042 131.585C34.8391 132.429 34.3921 133.376 33.5126 133.697C28.6677 135.462 23.5189 135.075 19.2152 133.022C15.3286 131.167 12.1284 127.949 10.4646 123.74L7.96174 117.408C12.7768 122.008 20.1424 123.751 26.9097 121.284L28.5843 120.674C29.1933 120.45 29.5854 119.936 29.6736 119.357Z" fill="#371A45"/>
</g>
<path d="M24.9773 138.042C26.9379 138.042 28.9021 137.698 30.7912 137.01L34.6528 135.602C35.5526 135.274 36.2653 134.629 36.6598 133.786C37.0543 132.942 37.0841 132.002 36.7421 131.138L19.0705 86.4189C18.7297 85.5544 18.0575 84.8697 17.1803 84.4907C16.3031 84.1106 15.3234 84.0831 14.4235 84.4117L10.562 85.82C6.47631 87.3097 3.23926 90.2386 1.44791 94.0685C-0.344623 97.8974 -0.476934 102.167 1.07366 106.092L9.68952 127.895C11.2401 131.82 14.2889 134.93 18.2744 136.651C20.4185 137.577 22.695 138.042 24.9773 138.042ZM32.194 131.857L29.187 132.954C26.23 134.032 23.012 133.939 20.1265 132.694C17.2411 131.447 15.0338 129.196 13.9111 126.355L5.2952 104.552C2.97706 98.6863 6.05916 92.1037 12.1638 89.8767L15.1708 88.7798L32.194 131.857Z" fill="#371A45"/>
<g opacity="0.25">
<path d="M71.3785 168.241C74.3259 169.685 77.3794 170.94 80.5056 172.006C90.2287 175.307 100.711 176.745 111.347 176.012C116.847 175.629 122.389 174.666 127.889 173.078C139.462 169.736 149.597 163.994 157.889 156.584C165.644 149.661 171.782 141.277 175.964 132.039C178.177 127.151 179.841 122.027 180.909 116.749C179.603 118.107 178.243 119.505 176.834 120.938C177.043 119.23 177.287 117.58 177.568 115.993C178.565 110.377 176.781 110.268 176.399 104.577C176.006 98.9612 154.089 98.7093 132.13 102.056C115.964 105.34 92.3049 108.275 87.6877 120.939C87.4076 123.731 86.0417 127.329 85.0692 129.879L82.7606 151.737C79.8143 155.874 75.7513 161.679 71.3785 168.241Z" fill="#371A45"/>
</g>
<path d="M99.9265 162.848C53.7431 162.848 16.3041 126.88 16.3041 82.5127C16.3041 38.1451 53.7431 2.17798 99.9265 2.17798C146.11 2.17798 183.549 38.1451 183.549 82.5127C183.549 126.88 146.11 162.848 99.9265 162.848Z" fill="white"/>
<path d="M99.9689 163.246C107.955 163.246 116.07 162.143 124.103 159.825C145.599 153.621 163.293 139.747 173.927 120.758C184.56 101.769 186.86 79.9388 180.403 59.2878C173.946 38.6368 159.504 21.6383 139.737 11.4227C119.972 1.20707 97.2467 -1.00276 75.7517 5.2008C31.3781 18.0075 6.12166 63.1075 19.4513 105.738C30.3674 140.651 63.8357 163.246 99.9689 163.246ZM100.036 2.53068C113.612 2.53068 127.06 5.75726 139.352 12.1097C158.927 22.2268 173.231 39.0616 179.625 59.5122C186.02 79.964 183.743 101.584 173.211 120.389C162.68 139.194 145.157 152.935 123.869 159.078C115.916 161.373 107.876 162.466 99.9689 162.466C64.1825 162.467 31.0408 140.091 20.2284 105.513C7.02747 63.2953 32.0396 18.6304 75.9842 5.94733C83.904 3.66308 91.993 2.53068 100.036 2.53068Z" fill="#371A45"/>
<g opacity="0.25">
<path d="M175.915 48.971C177.513 52.3029 178.883 55.7837 180.015 59.3996C193.296 101.892 168.213 146.684 123.985 159.453C79.7534 172.212 33.1283 148.116 19.8368 105.626C19.4543 104.405 19.1015 103.173 18.7856 101.951C35.897 137.845 78.3649 157.027 118.834 145.349C161.791 132.949 186.681 90.344 175.915 48.971Z" fill="#371A45"/>
</g>
<path d="M99.9691 165.026C108.132 165.026 116.424 163.898 124.634 161.529C146.604 155.189 164.689 141.009 175.557 121.601C186.426 102.194 188.776 79.8812 182.176 58.7756C168.552 15.2065 120.57 -9.59172 75.2168 3.49666C29.8646 16.585 4.05159 62.68 17.6756 106.25C28.8349 141.933 63.0409 165.026 99.9691 165.026ZM99.8856 4.33937C134.876 4.33937 167.279 26.2155 177.85 60.0237C184.103 80.0198 181.876 101.159 171.58 119.545C161.284 137.931 144.15 151.365 123.335 157.373C115.56 159.617 107.698 160.685 99.9667 160.685C64.9764 160.687 32.5737 138.809 22.002 105.001C9.0943 63.7231 33.5498 20.0521 76.5171 7.65183C84.2927 5.40765 92.1541 4.33937 99.8856 4.33937Z" fill="#371A45"/>
<path d="M180.374 61.4505C185.318 76.4362 184.845 91.8912 179.983 106.039C176.339 116.646 154.632 139.875 121.77 150.195C91.2993 159.764 58.3328 152.578 48.9935 145.924C36.5351 137.05 26.8824 124.679 21.9374 109.694C8.85329 70.0368 38.895 42.7987 82.6489 29.4756C126.403 16.1525 167.291 21.7938 180.374 61.4505Z" fill="#371A45"/>
<path d="M90.0566 157.038C100.377 157.038 111.53 155.693 122.472 152.257C157.333 141.31 178.529 117.197 182.129 106.719C187.32 91.6152 187.458 75.7354 182.528 60.7955C176.101 41.3147 163.013 28.769 143.628 23.509C126.727 18.9233 105.405 20.2721 81.9675 27.4088C58.5287 34.5455 40.291 45.2432 29.2271 58.3441C16.5351 73.3721 13.3589 90.8699 19.7865 110.351C24.7148 125.291 34.3509 138.195 47.6495 147.668C54.0688 152.24 70.5711 157.037 90.0566 157.038ZM122.068 25.1761C129.409 25.1761 136.228 26.0096 142.4 27.6836C160.231 32.5223 172.283 44.1039 178.223 62.1054C182.865 76.1693 182.731 91.1263 177.841 105.357C174.594 114.804 153.99 137.794 121.07 148.132C91.3664 157.459 59.2354 150.518 50.3395 144.181C37.8084 135.254 28.7313 123.101 24.0915 109.037C8.00271 60.2734 60.1603 38.5988 83.3322 31.5434C97.2363 27.3092 110.32 25.1761 122.068 25.1761Z" fill="#371A45"/>
<g opacity="0.5">
<path d="M142.216 65.2072C141.176 57.4188 145.094 50.5179 150.969 49.7937C156.843 49.0694 162.448 54.7961 163.489 62.5845C164.529 70.3729 160.611 77.2738 154.736 77.998C148.862 78.7223 143.257 72.9956 142.216 65.2072Z" fill="white"/>
</g>
<g opacity="0.5">
<path d="M149.121 101.085C145.902 101.052 143.326 98.1029 143.366 94.4994C143.407 90.896 146.05 88.0023 149.269 88.0362C152.488 88.0701 155.064 91.0188 155.024 94.6222C154.983 98.2257 152.341 101.119 149.121 101.085Z" fill="white"/>
</g>
<g opacity="0.35">
<path d="M152.762 29.1457C165.375 35.0744 175.116 45.5213 180.373 61.4481C185.318 76.4372 184.842 91.8911 179.986 106.037C176.339 116.645 154.629 139.875 121.769 150.197C110.166 153.844 98.2051 155.057 87.3176 154.791C127.429 141.276 153.825 112.839 158.344 99.6839C164.516 81.727 165.115 62.1111 158.839 43.0962C157.166 38.0125 155.121 33.3718 152.762 29.1457Z" fill="#111A28"/>
</g>
<path d="M16.756 76.2244C17.6379 76.2244 18.4734 75.7251 18.8345 74.8939C18.8405 74.879 18.8524 74.8515 18.8584 74.8366L18.9192 74.666C25.9535 52.0101 48.3101 33.4372 80.2576 23.7083C112.029 14.0342 141.356 16.5017 160.719 30.4763L160.966 30.6549L161.253 30.7626C162.404 31.1954 163.713 30.6595 164.177 29.5569C164.587 28.5836 164.214 27.4925 163.333 26.936C142.788 12.1702 112.021 9.48635 78.8929 19.5714C45.5045 29.7389 22.0716 49.3595 14.5963 73.4065C14.2519 74.4748 14.8109 75.6381 15.9062 76.0641C16.1851 76.174 16.4723 76.2244 16.756 76.2244Z" fill="#371A45"/>
<g opacity="0.5">
<path d="M47.5114 127.868C47.5114 127.868 21.8199 92.64 38.6226 70.3676C55.4253 48.0953 87.0211 38.5438 86.9246 40.7147C86.9246 40.7147 54.6518 59.4879 49.733 90.2011C45.9405 113.883 47.5114 127.868 47.5114 127.868Z" fill="white"/>
</g>
</svg>
