<svg width="18" height="16" viewBox="0 0 18 16" fill="none" xmlns="http://www.w3.org/2000/svg">
<path fill-rule="evenodd" clip-rule="evenodd" d="M15.1667 3.08149C14.9598 2.91034 14.6243 2.91034 14.4174 3.08149L12.9426 4.30145C11.8032 3.6436 10.531 3.29478 9.22023 3.29478C7.76722 3.29478 6.35742 3.72228 5.13609 4.52182C3.92951 5.30676 2.92386 6.4388 2.19941 7.82669C2.14169 7.93726 2.14153 8.06261 2.19897 8.17328C2.82458 9.37881 3.66491 10.3902 4.66694 11.1468L3.27432 12.2987L3.22302 12.3479C3.06913 12.5195 3.08623 12.7629 3.27432 12.9185C3.48123 13.0897 3.81669 13.0897 4.0236 12.9185L15.1667 3.70126L15.218 3.65211C15.3719 3.48054 15.3548 3.23707 15.1667 3.08149ZM5.41711 10.5263L6.92734 9.27707C6.62243 8.90583 6.45529 8.4661 6.45529 8.0007C6.45529 6.73437 7.68991 5.71246 9.22023 5.71246C9.77981 5.71246 10.3171 5.85168 10.7649 6.10271L12.1796 4.93258C11.2558 4.43189 10.2491 4.17128 9.22023 4.17128C8.01242 4.17128 6.83246 4.52908 5.79241 5.20994C4.79648 5.85785 3.94286 6.78918 3.29833 7.94087L3.26537 8.00082L3.29741 8.05954C3.85758 9.06568 4.57938 9.90228 5.41711 10.5263ZM9.9927 6.74149C9.7584 6.64276 9.49402 6.58896 9.22023 6.58896C8.27529 6.58896 7.51492 7.21832 7.51492 8.0007C7.51492 8.22862 7.579 8.44502 7.69916 8.63864L9.9927 6.74149ZM11.436 7.89065L11.5076 7.89724C11.7956 7.94008 11.9871 8.16793 11.9353 8.40614C11.7322 9.3399 10.8444 10.0757 9.71625 10.2451C9.42835 10.2884 9.15259 10.1304 9.10032 9.89222C9.04806 9.65407 9.23908 9.42597 9.52698 9.38274C10.22 9.27868 10.7676 8.82482 10.8924 8.251C10.9398 8.03263 11.1752 7.88135 11.436 7.89065ZM14.163 5.81167C14.3968 5.66611 14.729 5.70487 14.905 5.89825C15.4177 6.46168 15.8657 7.10849 16.2409 7.82616C16.2989 7.93707 16.299 8.06286 16.2411 8.1738C14.7736 10.9859 12.1409 12.7052 9.22023 12.7052C8.55533 12.7052 7.89746 12.6162 7.26384 12.4413C6.98628 12.3647 6.83637 12.1164 6.929 11.8868C7.02163 11.6573 7.32173 11.5332 7.59929 11.6099C8.12508 11.755 8.6697 11.8287 9.22023 11.8287C11.5547 11.8287 13.7279 10.4857 15.0643 8.19581L15.1742 8.00082L15.1368 7.93146C14.8679 7.4528 14.5639 7.01376 14.2286 6.61902L14.0584 6.42537C13.8824 6.23199 13.9292 5.95723 14.163 5.81167Z" fill="#65656B"/>
</svg>
