<svg width="28" height="16" viewBox="0 0 28 16" fill="none" xmlns="http://www.w3.org/2000/svg">
<path fill-rule="evenodd" clip-rule="evenodd" d="M23.4415 2.56375C23.1191 2.37458 22.5963 2.37458 22.2738 2.56375L19.9753 3.91213C18.1998 3.18503 16.217 2.7995 14.1743 2.7995C11.9099 2.7995 9.7128 3.27199 7.80943 4.1557C5.92905 5.02326 4.36181 6.27446 3.23279 7.80844C3.14285 7.93066 3.1426 8.0692 3.2321 8.19152C4.20709 9.52395 5.51668 10.6418 7.07829 11.478L4.90798 12.7512L4.82803 12.8056C4.5882 12.9952 4.61484 13.2643 4.90798 13.4363C5.23043 13.6254 5.75323 13.6254 6.07568 13.4363L23.4415 3.24876L23.5215 3.19444C23.7613 3.00481 23.7347 2.73571 23.4415 2.56375ZM8.24738 10.7922L10.601 9.41149C10.1258 9.00118 9.86533 8.51516 9.86533 8.00078C9.86533 6.60115 11.7894 5.47166 14.1743 5.47166C15.0464 5.47166 15.8837 5.62554 16.5817 5.903L18.7863 4.6097C17.3467 4.0563 15.7778 3.76826 14.1743 3.76826C12.292 3.76826 10.4531 4.16372 8.83228 4.91625C7.28017 5.63236 5.94986 6.66172 4.9454 7.93465L4.89403 8.0009L4.94396 8.0658C5.81695 9.17786 6.94184 10.1025 8.24738 10.7922ZM15.3782 6.60901C15.013 6.49989 14.601 6.44042 14.1743 6.44042C12.7017 6.44042 11.5167 7.13604 11.5167 8.00078C11.5167 8.25269 11.6166 8.49186 11.8038 8.70587L15.3782 6.60901ZM17.6274 7.87914L17.739 7.88642C18.1878 7.93378 18.4863 8.1856 18.4055 8.44889C18.0891 9.48094 16.7055 10.2942 14.9473 10.4815C14.4987 10.5293 14.0689 10.3546 13.9875 10.0914C13.906 9.82819 14.2037 9.57608 14.6524 9.52829C15.7324 9.41328 16.5858 8.91164 16.7802 8.27742C16.8542 8.03607 17.2211 7.86886 17.6274 7.87914ZM21.8774 5.58132C22.2417 5.42044 22.7594 5.46328 23.0336 5.67701C23.8327 6.29975 24.5309 7.01465 25.1157 7.80786C25.206 7.93044 25.2061 8.06947 25.1159 8.19209C22.8289 11.3002 18.7261 13.2004 14.1743 13.2004C13.1381 13.2004 12.1129 13.1021 11.1254 12.9088C10.6928 12.8241 10.4592 12.5497 10.6036 12.296C10.7479 12.0422 11.2156 11.9052 11.6482 11.9899C12.4676 12.1503 13.3164 12.2317 14.1743 12.2317C17.8124 12.2317 21.1993 10.7473 23.2819 8.21642L23.4533 8.0009L23.395 7.92424C22.9759 7.3952 22.5022 6.90994 21.9796 6.47366L21.7143 6.25962C21.44 6.04589 21.513 5.7422 21.8774 5.58132Z" fill="#65656B"/>
</svg>
