<svg width="28" height="39" viewBox="0 0 28 39" fill="none" xmlns="http://www.w3.org/2000/svg">
<path fill-rule="evenodd" clip-rule="evenodd" d="M18.9071 5.0157L8.89505 5.01562C5.39596 5.01562 2.87155 9.13806 2.87155 14.4449V24.5551C2.87155 29.8619 5.39596 33.9844 8.89505 33.9844H18.8978C20.5785 33.9569 22.1693 32.9255 23.309 31.1302C24.4487 29.335 25.0378 26.9326 24.9392 24.4825L24.9407 14.4449C25.0378 12.0674 24.4487 9.66503 23.309 7.86976C22.1693 6.07449 20.5785 5.04307 18.9071 5.0157ZM8.89505 7.47544L18.8884 7.47536C20.1016 7.49522 21.2563 8.2439 22.0836 9.54702C22.9109 10.8501 23.3385 12.594 23.2669 14.3723L23.2655 24.5551C23.3385 26.406 22.9109 28.1499 22.0836 29.453C21.2563 30.7561 20.1016 31.5048 18.8884 31.5246L8.89505 31.5246C6.36319 31.5246 4.54677 28.5583 4.54677 24.5551V14.4449C4.54677 10.4417 6.36319 7.47544 8.89505 7.47544ZM20.5617 14.0899C20.2726 13.5596 19.7455 13.4738 19.3843 13.8982L14.8588 19.2171L14.7291 19.35C14.1955 19.8372 13.4949 19.7922 12.9838 19.2073L8.42518 13.8951L8.32258 13.7925C7.969 13.4926 7.50981 13.6102 7.24838 14.0939C6.96081 14.6259 7.02144 15.3996 7.38379 15.8218L11.9481 21.1407L12.1262 21.3307C13.2744 22.4707 14.796 22.4077 15.8972 21.1474L20.4312 15.8186L20.5221 15.6947C20.8001 15.2555 20.8245 14.572 20.5617 14.0899Z" fill="#C9C9CA"/>
</svg>
