<svg width="28" height="39" viewBox="0 0 28 39" fill="none" xmlns="http://www.w3.org/2000/svg">
<path fill-rule="evenodd" clip-rule="evenodd" d="M23.3817 6.16824C23.0583 5.70434 22.5341 5.70434 22.2107 6.16824L19.9058 9.47499C18.1253 7.69186 16.1371 6.74639 14.0887 6.74639C11.818 6.74639 9.61477 7.90513 7.70611 10.0723C5.8205 12.1999 4.24891 15.2683 3.11676 19.0302C3.02656 19.3299 3.02631 19.6697 3.11606 19.9697C4.09376 23.2373 5.40699 25.9786 6.97294 28.0295L4.7966 31.1518L4.71643 31.2851C4.47592 31.7501 4.50265 32.41 4.7966 32.8318C5.11995 33.2957 5.64419 33.2957 5.96754 32.8318L23.3817 7.84816L23.4618 7.71493C23.7023 7.24989 23.6756 6.58996 23.3817 6.16824ZM8.14528 26.3476L10.5054 22.9615C10.0289 21.9553 9.76772 20.7634 9.76772 19.5019C9.76772 16.0695 11.6972 13.2996 14.0887 13.2996C14.9632 13.2996 15.8028 13.6769 16.5027 14.3574L18.7134 11.1857C17.2698 9.82855 15.6966 9.12216 14.0887 9.12216C12.2012 9.12216 10.3572 10.092 8.7318 11.9375C7.17538 13.6936 5.84138 16.218 4.83412 19.3397L4.78261 19.5022L4.83268 19.6614C5.70809 22.3886 6.83611 24.6562 8.14528 26.3476ZM15.2959 16.0888C14.9297 15.8212 14.5166 15.6753 14.0887 15.6753C12.612 15.6753 11.4237 17.3812 11.4237 19.5019C11.4237 20.1197 11.5238 20.7062 11.7116 21.2311L15.2959 16.0888ZM17.5514 19.2036L17.6633 19.2215C18.1134 19.3376 18.4126 19.9552 18.3317 20.6009C18.0144 23.1318 16.6269 25.1263 14.8639 25.5855C14.4139 25.7027 13.983 25.2744 13.9013 24.6289C13.8196 23.9834 14.1181 23.3651 14.5681 23.248C15.6511 22.9659 16.5069 21.7357 16.7018 20.1803C16.776 19.5885 17.1439 19.1784 17.5514 19.2036ZM21.8132 13.5685C22.1785 13.1739 22.6976 13.279 22.9726 13.8031C23.7739 15.3303 24.4741 17.0835 25.0604 19.0288C25.151 19.3294 25.1511 19.6704 25.0606 19.9711C22.7674 27.5934 18.6531 32.2535 14.0887 32.2535C13.0496 32.2535 12.0215 32.0123 11.0313 31.5382C10.5975 31.3305 10.3633 30.6577 10.508 30.0354C10.6528 29.4131 11.1218 29.077 11.5555 29.2846C12.3772 29.6781 13.2283 29.8777 14.0887 29.8777C17.7369 29.8777 21.1332 26.2375 23.2216 20.0307L23.3934 19.5022L23.335 19.3142C22.9148 18.0168 22.4397 16.8268 21.9156 15.7568L21.6496 15.2319C21.3746 14.7078 21.4478 13.963 21.8132 13.5685Z" fill="#65656B"/>
</svg>
